#N canvas 415 405 585 385 10;
#X declare -path ../Data -path ../Effects -path ../Misc -path ../Signal
-path ../Sources -path ../Unity -path mx -path sfx -path pip_drummachine
-path pip_melodicsfx -path rj;
#X obj -123 66 netreceive 32000;
#X msg -123 93 \; evt_carcass_right 0 \;;
#X obj 148 172 vu 15 120 vu_main Master_Out -1 -8 0 8 -66577 -1 1 0
;
#X msg -118 251 \; pd dsp 1;
#X obj -118 231 loadbang;
#X obj -123 140 print;
#X msg -42 250 \; pd dsp 0;
#X text 112 8 Das Tal PD Patcher;
#X obj 216 174 tgl 35 0 outSwitch XXXXXXX Network 40 7 0 20 -262144
-1 -1 0 1;
#N canvas 229 251 1414 668 DAC 0;
#X obj -132 56 catch~ U1L;
#X obj -51 56 catch~ U1R;
#X obj 25 53 catch~ U2L;
#X obj 169 52 catch~ U3L;
#X obj 244 51 catch~ U3R;
#X obj 98 54 catch~ U2R;
#X obj 322 50 catch~ U4L;
#X obj 397 50 catch~ U4R;
#X obj 470 47 catch~ U5L;
#X obj 546 46 catch~ U5R;
#X obj 636 45 catch~ U6L;
#X obj 732 44 catch~ U6R;
#X obj 817 44 catch~ U7L;
#X obj 913 44 catch~ U7R;
#N canvas 16 322 1481 428 magicolo 0;
#X obj 38 46 inlet~;
#X obj 83 52 inlet~;
#X obj 138 43 inlet~;
#X obj 190 42 inlet~;
#X obj 240 44 inlet~;
#X obj 292 43 inlet~;
#X obj 340 41 inlet~;
#X obj 392 40 inlet~;
#X obj 447 39 inlet~;
#X obj 492 40 inlet~;
#X obj 540 38 inlet~;
#X obj 592 37 inlet~;
#X obj 639 37 inlet~;
#X obj 691 36 inlet~;
#X obj 27 13 bng 15 250 50 0 empty empty empty 17 7 0 10 -262144 -1
-1;
#X obj 51 15 bng 15 250 50 0 empty empty empty 17 7 0 10 -262144 -1
-1;
#X obj 748 28 inlet~;
#X obj 625 104 inlet~;
#X obj 674 104 inlet~;
#X obj 726 103 inlet~;
#X obj 776 105 inlet~;
#X obj 828 104 inlet~;
#X obj 876 102 inlet~;
#X obj 928 101 inlet~;
#X obj 902 128 inlet~;
#X obj 955 129 inlet~;
#X obj 1003 127 inlet~;
#X obj 1076 123 inlet~;
#X obj 1123 123 inlet~;
#X obj 1178 143 inlet~;
#X obj 1230 151 inlet~;
#X obj 1285 171 inlet~;
#X obj 1353 161 inlet~;
#X obj 1408 181 inlet~;
#X obj 44 353 dac~ 1 2 3 4 5 6 7 8 9 10 11 12 13 14 15 16 17 18 19
20 21 22 23 24 25 26 27 28 29 30 31 32;
#X connect 0 0 34 0;
#X connect 1 0 34 1;
#X connect 2 0 34 2;
#X connect 3 0 34 3;
#X connect 4 0 34 4;
#X connect 5 0 34 5;
#X connect 6 0 34 6;
#X connect 7 0 34 7;
#X connect 8 0 34 8;
#X connect 9 0 34 9;
#X connect 10 0 34 10;
#X connect 11 0 34 11;
#X connect 12 0 34 12;
#X connect 13 0 34 13;
#X connect 16 0 34 14;
#X connect 17 0 34 15;
#X connect 18 0 34 16;
#X connect 19 0 34 17;
#X connect 20 0 34 18;
#X connect 21 0 34 19;
#X connect 22 0 34 20;
#X connect 23 0 34 21;
#X connect 24 0 34 22;
#X connect 25 0 34 23;
#X connect 26 0 34 24;
#X connect 27 0 34 25;
#X connect 28 0 34 26;
#X connect 29 0 34 27;
#X connect 30 0 34 28;
#X connect 31 0 34 29;
#X connect 32 0 34 30;
#X restore 152 530 pd magicolo DAC 12 inputs redirected to master audio
and sent to unity i need this bar to be longerrr;
#X obj 1116 44 catch~ U8R;
#X obj 1191 40 catch~ U9L;
#X obj 1265 41 catch~ U9R;
#X obj 1335 39 catch~ U10L;
#X obj 1410 38 catch~ U10R;
#X obj 1488 37 catch~ U11L;
#X obj 1563 37 catch~ U11R;
#X obj 1637 34 catch~ U12L;
#X obj 1721 34 catch~ U12R;
#X obj 1802 32 catch~ U13L;
#X obj 1851 55 catch~ U13R;
#N canvas 102 172 1319 444 network 0;
#X obj 252 191 pip_limiter;
#X obj 538 334 switch~;
#X obj 548 170 r outSwitch;
#X obj 551 215 tgl 15 0 empty empty empty 17 7 0 10 -262144 -1 -1 0
1;
#X obj 550 258 sel 0 1;
#X msg 538 303 0;
#X msg 577 303 1;
#X obj 248 295 dac~ 1 2;
#X obj 472 262 loadbang;
#X obj 58 281 throw~ vu;
#X obj -21 34 inlet~;
#X obj 30 31 inlet~;
#X obj 79 31 inlet~;
#X obj 131 30 inlet~;
#X obj 181 32 inlet~;
#X obj 233 31 inlet~;
#X obj 281 29 inlet~;
#X obj 333 28 inlet~;
#X obj 381 29 inlet~;
#X obj 433 28 inlet~;
#X obj 481 26 inlet~;
#X obj 533 25 inlet~;
#N canvas 182 403 450 300 MA_mixer_1 0;
#X obj 84 40 inlet~;
#X obj 228 43 inlet~;
#X obj 91 215 outlet~;
#X obj 238 217 outlet~;
#X obj 125 124 *~;
#X obj 229 124 *~;
#X obj 150 88 sig~;
#X obj 316 84 sig~;
#X obj 148 15 r pd_channel_vol_0;
#X obj 311 16 r pd_channel_vol_1;
#X connect 0 0 4 0;
#X connect 1 0 5 0;
#X connect 4 0 2 0;
#X connect 5 0 3 0;
#X connect 6 0 4 1;
#X connect 7 0 5 1;
#X connect 8 0 6 0;
#X connect 9 0 7 0;
#X restore -21 78 pd MA_mixer_1;
#N canvas 171 686 450 300 MA_mixer_2 0;
#X obj 84 40 inlet~;
#X obj 228 43 inlet~;
#X obj 91 215 outlet~;
#X obj 238 217 outlet~;
#X obj 125 124 *~;
#X obj 229 124 *~;
#X obj 150 88 sig~;
#X obj 316 84 sig~;
#X obj 148 15 r pd_channel_vol_2;
#X obj 311 16 r pd_channel_vol_3;
#X connect 0 0 4 0;
#X connect 1 0 5 0;
#X connect 4 0 2 0;
#X connect 5 0 3 0;
#X connect 6 0 4 1;
#X connect 7 0 5 1;
#X connect 8 0 6 0;
#X connect 9 0 7 0;
#X restore 90 81 pd MA_mixer_2;
#N canvas 171 686 450 300 MA_mixer_3 0;
#X obj 84 40 inlet~;
#X obj 228 43 inlet~;
#X obj 91 215 outlet~;
#X obj 238 217 outlet~;
#X obj 125 124 *~;
#X obj 229 124 *~;
#X obj 150 88 sig~;
#X obj 316 84 sig~;
#X obj 148 15 r pd_channel_vol_4;
#X obj 311 16 r pd_channel_vol_5;
#X connect 0 0 4 0;
#X connect 1 0 5 0;
#X connect 4 0 2 0;
#X connect 5 0 3 0;
#X connect 6 0 4 1;
#X connect 7 0 5 1;
#X connect 8 0 6 0;
#X connect 9 0 7 0;
#X restore 189 85 pd MA_mixer_3;
#N canvas 171 686 450 300 MA_mixer_4 0;
#X obj 84 40 inlet~;
#X obj 228 43 inlet~;
#X obj 91 215 outlet~;
#X obj 238 217 outlet~;
#X obj 125 124 *~;
#X obj 229 124 *~;
#X obj 150 88 sig~;
#X obj 316 84 sig~;
#X obj 148 15 r pd_channel_vol_6;
#X obj 311 16 r pd_channel_vol_7;
#X connect 0 0 4 0;
#X connect 1 0 5 0;
#X connect 4 0 2 0;
#X connect 5 0 3 0;
#X connect 6 0 4 1;
#X connect 7 0 5 1;
#X connect 8 0 6 0;
#X connect 9 0 7 0;
#X restore 283 81 pd MA_mixer_4;
#N canvas 171 686 450 300 MA_mixer_5 0;
#X obj 84 40 inlet~;
#X obj 228 43 inlet~;
#X obj 91 215 outlet~;
#X obj 238 217 outlet~;
#X obj 125 124 *~;
#X obj 229 124 *~;
#X obj 150 88 sig~;
#X obj 316 84 sig~;
#X obj 148 15 r pd_channel_vol_8;
#X obj 311 16 r pd_channel_vol_9;
#X connect 0 0 4 0;
#X connect 1 0 5 0;
#X connect 4 0 2 0;
#X connect 5 0 3 0;
#X connect 6 0 4 1;
#X connect 7 0 5 1;
#X connect 8 0 6 0;
#X connect 9 0 7 0;
#X restore 397 81 pd MA_mixer_5;
#N canvas 171 686 450 300 MA_mixer_6 0;
#X obj 84 40 inlet~;
#X obj 228 43 inlet~;
#X obj 91 215 outlet~;
#X obj 238 217 outlet~;
#X obj 125 124 *~;
#X obj 229 124 *~;
#X obj 150 88 sig~;
#X obj 316 84 sig~;
#X obj 148 15 r pd_channel_vol_10;
#X obj 311 16 r pd_channel_vol_11;
#X connect 0 0 4 0;
#X connect 1 0 5 0;
#X connect 4 0 2 0;
#X connect 5 0 3 0;
#X connect 6 0 4 1;
#X connect 7 0 5 1;
#X connect 8 0 6 0;
#X connect 9 0 7 0;
#X restore 490 78 pd MA_mixer_6;
#N canvas 181 491 450 300 MA_mixer_7 0;
#X obj 84 40 inlet~;
#X obj 228 43 inlet~;
#X obj 91 215 outlet~;
#X obj 238 217 outlet~;
#X obj 125 124 *~;
#X obj 229 124 *~;
#X obj 150 88 sig~;
#X obj 316 84 sig~;
#X obj 148 15 r pd_channel_vol_12;
#X obj 311 16 r pd_channel_vol_13;
#X connect 0 0 4 0;
#X connect 1 0 5 0;
#X connect 4 0 2 0;
#X connect 5 0 3 0;
#X connect 6 0 4 1;
#X connect 7 0 5 1;
#X connect 8 0 6 0;
#X connect 9 0 7 0;
#X restore 595 74 pd MA_mixer_7;
#X obj 587 20 inlet~;
#X obj 639 19 inlet~;
#X floatatom 469 198 5 0 0 0 - - -;
#X obj 1261 33 inlet~;
#X obj 1313 32 inlet~;
#X obj 703 20 inlet~;
#X obj 755 19 inlet~;
#X obj 805 22 inlet~;
#X obj 857 21 inlet~;
#X obj 922 25 inlet~;
#X obj 974 24 inlet~;
#X obj 1028 23 inlet~;
#X obj 1080 22 inlet~;
#X obj 1146 27 inlet~;
#X obj 1198 26 inlet~;
#N canvas 12 634 450 300 MA_mixer_8 0;
#X obj 84 40 inlet~;
#X obj 228 43 inlet~;
#X obj 91 215 outlet~;
#X obj 238 217 outlet~;
#X obj 125 124 *~;
#X obj 229 124 *~;
#X obj 150 88 sig~;
#X obj 316 84 sig~;
#X obj 148 15 r pd_channel_vol_14;
#X obj 311 16 r pd_channel_vol_15;
#X floatatom 394 93 5 0 0 0 - - -;
#X connect 0 0 4 0;
#X connect 1 0 5 0;
#X connect 4 0 2 0;
#X connect 5 0 3 0;
#X connect 6 0 4 1;
#X connect 7 0 5 1;
#X connect 8 0 6 0;
#X connect 9 0 7 0;
#X connect 9 0 10 0;
#X restore 709 73 pd MA_mixer_8;
#N canvas 8 583 450 300 MA_mixer_9 0;
#X obj 84 40 inlet~;
#X obj 228 43 inlet~;
#X obj 91 215 outlet~;
#X obj 238 217 outlet~;
#X obj 125 124 *~;
#X obj 229 124 *~;
#X obj 150 88 sig~;
#X obj 316 84 sig~;
#X obj 148 14 r pd_channel_vol_16;
#X obj 311 15 r pd_channel_vol_17;
#X connect 0 0 4 0;
#X connect 1 0 5 0;
#X connect 4 0 2 0;
#X connect 5 0 3 0;
#X connect 6 0 4 1;
#X connect 7 0 5 1;
#X connect 8 0 6 0;
#X connect 9 0 7 0;
#X restore 815 76 pd MA_mixer_9;
#N canvas 722 453 450 300 MA_mixer_10 0;
#X obj 84 40 inlet~;
#X obj 228 43 inlet~;
#X obj 91 215 outlet~;
#X obj 238 217 outlet~;
#X obj 125 124 *~;
#X obj 229 124 *~;
#X obj 150 88 sig~;
#X obj 316 84 sig~;
#X obj 148 15 r pd_channel_vol_18;
#X obj 311 16 r pd_channel_vol_19;
#X connect 0 0 4 0;
#X connect 1 0 5 0;
#X connect 4 0 2 0;
#X connect 5 0 3 0;
#X connect 6 0 4 1;
#X connect 7 0 5 1;
#X connect 8 0 6 0;
#X connect 9 0 7 0;
#X restore 930 79 pd MA_mixer_10;
#N canvas 181 491 450 300 MA_mixer_11 0;
#X obj 84 40 inlet~;
#X obj 228 43 inlet~;
#X obj 91 215 outlet~;
#X obj 238 217 outlet~;
#X obj 125 124 *~;
#X obj 229 124 *~;
#X obj 150 88 sig~;
#X obj 316 84 sig~;
#X obj 151 17 r pd_channel_vol_20;
#X obj 311 16 r pd_channel_vol_21;
#X connect 0 0 4 0;
#X connect 1 0 5 0;
#X connect 4 0 2 0;
#X connect 5 0 3 0;
#X connect 6 0 4 1;
#X connect 7 0 5 1;
#X connect 8 0 6 0;
#X connect 9 0 7 0;
#X restore 1036 77 pd MA_mixer_11;
#N canvas 181 491 450 300 MA_mixer_12 0;
#X obj 84 40 inlet~;
#X obj 228 43 inlet~;
#X obj 91 215 outlet~;
#X obj 238 217 outlet~;
#X obj 125 124 *~;
#X obj 229 124 *~;
#X obj 150 88 sig~;
#X obj 316 84 sig~;
#X obj 148 15 r pd_channel_vol_22;
#X obj 312 16 r pd_channel_vol_23;
#X connect 0 0 4 0;
#X connect 1 0 5 0;
#X connect 4 0 2 0;
#X connect 5 0 3 0;
#X connect 6 0 4 1;
#X connect 7 0 5 1;
#X connect 8 0 6 0;
#X connect 9 0 7 0;
#X restore 1149 79 pd MA_mixer_12;
#N canvas 181 491 450 300 MA_mixer_13 0;
#X obj 84 40 inlet~;
#X obj 228 43 inlet~;
#X obj 91 215 outlet~;
#X obj 238 217 outlet~;
#X obj 125 124 *~;
#X obj 229 124 *~;
#X obj 150 88 sig~;
#X obj 316 84 sig~;
#X obj 148 15 r pd_channel_vol_24;
#X obj 311 16 r pd_channel_vol_25;
#X connect 0 0 4 0;
#X connect 1 0 5 0;
#X connect 4 0 2 0;
#X connect 5 0 3 0;
#X connect 6 0 4 1;
#X connect 7 0 5 1;
#X connect 8 0 6 0;
#X connect 9 0 7 0;
#X restore 1269 87 pd MA_mixer_13;
#X obj 1488 34 inlet~;
#X obj 1540 33 inlet~;
#N canvas 181 491 450 300 MA_mixer_14 0;
#X obj 84 40 inlet~;
#X obj 228 43 inlet~;
#X obj 91 215 outlet~;
#X obj 238 217 outlet~;
#X obj 125 124 *~;
#X obj 229 124 *~;
#X obj 150 88 sig~;
#X obj 316 84 sig~;
#X obj 148 15 r pd_channel_vol_26;
#X obj 311 16 r pd_channel_vol_27;
#X connect 0 0 4 0;
#X connect 1 0 5 0;
#X connect 4 0 2 0;
#X connect 5 0 3 0;
#X connect 6 0 4 1;
#X connect 7 0 5 1;
#X connect 8 0 6 0;
#X connect 9 0 7 0;
#X restore 1383 91 pd MA_mixer_14;
#X obj 1588 124 inlet~;
#X obj 1640 123 inlet~;
#N canvas 181 491 450 300 MA_mixer_15 0;
#X obj 84 40 inlet~;
#X obj 228 43 inlet~;
#X obj 91 215 outlet~;
#X obj 238 217 outlet~;
#X obj 125 124 *~;
#X obj 229 124 *~;
#X obj 150 88 sig~;
#X obj 316 84 sig~;
#X obj 148 15 r pd_channel_vol_28;
#X obj 312 14 r pd_channel_vol_29;
#X connect 0 0 4 0;
#X connect 1 0 5 0;
#X connect 4 0 2 0;
#X connect 5 0 3 0;
#X connect 6 0 4 1;
#X connect 7 0 5 1;
#X connect 8 0 6 0;
#X connect 9 0 7 0;
#X restore 1588 80 pd MA_mixer_15;
#X connect 0 0 7 0;
#X connect 0 0 9 0;
#X connect 0 1 7 1;
#X connect 0 1 9 0;
#X connect 2 0 3 0;
#X connect 2 0 31 0;
#X connect 3 0 4 0;
#X connect 4 0 5 0;
#X connect 4 1 6 0;
#X connect 5 0 1 0;
#X connect 6 0 1 0;
#X connect 8 0 5 0;
#X connect 10 0 22 0;
#X connect 11 0 22 1;
#X connect 12 0 23 0;
#X connect 13 0 23 1;
#X connect 14 0 24 0;
#X connect 15 0 24 1;
#X connect 16 0 25 0;
#X connect 17 0 25 1;
#X connect 18 0 26 0;
#X connect 19 0 26 1;
#X connect 20 0 27 0;
#X connect 21 0 27 1;
#X connect 22 0 0 0;
#X connect 22 1 0 1;
#X connect 23 0 0 0;
#X connect 23 1 0 1;
#X connect 24 0 0 0;
#X connect 24 1 0 1;
#X connect 25 0 0 0;
#X connect 25 1 0 1;
#X connect 26 0 0 0;
#X connect 26 1 0 1;
#X connect 27 0 0 0;
#X connect 27 1 0 1;
#X connect 28 0 0 0;
#X connect 28 1 0 1;
#X connect 29 0 28 0;
#X connect 30 0 28 1;
#X connect 32 0 49 0;
#X connect 33 0 49 1;
#X connect 34 0 44 0;
#X connect 35 0 44 1;
#X connect 36 0 45 0;
#X connect 37 0 45 1;
#X connect 38 0 46 0;
#X connect 39 0 46 1;
#X connect 40 0 47 0;
#X connect 41 0 47 1;
#X connect 42 0 48 0;
#X connect 43 0 48 1;
#X connect 44 0 0 0;
#X connect 44 1 0 1;
#X connect 45 0 0 0;
#X connect 45 1 0 1;
#X connect 46 0 0 0;
#X connect 46 1 0 1;
#X connect 47 0 0 0;
#X connect 47 1 0 1;
#X connect 48 0 0 0;
#X connect 48 1 0 1;
#X connect 49 0 0 0;
#X connect 49 1 0 1;
#X connect 50 0 52 0;
#X connect 51 0 52 1;
#X connect 52 0 0 0;
#X connect 52 1 0 1;
#X connect 53 0 55 0;
#X connect 54 0 55 1;
#X connect 55 0 0 0;
#X connect 55 1 0 1;
#X restore 783 562 pd network DAC for network unity connection this
is still not long enough aahhh;
#X obj 1034 43 catch~ U8L;
#X obj 1898 124 catch~ U14L;
#X obj 1934 147 catch~ U14R;
#X obj 1950 188 catch~ U15L;
#X obj 1986 211 catch~ U15R;
#X obj 45 436 osc~ 300;
#X obj 73 484 *~ 0.2;
#N canvas 306 577 450 300 WAV 0;
#X obj 169 111 bng 15 250 50 0 empty empty empty 17 7 0 10 -262144
-1 -1;
#N canvas 972 522 450 300 loadFile 0;
#X obj 73 10 loadbang;
#X obj 83 207 outlet;
#X obj 19 8 inlet;
#X obj 151 94 table jungleL;
#X obj 161 120 table jungleR;
#X msg 57 53 read -resize sfx_amb_jungle_00.wav jungleL jungleR;
#X obj 61 102 soundfiler;
#X connect 0 0 5 0;
#X connect 5 0 6 0;
#X restore 77 126 pd loadFile;
#X obj 79 102 bng 15 250 50 0 empty empty empty 17 7 0 10 -262144 -1
-1;
#X msg 200 107 stop;
#X obj 146 57 loadbang;
#X obj 48 171 tabplay~ jungleL;
#X obj 157 173 tabplay~ jungleR;
#X obj 79 241 outlet~;
#X obj 148 232 outlet~;
#X obj 96 211 *~ 0.3;
#X obj 160 204 *~ 0.3;
#X connect 0 0 5 0;
#X connect 0 0 6 0;
#X connect 2 0 1 0;
#X connect 4 0 0 0;
#X connect 5 0 9 0;
#X connect 5 1 0 0;
#X connect 6 0 10 0;
#X connect 9 0 7 0;
#X connect 10 0 8 0;
#X restore 182 387 pd WAV;
#N canvas 1134 145 450 300 OGG 0;
#X obj -125 187 oggread~;
#X obj -133 270 outlet~;
#X obj -46 270 outlet~;
#X obj -164 113 inlet;
#X obj -195 10 loadbang;
#X obj -16 181 bng 15 250 50 0 empty empty empty 17 7 0 10 -262144
-1 -1;
#X msg 37 183 start;
#X obj 40 95 r cityNeutralMusicOff;
#X msg 20 128 stop;
#X msg -99 114 resume;
#X floatatom -53 218 5 0 0 0 - - -;
#X msg -237 30 open /Volumes/3rd_PROJECTS/2015/das_tal/trinsic_git/client/Assets/StreamingAssets/Patches/Pip/mx_city_neutral.ogg
;
#X obj -105 84 r cityNeutralMusicOn;
#X obj -77 148 bng 15 250 50 0 empty empty empty 17 7 0 10 -262144
-1 -1;
#X obj 69 151 bng 15 250 50 0 empty empty empty 17 7 0 10 -262144 -1
-1;
#X obj -195 78 loadbang;
#X obj -171 100 delay 1000;
#X connect 0 0 1 0;
#X connect 0 1 2 0;
#X connect 0 2 10 0;
#X connect 0 3 5 0;
#X connect 3 0 0 0;
#X connect 4 0 11 0;
#X connect 5 0 6 0;
#X connect 6 0 0 0;
#X connect 7 0 8 0;
#X connect 8 0 0 0;
#X connect 8 0 14 0;
#X connect 9 0 0 0;
#X connect 9 0 13 0;
#X connect 11 0 0 0;
#X connect 12 0 9 0;
#X connect 15 0 16 0;
#X connect 16 0 9 0;
#X restore 271 384 pd OGG;
#X connect 0 0 14 0;
#X connect 0 0 26 0;
#X connect 1 0 14 1;
#X connect 1 0 26 1;
#X connect 2 0 14 2;
#X connect 2 0 26 2;
#X connect 3 0 14 4;
#X connect 3 0 26 4;
#X connect 4 0 14 5;
#X connect 4 0 26 5;
#X connect 5 0 14 3;
#X connect 5 0 26 3;
#X connect 6 0 14 6;
#X connect 6 0 26 6;
#X connect 7 0 14 7;
#X connect 7 0 26 7;
#X connect 8 0 14 8;
#X connect 8 0 26 8;
#X connect 9 0 14 9;
#X connect 9 0 26 9;
#X connect 10 0 14 10;
#X connect 10 0 26 10;
#X connect 11 0 14 11;
#X connect 11 0 26 11;
#X connect 12 0 14 13;
#X connect 12 0 26 12;
#X connect 13 0 14 15;
#X connect 13 0 26 13;
#X connect 15 0 14 17;
#X connect 15 0 26 15;
#X connect 16 0 14 18;
#X connect 16 0 26 16;
#X connect 17 0 14 19;
#X connect 17 0 26 17;
#X connect 18 0 14 20;
#X connect 18 0 26 18;
#X connect 19 0 14 21;
#X connect 19 0 26 19;
#X connect 20 0 14 22;
#X connect 20 0 26 20;
#X connect 21 0 14 23;
#X connect 21 0 26 21;
#X connect 22 0 14 24;
#X connect 22 0 26 22;
#X connect 23 0 14 25;
#X connect 23 0 26 23;
#X connect 24 0 14 26;
#X connect 24 0 26 24;
#X connect 25 0 14 27;
#X connect 25 0 26 25;
#X connect 27 0 14 16;
#X connect 27 0 26 14;
#X connect 28 0 26 26;
#X connect 28 0 14 28;
#X connect 29 0 26 27;
#X connect 29 0 14 29;
#X connect 30 0 14 30;
#X connect 30 0 26 28;
#X connect 31 0 14 31;
#X connect 31 0 26 29;
#X connect 32 0 33 0;
#X connect 33 0 14 0;
#X connect 34 0 14 1;
#X connect 34 1 14 2;
#X connect 35 0 14 3;
#X connect 35 1 14 4;
#X restore 223 50 pd DAC to Unity Channels (Magicolo);
#X obj 126 121 catch~ vu;
#N canvas 0 465 450 300 vu 0;
#X obj 71 71 env~;
#X obj 71 98 - 100;
#X obj 71 44 inlet~;
#X obj 71 131 outlet;
#X connect 0 0 1 0;
#X connect 1 0 3 0;
#X connect 2 0 0 0;
#X restore 126 141 pd vu;
#X obj -124 314 declare -path ../Data -path ../Effects -path ../Misc
-path ../Signal -path ../Sources -path ../Unity -path mx -path sfx
-path pip_drummachine -path pip_melodicsfx -path rj;
#X obj 214 228 r hide_time;
#X floatatom 214 267 5 0 0 0 - - -;
#X text 293 228 Time hidden in grass;
#X text 232 31 test stuff in here!;
#X connect 0 0 1 0;
#X connect 0 0 5 0;
#X connect 4 0 3 0;
#X connect 10 0 11 0;
#X connect 11 0 2 0;
#X connect 13 0 14 0;
