#N canvas 229 268 916 282 10;
#X declare -path ../Data -path ../Effects -path ../Misc -path ../Signal
-path ../Sources -path ../Unity -path mx -path sfx -path pip_drummachine
-path pip_melodicsfx;
#X obj 231 232 dac~;
#X obj 13 127 netreceive 32000;
#X msg 13 179 \; bubbles_pan 0 \;;
#X text 151 10 Das Tal Art Prototype PD Patcher;
#X obj 213 188 pip_limiter;
#X obj 309 206 pip_vu;
#X obj 309 234 s vu_main;
#X obj 400 125 vu 15 120 vu_main Master_Out -1 -8 0 8 -66577 -1 1 0
;
#N canvas 480 462 1014 319 music 0;
#X obj 41 202 outlet~ L;
#X obj 171 202 outlet~ R;
#N canvas 464 370 835 473 layers 0;
#X text 76 41 4 Additive Layer Interactive Music Machine;
#N canvas 300 173 942 535 logic 0;
#X obj 32 219 vline~;
#X obj 179 309 *~;
#X obj 172 218 vline~;
#X obj 319 309 *~;
#X obj 330 218 vline~;
#X msg 401 166 0 1000;
#X obj 486 217 vline~;
#X obj 633 308 *~;
#X msg 557 165 0 1000;
#X msg 487 166 0.3 1000;
#X obj 29 30 r layer1;
#X obj 189 30 r layer2;
#X obj 330 29 r layer3;
#X obj 489 30 r layer4;
#X obj 29 55 sel 1 0;
#X obj 189 53 sel 1 0;
#X obj 331 54 sel 1 0;
#X obj 489 55 sel 1 0;
#X obj 656 217 vline~;
#X msg 727 165 0 1000;
#X msg 657 166 0.3 1000;
#X obj 659 55 sel 1 0;
#X obj 788 301 *~;
#X obj 222 417 outlet~;
#X obj 659 30 r layer5;
#N canvas 527 397 760 316 musictrack1 0;
#X obj 109 65 oggread~;
#X obj 94 141 outlet~ L;
#X obj 182 147 outlet~ R;
#X obj 23 6 loadbang;
#X obj 28 31 t b b;
#X msg 23 67 1;
#X floatatom 212 91 5 0 0 0 - - -;
#X msg 280 6 open /Volumes/3rd_PROJECTS/2014/das_tal/unity/art_proto/Assets/StreamingAssets/mx_base.ogg
;
#X msg 294 84 open /Users/Pippo/Desktop/Unity/das_tal/Assets/StreamingAssets/mx_base.ogg
;
#X connect 0 0 1 0;
#X connect 0 1 2 0;
#X connect 0 2 6 0;
#X connect 0 3 5 0;
#X connect 3 0 4 0;
#X connect 4 0 5 0;
#X connect 4 1 8 0;
#X connect 4 1 7 0;
#X connect 5 0 0 0;
#X connect 7 0 0 0;
#X connect 8 0 0 0;
#X restore 22 276 pd musictrack1;
#X obj 379 425 outlet~;
#X obj 117 315 *~;
#X obj 262 307 *~;
#N canvas 506 380 804 303 musictrack2 0;
#X obj 109 65 oggread~;
#X obj 94 141 outlet~ L;
#X obj 182 147 outlet~ R;
#X obj 28 -19 loadbang;
#X obj 28 31 t b b;
#X msg 28 80 1;
#X floatatom 212 91 5 0 0 0 - - -;
#X msg 263 -7 open /Volumes/3rd_PROJECTS/2014/das_tal/unity/art_proto/Assets/StreamingAssets/mx_perc.ogg
;
#X msg 336 57 open /Users/Pippo/Desktop/Unity/das_tal/Assets/StreamingAssets/mx_perc.ogg
;
#X obj 127 -22 bng 15 250 50 0 empty empty empty 17 7 0 10 -262144
-1 -1;
#X connect 0 0 1 0;
#X connect 0 1 2 0;
#X connect 0 2 6 0;
#X connect 0 3 5 0;
#X connect 3 0 4 0;
#X connect 3 0 7 0;
#X connect 4 0 5 0;
#X connect 4 1 8 0;
#X connect 5 0 0 0;
#X connect 8 0 0 0;
#X connect 9 0 4 0;
#X restore 199 278 pd musictrack2;
#X msg 103 166 0 4000;
#X msg 243 166 0 4000;
#N canvas 564 506 804 303 musictrack3 0;
#X obj 109 135 oggread~;
#X obj 94 211 outlet~ L;
#X obj 182 217 outlet~ R;
#X obj 23 6 loadbang;
#X obj 28 31 t b b;
#X msg 26 136 1;
#X floatatom 243 167 5 0 0 0 - - -;
#X msg 308 74 open /Users/Pippo/Desktop/Unity/das_tal/Assets/StreamingAssets/mx_trailer.ogg
;
#X msg 244 10 open /Volumes/3rd_PROJECTS/2014/das_tal/unity/art_proto/Assets/StreamingAssets/mx_trailer.ogg
;
#X obj 24 95 metro 240000;
#X obj -21 63 r toMusicTimer;
#X connect 0 0 1 0;
#X connect 0 1 2 0;
#X connect 0 2 6 0;
#X connect 3 0 4 0;
#X connect 4 1 7 0;
#X connect 4 1 8 0;
#X connect 5 0 0 0;
#X connect 7 0 0 0;
#X connect 8 0 0 0;
#X connect 9 0 5 0;
#X connect 10 0 9 0;
#X restore 348 277 pd musictrack3;
#X msg 331 167 0.3 1000;
#X msg 173 167 0.6 2500;
#X msg 33 167 0.6 2500;
#X obj 477 309 *~;
#X obj 539 308 *~;
#X connect 0 0 1 1;
#X connect 0 0 27 1;
#X connect 1 0 26 0;
#X connect 2 0 3 1;
#X connect 2 0 28 1;
#X connect 3 0 23 0;
#X connect 4 0 37 1;
#X connect 4 0 36 1;
#X connect 5 0 4 0;
#X connect 6 0 7 1;
#X connect 7 0 23 0;
#X connect 8 0 6 0;
#X connect 9 0 6 0;
#X connect 10 0 14 0;
#X connect 11 0 15 0;
#X connect 12 0 16 0;
#X connect 13 0 17 0;
#X connect 14 0 35 0;
#X connect 14 0 5 0;
#X connect 14 1 30 0;
#X connect 14 1 33 0;
#X connect 15 0 34 0;
#X connect 15 0 5 0;
#X connect 15 1 31 0;
#X connect 15 1 33 0;
#X connect 16 0 33 0;
#X connect 16 1 5 0;
#X connect 17 0 9 0;
#X connect 17 1 8 0;
#X connect 18 0 22 1;
#X connect 19 0 18 0;
#X connect 20 0 18 0;
#X connect 21 0 20 0;
#X connect 21 1 19 0;
#X connect 22 0 23 0;
#X connect 24 0 21 0;
#X connect 25 0 27 0;
#X connect 25 1 1 0;
#X connect 27 0 23 0;
#X connect 28 0 23 0;
#X connect 28 0 26 0;
#X connect 29 0 28 0;
#X connect 29 1 3 0;
#X connect 30 0 0 0;
#X connect 31 0 2 0;
#X connect 32 0 36 0;
#X connect 32 1 37 0;
#X connect 33 0 4 0;
#X connect 34 0 2 0;
#X connect 35 0 0 0;
#X connect 36 0 23 0;
#X connect 37 0 26 0;
#X restore 278 180 pd logic;
#X obj 100 95 tgl 40 0 layer1 l1 Layer_1 -19 -20 0 20 -262144 -1 -1
0 1;
#X obj 212 95 tgl 40 0 layer2 l2 Layer_2 -19 -20 0 20 -262144 -1 -1
0 1;
#X obj 317 95 tgl 40 0 layer3 l3 Layer_3 -19 -20 0 20 -262144 -1 -1
0 1;
#X obj 425 95 tgl 40 0 layer4 l4 Layer_4 -19 -20 0 20 -262144 -1 -1
0 1;
#X obj 273 229 pip_limiter;
#X text 51 332 You can easily swap the oscillators with loops (see
pip_simplesampler) and create state based additive layers for interactive
music. Each layer can play at any time.;
#X obj 534 94 tgl 40 0 layer5 l5 Layer_5 -19 -20 0 20 -262144 -1 -1
0 1;
#X obj 243 281 outlet~ L;
#X obj 342 280 outlet~ R;
#X obj 82 174 inlet layer;
#N canvas 502 460 302 214 chooser 0;
#X obj 37 19 inlet;
#X obj 20 156 s l1;
#X floatatom 29 70 5 0 0 0 - - -;
#X obj 64 156 s l2;
#X obj 105 155 s l3;
#X obj 146 158 s l4;
#X obj 185 158 s l5;
#X obj 27 113 select 1 2 3 4 5;
#X connect 0 0 2 0;
#X connect 2 0 7 0;
#X connect 7 0 1 0;
#X connect 7 1 3 0;
#X connect 7 2 4 0;
#X connect 7 3 5 0;
#X connect 7 4 6 0;
#X restore 82 200 pd chooser;
#X connect 1 0 6 0;
#X connect 1 1 6 1;
#X connect 6 0 9 0;
#X connect 6 1 10 0;
#X connect 11 0 12 0;
#X restore 68 162 pd layers;
#X msg 61 122 1;
#X msg 101 123 2;
#X text 156 12 Interactive Music;
#X obj 25 71 r musicL1on;
#X obj 30 101 bng 15 250 50 0 empty empty empty 17 7 0 10 -262144 -1
-1;
#X obj 105 69 r musicL1off;
#X obj 282 69 r musicL2off;
#X obj 196 101 bng 15 250 50 0 empty empty empty 17 7 0 10 -262144
-1 -1;
#X obj 377 102 bng 15 250 50 0 empty empty empty 17 7 0 10 -262144
-1 -1;
#X obj 463 70 r musicL3off;
#X msg 171 130 3;
#X obj 201 68 r musicL2on;
#X obj 382 69 r musicL3on;
#X obj 555 99 loadbang;
#X floatatom 447 242 5 0 0 0 - - -;
#X obj 498 124 t b b;
#X obj 287 272 s toMusicTimer;
#X obj 346 241 delay \$1;
#X obj 378 156 random 60000;
#X obj 382 190 max 30000;
#X obj 462 215 min 60000;
#X connect 2 0 0 0;
#X connect 2 1 1 0;
#X connect 3 0 2 0;
#X connect 4 0 2 0;
#X connect 6 0 7 0;
#X connect 7 0 3 0;
#X connect 8 0 7 0;
#X connect 9 0 10 0;
#X connect 10 0 4 0;
#X connect 11 0 13 0;
#X connect 12 0 11 0;
#X connect 13 0 2 0;
#X connect 14 0 10 0;
#X connect 15 0 11 0;
#X connect 16 0 18 0;
#X connect 17 0 20 1;
#X connect 18 0 20 0;
#X connect 18 1 21 0;
#X connect 20 0 19 0;
#X connect 21 0 22 0;
#X connect 22 0 23 0;
#X connect 23 0 17 0;
#X restore 102 57 pd music;
#N canvas 466 50 450 300 footsteps 0;
#X obj 136 248 outlet~ L;
#X obj 262 249 outlet~ R;
#N canvas 482 50 546 323 player 0;
#N canvas 552 190 964 495 grass 0;
#X obj 240 347 tabplay~;
#X obj 36 230 t b b;
#X obj 35 179 bng 15 250 50 0 empty empty empty 17 7 0 10 -262144 -1
-1;
#N canvas 707 432 672 195 samples 0;
#X obj 11 58 table grass2;
#X obj 10 25 table grass1;
#X obj 109 42 table grass3;
#X obj 202 25 table grass4;
#X obj 203 53 table grass5;
#X obj 296 168 soundfiler;
#X obj 293 -1 loadbang;
#X msg 355 25 read -resize sfx_fs_grass_00.wav grass1;
#X msg 354 50 read -resize sfx_fs_grass_01.wav grass2;
#X msg 356 76 read -resize sfx_fs_grass_02.wav grass3;
#X msg 359 99 read -resize sfx_fs_grass_03.wav grass4;
#X msg 360 122 read -resize sfx_fs_grass_04.wav grass5;
#X connect 6 0 7 0;
#X connect 6 0 8 0;
#X connect 6 0 9 0;
#X connect 6 0 10 0;
#X connect 6 0 11 0;
#X connect 7 0 5 0;
#X connect 8 0 5 0;
#X connect 9 0 5 0;
#X connect 10 0 5 0;
#X connect 11 0 5 0;
#X restore 23 418 pd samples;
#X obj 208 233 t b b;
#X obj 207 182 bng 15 250 50 0 empty empty empty 17 7 0 10 -262144
-1 -1;
#X msg 109 247 set grass1;
#X msg 280 250 set grass2;
#X obj 376 231 t b b;
#X obj 375 180 bng 15 250 50 0 empty empty empty 17 7 0 10 -262144
-1 -1;
#X obj 538 230 t b b;
#X obj 537 179 bng 15 250 50 0 empty empty empty 17 7 0 10 -262144
-1 -1;
#X obj 698 226 t b b;
#X obj 697 175 bng 15 250 50 0 empty empty empty 17 7 0 10 -262144
-1 -1;
#X obj 237 322 r grasstabplay;
#X obj 441 298 s grasstabplay;
#X msg 448 248 set grass3;
#X msg 610 247 set grass4;
#X msg 770 243 set grass5;
#X obj 357 39 inlet;
#X obj 356 122 sel 0 1 2 3 4;
#X floatatom 359 97 5 0 0 0 - - -;
#X obj 309 45 bng 15 250 50 0 empty empty empty 17 7 0 10 -262144 -1
-1;
#X obj 168 422 outlet~;
#X obj 355 70 pip_counter_mod 5;
#X obj 157 64 tgl 15 0 empty player_move_grass empty 17 7 0 10 -262144
-1 -1 0 1;
#X obj 161 98 metro 600;
#X connect 0 0 23 0;
#X connect 1 0 15 0;
#X connect 1 1 6 0;
#X connect 2 0 1 0;
#X connect 4 0 15 0;
#X connect 4 1 7 0;
#X connect 5 0 4 0;
#X connect 6 0 15 0;
#X connect 7 0 15 0;
#X connect 8 0 15 0;
#X connect 8 1 16 0;
#X connect 9 0 8 0;
#X connect 10 0 15 0;
#X connect 10 1 17 0;
#X connect 11 0 10 0;
#X connect 12 0 15 0;
#X connect 12 1 18 0;
#X connect 13 0 12 0;
#X connect 14 0 0 0;
#X connect 16 0 15 0;
#X connect 17 0 15 0;
#X connect 18 0 15 0;
#X connect 20 0 2 0;
#X connect 20 1 5 0;
#X connect 20 2 9 0;
#X connect 20 3 11 0;
#X connect 20 4 13 0;
#X connect 21 0 20 0;
#X connect 22 0 24 0;
#X connect 24 0 21 0;
#X connect 25 0 26 0;
#X connect 26 0 24 0;
#X restore 74 124 pd grass;
#X obj 171 223 outlet~ L;
#X obj 269 226 outlet~ R;
#N canvas 179 250 788 386 sfx 0;
#X obj 229 69 tgl 35 0 sfx_submixer_mute_1 empty empty 17 7 0 10 -262144
-1 -1 0 1;
#X text 278 81 MUTE;
#X obj 186 115 inlet~ sfx1;
#X text 353 7 SFX SUBMIXER;
#X obj 437 67 tgl 35 0 sfx_submixer_mute_3 empty empty 17 7 0 10 -262144
-1 -1 0 1;
#X text 486 79 MUTE;
#N canvas 109 170 745 465 channel_3 0;
#X obj 120 178 inlet~;
#X obj 120 253 *~;
#X obj 120 296 outlet~;
#X obj 64 120 vsl 15 128 0 0.7 0 0 empty empty empty 0 -9 0 10 -262144
-1 -1 9071 1;
#X text 51 261 Volume;
#N canvas 0 50 450 300 mute 0;
#X obj 136 88 sel 0 1;
#X msg 160 147 0;
#X msg 91 149 0.7;
#X obj 139 206 outlet;
#X obj 132 40 r sfx_submixer_mute_3;
#X connect 0 0 2 0;
#X connect 0 1 1 0;
#X connect 1 0 3 0;
#X connect 2 0 3 0;
#X connect 4 0 0 0;
#X restore 5 69 pd mute;
#X obj 59 59 loadbang;
#X text 308 9 Submixer Channel 3 - Combat Start Sound;
#X msg 73 82 0.5;
#X connect 0 0 1 0;
#X connect 1 0 2 0;
#X connect 3 0 1 1;
#X connect 5 0 3 0;
#X connect 6 0 8 0;
#X connect 8 0 3 0;
#X restore 391 137 pd channel_3 submix;
#X obj 391 109 inlet~ sfx3;
#X obj 598 67 tgl 35 0 sfx_submixer_mute_4 empty empty 17 7 0 10 -262144
-1 -1 0 1;
#X text 647 79 MUTE;
#X obj 552 109 inlet~ sfx4;
#N canvas 331 144 745 465 channel_4 0;
#X obj 120 178 inlet~;
#X obj 120 253 *~;
#X obj 120 296 outlet~;
#X obj 64 120 vsl 15 128 0 0.7 0 0 empty empty empty 0 -9 0 10 -262144
-1 -1 3629 1;
#X text 51 261 Volume;
#N canvas 0 50 450 300 mute 0;
#X obj 136 88 sel 0 1;
#X msg 160 147 0;
#X msg 91 149 0.7;
#X obj 139 206 outlet;
#X obj 132 40 r sfx_submixer_mute_4;
#X connect 0 0 2 0;
#X connect 0 1 1 0;
#X connect 1 0 3 0;
#X connect 2 0 3 0;
#X connect 4 0 0 0;
#X restore 5 69 pd mute;
#X obj 59 59 loadbang;
#X text 308 9 Submixer Channel 4 - Creature Hit;
#X msg 73 82 0.2;
#X connect 0 0 1 0;
#X connect 1 0 2 0;
#X connect 3 0 1 1;
#X connect 5 0 3 0;
#X connect 6 0 8 0;
#X connect 8 0 3 0;
#X restore 552 137 pd channel_4 submix;
#N canvas 109 170 745 465 channel_1 0;
#X obj 120 178 inlet~;
#X obj 120 253 *~;
#X obj 120 296 outlet~;
#X obj 64 120 vsl 15 128 0 0.7 0 0 empty empty empty 0 -9 0 10 -262144
-1 -1 9071 1;
#X text 51 261 Volume;
#N canvas 0 50 450 300 mute 0;
#X obj 136 88 sel 0 1;
#X msg 160 147 0;
#X msg 91 149 0.7;
#X obj 139 206 outlet;
#X obj 132 40 r sfx_submixer_mute_3;
#X connect 0 0 2 0;
#X connect 0 1 1 0;
#X connect 1 0 3 0;
#X connect 2 0 3 0;
#X connect 4 0 0 0;
#X restore 5 69 pd mute;
#X obj 59 59 loadbang;
#X text 308 9 Submixer Channel 3 - Combat Start Sound;
#X msg 73 82 0.5;
#X connect 0 0 1 0;
#X connect 1 0 2 0;
#X connect 3 0 1 1;
#X connect 5 0 3 0;
#X connect 6 0 8 0;
#X connect 8 0 3 0;
#X restore 180 144 pd channel_1 submix;
#X obj 289 286 throw~ fs_submixL;
#X obj 428 285 throw~ fs_submixR;
#X text 433 43 Sand;
#X text 221 38 Grass;
#X text 586 44 Stone;
#X connect 2 0 12 0;
#X connect 6 0 13 0;
#X connect 6 0 14 0;
#X connect 7 0 6 0;
#X connect 10 0 11 0;
#X connect 11 0 13 0;
#X connect 11 0 14 0;
#X connect 12 0 13 0;
#X connect 12 0 14 0;
#X restore 101 160 pd sfx submixer for all your sfx mixing needs;
#X obj 131 194 catch~ fs_submixL;
#X obj 249 196 catch~ fs_submixR;
#X obj 77 79 bng 15 250 50 0 empty empty empty 17 7 0 10 -262144 -1
-1;
#N canvas 26 124 964 495 stone 0;
#X obj 240 347 tabplay~;
#X obj 36 230 t b b;
#X obj 35 179 bng 15 250 50 0 empty empty empty 17 7 0 10 -262144 -1
-1;
#N canvas 707 432 672 195 samples 0;
#X obj 296 168 soundfiler;
#X obj 293 -1 loadbang;
#X obj 10 25 table stone1;
#X obj 11 58 table stone2;
#X obj 109 42 table stone3;
#X obj 203 25 table stone4;
#X obj 203 53 table stone5;
#X msg 355 25 read -resize sfx_fs_stone_00.wav stone1;
#X msg 355 51 read -resize sfx_fs_stone_01.wav stone2;
#X msg 360 100 read -resize sfx_fs_stone_03.wav stone4;
#X msg 361 123 read -resize sfx_fs_stone_04.wav stone5;
#X msg 357 77 read -resize sfx_fs_stone_02.wav stone3;
#X obj 122 98 table stone6;
#X msg 366 146 read -resize sfx_fs_stone_05.wav stone6;
#X connect 1 0 7 0;
#X connect 1 0 8 0;
#X connect 1 0 11 0;
#X connect 1 0 9 0;
#X connect 1 0 10 0;
#X connect 1 0 13 0;
#X connect 7 0 0 0;
#X connect 8 0 0 0;
#X connect 9 0 0 0;
#X connect 10 0 0 0;
#X connect 11 0 0 0;
#X connect 13 0 0 0;
#X restore 23 418 pd samples;
#X obj 208 233 t b b;
#X obj 207 182 bng 15 250 50 0 empty empty empty 17 7 0 10 -262144
-1 -1;
#X obj 376 231 t b b;
#X obj 375 180 bng 15 250 50 0 empty empty empty 17 7 0 10 -262144
-1 -1;
#X obj 538 230 t b b;
#X obj 537 179 bng 15 250 50 0 empty empty empty 17 7 0 10 -262144
-1 -1;
#X obj 698 226 t b b;
#X obj 697 175 bng 15 250 50 0 empty empty empty 17 7 0 10 -262144
-1 -1;
#X obj 357 39 inlet;
#X floatatom 359 97 5 0 0 0 - - -;
#X obj 309 45 bng 15 250 50 0 empty empty empty 17 7 0 10 -262144 -1
-1;
#X obj 168 422 outlet~;
#X msg 109 247 set stone1;
#X msg 448 248 set stone3;
#X msg 770 243 set stone5;
#X obj 444 296 s stonetabplay;
#X obj 237 322 r stonetabplay;
#X obj 803 219 t b b;
#X obj 802 168 bng 15 250 50 0 empty empty empty 17 7 0 10 -262144
-1 -1;
#X obj 356 122 sel 0 1 2 3 4 5;
#X obj 137 44 tgl 15 0 empty player_move_stone empty 17 7 0 10 -262144
-1 -1 0 1;
#X obj 357 70 pip_counter_mod 6;
#X obj 141 78 metro 400;
#X msg 875 236 set stone6;
#X msg 611 247 set stone6;
#X msg 279 250 set stone2;
#X connect 0 0 15 0;
#X connect 1 0 19 0;
#X connect 1 1 16 0;
#X connect 2 0 1 0;
#X connect 4 0 19 0;
#X connect 4 1 29 0;
#X connect 5 0 4 0;
#X connect 6 0 19 0;
#X connect 6 1 17 0;
#X connect 7 0 6 0;
#X connect 8 0 19 0;
#X connect 8 1 28 0;
#X connect 9 0 8 0;
#X connect 10 0 19 0;
#X connect 10 1 18 0;
#X connect 11 0 10 0;
#X connect 13 0 23 0;
#X connect 14 0 25 0;
#X connect 16 0 19 0;
#X connect 17 0 19 0;
#X connect 18 0 19 0;
#X connect 20 0 0 0;
#X connect 21 0 19 0;
#X connect 21 1 27 0;
#X connect 22 0 21 0;
#X connect 23 0 2 0;
#X connect 23 1 5 0;
#X connect 23 2 7 0;
#X connect 23 3 9 0;
#X connect 23 4 11 0;
#X connect 23 5 22 0;
#X connect 24 0 26 0;
#X connect 25 0 13 0;
#X connect 26 0 25 0;
#X connect 27 0 19 0;
#X connect 28 0 19 0;
#X connect 29 0 19 0;
#X restore 353 120 pd stone;
#N canvas 297 229 964 495 sand 0;
#X obj 240 347 tabplay~;
#X obj 36 230 t b b;
#X obj 35 179 bng 15 250 50 0 empty empty empty 17 7 0 10 -262144 -1
-1;
#N canvas 707 432 672 195 samples 0;
#X obj 296 168 soundfiler;
#X obj 293 -1 loadbang;
#X obj 10 25 table sand1;
#X obj 11 58 table sand2;
#X obj 109 42 table sand3;
#X obj 203 25 table sand4;
#X obj 203 53 table sand5;
#X msg 355 25 read -resize sfx_fs_sand_00.wav sand1;
#X msg 355 51 read -resize sfx_fs_sand_01.wav sand2;
#X msg 357 77 read -resize sfx_fs_sand_02.wav sand3;
#X msg 360 100 read -resize sfx_fs_sand_03.wav sand4;
#X msg 361 123 read -resize sfx_fs_sand_04.wav sand5;
#X obj 204 74 table sand6;
#X msg 371 142 read -resize sfx_fs_sand_05.wav sand6;
#X connect 1 0 7 0;
#X connect 1 0 8 0;
#X connect 1 0 9 0;
#X connect 1 0 10 0;
#X connect 1 0 11 0;
#X connect 1 0 13 0;
#X connect 7 0 0 0;
#X connect 8 0 0 0;
#X connect 9 0 0 0;
#X connect 10 0 0 0;
#X connect 11 0 0 0;
#X connect 13 0 0 0;
#X restore 23 418 pd samples;
#X obj 208 233 t b b;
#X obj 207 182 bng 15 250 50 0 empty empty empty 17 7 0 10 -262144
-1 -1;
#X obj 376 231 t b b;
#X obj 375 180 bng 15 250 50 0 empty empty empty 17 7 0 10 -262144
-1 -1;
#X obj 538 230 t b b;
#X obj 537 179 bng 15 250 50 0 empty empty empty 17 7 0 10 -262144
-1 -1;
#X obj 698 226 t b b;
#X obj 697 175 bng 15 250 50 0 empty empty empty 17 7 0 10 -262144
-1 -1;
#X obj 357 39 inlet;
#X floatatom 359 97 5 0 0 0 - - -;
#X obj 309 45 bng 15 250 50 0 empty empty empty 17 7 0 10 -262144 -1
-1;
#X obj 168 422 outlet~;
#X msg 109 247 set sand1;
#X msg 280 250 set sand2;
#X msg 448 248 set sand3;
#X msg 611 247 set sand4;
#X msg 770 243 set sand5;
#X obj 444 296 s sandtabplay;
#X obj 238 323 r sandtabplay;
#X obj 355 70 pip_counter_mod 6;
#X obj 813 213 t b b;
#X obj 812 162 bng 15 250 50 0 empty empty empty 17 7 0 10 -262144
-1 -1;
#X obj 356 122 sel 0 1 2 3 4 5;
#X msg 885 230 set sand6;
#X obj 147 54 tgl 15 0 empty player_move_sand empty 17 7 0 10 -262144
-1 -1 0 1;
#X obj 151 88 metro 400;
#X connect 0 0 15 0;
#X connect 1 0 21 0;
#X connect 1 1 16 0;
#X connect 2 0 1 0;
#X connect 4 0 21 0;
#X connect 4 1 17 0;
#X connect 5 0 4 0;
#X connect 6 0 21 0;
#X connect 6 1 18 0;
#X connect 7 0 6 0;
#X connect 8 0 21 0;
#X connect 8 1 19 0;
#X connect 9 0 8 0;
#X connect 10 0 21 0;
#X connect 10 1 20 0;
#X connect 11 0 10 0;
#X connect 13 0 26 0;
#X connect 14 0 23 0;
#X connect 16 0 21 0;
#X connect 17 0 21 0;
#X connect 18 0 21 0;
#X connect 19 0 21 0;
#X connect 20 0 21 0;
#X connect 22 0 0 0;
#X connect 23 0 13 0;
#X connect 24 0 21 0;
#X connect 24 1 27 0;
#X connect 25 0 24 0;
#X connect 26 0 2 0;
#X connect 26 1 5 0;
#X connect 26 2 7 0;
#X connect 26 3 9 0;
#X connect 26 4 11 0;
#X connect 26 5 25 0;
#X connect 27 0 21 0;
#X connect 28 0 29 0;
#X connect 29 0 23 0;
#X restore 219 124 pd sand;
#X obj 208 74 bng 15 250 50 0 empty empty empty 17 7 0 10 -262144 -1
-1;
#X obj 360 76 bng 15 250 50 0 empty empty empty 17 7 0 10 -262144 -1
-1;
#X obj 51 19 r footstep_grass_player;
#X obj 202 20 r footstep_generic_player;
#X obj 358 24 r footstep_stone_player;
#X text 206 96 obsolete \, see inside patcher;
#X connect 0 0 3 0;
#X connect 4 0 1 0;
#X connect 5 0 2 0;
#X connect 7 0 3 2;
#X connect 8 0 3 1;
#X connect 11 0 6 0;
#X connect 12 0 9 0;
#X connect 13 0 10 0;
#X restore 109 128 pd player;
#N canvas 388 322 997 392 npcs 0;
#X obj 56 54 bng 15 250 50 0 empty empty empty 17 7 0 10 -262144 -1
-1;
#X obj 178 58 bng 15 250 50 0 empty empty empty 17 7 0 10 -262144 -1
-1;
#X obj 305 59 bng 15 250 50 0 empty empty empty 17 7 0 10 -262144 -1
-1;
#X obj 434 61 bng 15 250 50 0 empty empty empty 17 7 0 10 -262144 -1
-1;
#X obj 544 63 bng 15 250 50 0 empty empty empty 17 7 0 10 -262144 -1
-1;
#X obj 646 59 bng 15 250 50 0 empty empty empty 17 7 0 10 -262144 -1
-1;
#X obj 49 14 r zomb_move_stone;
#X obj 171 18 r zomb_move_sand;
#X obj 298 19 r zomb_move_grass;
#X obj 427 21 r bot_move_stone;
#X obj 537 23 r bot_move_sand;
#X obj 639 19 r bot_move_grass;
#X connect 6 0 0 0;
#X connect 7 0 1 0;
#X connect 8 0 2 0;
#X connect 9 0 3 0;
#X connect 10 0 4 0;
#X connect 11 0 5 0;
#X restore 256 130 pd npcs;
#X connect 2 0 0 0;
#X connect 2 1 1 0;
#X restore 184 57 pd footsteps;
#X obj 177 125 pip_mixer 4 Channel Mixer;
#N canvas 493 291 450 300 ambience 0;
#X obj 59 251 outlet~ L;
#X obj 229 251 outlet~ R;
#N canvas 1065 345 449 234 wind_generative 0;
#X obj 131 184 outlet~ R;
#X obj 41 184 outlet~ L;
#N canvas 198 353 834 415 wind 0;
#X obj 85 163 noise~;
#X obj 98 219 bp~;
#X obj 99 258 hip~;
#X obj 193 66 vsl 15 128 0 7000 0 0 empty empty empty 0 -9 0 10 -262144
-1 -1 949 1;
#X obj 231 66 vsl 15 128 0 200 0 0 empty empty empty 0 -9 0 10 -262144
-1 -1 200 1;
#X floatatom 259 218 5 0 0 0 - - -;
#X obj 371 56 vsl 15 128 0 7000 0 0 empty empty empty 0 -9 0 10 -262144
-1 -1 1499 1;
#X floatatom 399 208 5 0 0 0 - - -;
#X obj 104 290 lop~;
#X obj 447 55 vsl 15 128 280 3000 0 0 empty empty empty 0 -9 0 10 -262144
-1 -1 1512 1;
#X floatatom 475 207 5 0 0 0 - - -;
#X floatatom 187 214 5 0 0 0 - - -;
#X msg 206 19 1157;
#X msg 265 25 3.149;
#X msg 352 21 826;
#X msg 459 28 330;
#X obj 336 -1 loadbang;
#X obj 108 312 outlet~;
#N canvas 490 311 571 409 walk 0;
#X floatatom 99 101 5 0 0 0 - - -;
#X obj 100 28 tgl 15 0 empty empty empty 17 7 0 10 -262144 -1 -1 1
1;
#X obj 104 254 f;
#X obj 138 256 +;
#X floatatom 104 282 5 0 0 0 - - -;
#X msg 65 217 1;
#X obj 104 134 t b f;
#X obj 147 166 sel 0 1;
#X obj 46 7 inlet;
#X floatatom 177 23 5 0 0 0 - - -;
#X text 216 20 Speed;
#X obj 105 367 outlet;
#X obj 100 76 random 100;
#X floatatom 110 335 5 0 0 0 - - -;
#X obj 100 53 metro 200;
#X msg 127 193 -1;
#X msg 174 194 1;
#X floatatom 226 153 5 0 0 0 - - -;
#X obj 106 313 + 100;
#X connect 0 0 6 0;
#X connect 1 0 14 0;
#X connect 2 0 3 0;
#X connect 2 0 4 0;
#X connect 3 0 2 1;
#X connect 4 0 18 0;
#X connect 5 0 2 1;
#X connect 6 0 2 0;
#X connect 6 1 7 0;
#X connect 6 1 17 0;
#X connect 7 0 15 0;
#X connect 7 1 16 0;
#X connect 8 0 1 0;
#X connect 9 0 14 1;
#X connect 12 0 0 0;
#X connect 13 0 11 0;
#X connect 14 0 12 0;
#X connect 15 0 3 1;
#X connect 16 0 3 1;
#X connect 18 0 13 0;
#X restore 37 47 pd walk;
#X obj 31 11 loadbang;
#N canvas 397 316 722 454 walk_better 0;
#X floatatom 143 248 5 0 0 0 - - -;
#X obj 153 143 f;
#X floatatom 65 249 5 0 0 0 - - -;
#X obj 153 168 t b b f;
#X obj 56 283 sel 0 1;
#X obj 189 358 +;
#X obj 153 117 metro 100;
#X obj 153 95 tgl 15 0 empty empty empty 0 -6 0 8 -262144 -1 -1 1 1
;
#X obj 134 282 + 1;
#X floatatom 272 183 5 0 0 0 - - -;
#X obj 112 339 *;
#X msg 56 312 -1;
#X obj 272 113 moses 0;
#X obj 346 113 moses 100;
#X obj 272 137 * -1;
#X obj 437 116 * -1;
#X obj 437 141 + 200;
#X msg 90 312 1;
#X text 69 39 Random walk generator;
#X text 173 94 on/off;
#X text 328 182 output;
#X text 52 405 A random walk is a special case of a Markov chain \,
in which the states are integers and the transitions add or subtract
a small amount from the previous state to get a new one. Here the "f"
holds the state. When it gets a bang \, the previous state is added
to a random number (from 1 to 4) multiplied by a random sign (-1 or
1). The new value is then coerced into the range from 0 to 100;
#X text 65 265 sign;
#X text 143 264 magnitude;
#X text 233 343 add prev value;
#X text 230 360 to random increment;
#X text 286 60 coercion to range 0-100 \; if out of range \, reflect
;
#X text 285 90 us back in.;
#X text 353 522 updated for Pd version 0.37-1;
#X obj 277 226 + 500;
#X obj 282 273 outlet;
#X obj 406 236 spigot;
#X floatatom 410 266 5 0 0 0 - - -;
#X obj 494 197 tgl 15 0 empty empty empty 17 7 0 10 -262144 -1 -1 1
1;
#X obj 549 241 + 1000;
#X obj 557 292 spigot;
#X floatatom 561 322 5 0 0 0 - - -;
#X obj 643 226 tgl 15 0 empty empty empty 17 7 0 10 -262144 -1 -1 0
1;
#X obj 134 228 random 4;
#X obj 56 227 random 2;
#X obj 97 73 loadbang;
#X obj 508 177 loadbang;
#X connect 1 0 3 0;
#X connect 3 0 39 0;
#X connect 3 1 38 0;
#X connect 3 2 5 1;
#X connect 4 0 11 0;
#X connect 4 1 17 0;
#X connect 5 0 12 0;
#X connect 6 0 1 0;
#X connect 7 0 6 0;
#X connect 8 0 10 1;
#X connect 9 0 1 1;
#X connect 9 0 29 0;
#X connect 9 0 34 0;
#X connect 10 0 5 0;
#X connect 11 0 10 0;
#X connect 12 0 14 0;
#X connect 12 1 13 0;
#X connect 13 0 9 0;
#X connect 13 1 15 0;
#X connect 14 0 9 0;
#X connect 15 0 16 0;
#X connect 16 0 9 0;
#X connect 17 0 10 0;
#X connect 29 0 30 0;
#X connect 29 0 31 0;
#X connect 31 0 32 0;
#X connect 32 0 30 0;
#X connect 33 0 31 1;
#X connect 34 0 35 0;
#X connect 35 0 36 0;
#X connect 36 0 30 0;
#X connect 37 0 35 1;
#X connect 38 0 0 0;
#X connect 38 0 8 0;
#X connect 39 0 2 0;
#X connect 39 0 4 0;
#X connect 40 0 7 0;
#X connect 41 0 33 0;
#X restore 78 93 pd walk_better;
#X text 366 224 Lowpass;
#X text 460 225 Hipass;
#X text 271 241 q;
#X obj 562 26 r windWidth;
#N canvas 912 367 722 454 walk_better 0;
#X floatatom 143 248 5 0 0 0 - - -;
#X obj 153 143 f;
#X floatatom 65 249 5 0 0 0 - - -;
#X obj 153 168 t b b f;
#X obj 56 283 sel 0 1;
#X obj 189 358 +;
#X obj 153 117 metro 100;
#X obj 153 95 tgl 15 0 empty empty empty 0 -6 0 8 -262144 -1 -1 1 1
;
#X obj 134 282 + 1;
#X floatatom 272 183 5 0 0 0 - - -;
#X obj 112 339 *;
#X msg 56 312 -1;
#X obj 272 113 moses 0;
#X obj 346 113 moses 100;
#X obj 272 137 * -1;
#X obj 437 116 * -1;
#X obj 437 141 + 200;
#X msg 90 312 1;
#X text 69 39 Random walk generator;
#X text 173 94 on/off;
#X text 328 182 output;
#X text 52 405 A random walk is a special case of a Markov chain \,
in which the states are integers and the transitions add or subtract
a small amount from the previous state to get a new one. Here the "f"
holds the state. When it gets a bang \, the previous state is added
to a random number (from 1 to 4) multiplied by a random sign (-1 or
1). The new value is then coerced into the range from 0 to 100;
#X text 65 265 sign;
#X text 143 264 magnitude;
#X text 233 343 add prev value;
#X text 230 360 to random increment;
#X text 286 60 coercion to range 0-100 \; if out of range \, reflect
;
#X text 285 90 us back in.;
#X text 353 522 updated for Pd version 0.37-1;
#X obj 277 226 + 500;
#X obj 296 308 outlet;
#X obj 406 236 spigot;
#X floatatom 410 266 5 0 0 0 - - -;
#X obj 494 197 tgl 15 0 empty empty empty 17 7 0 10 -262144 -1 -1 1
1;
#X obj 549 241 + 1000;
#X obj 557 292 spigot;
#X floatatom 561 322 5 0 0 0 - - -;
#X obj 643 226 tgl 15 0 empty empty empty 17 7 0 10 -262144 -1 -1 0
1;
#X obj 134 228 random 4;
#X obj 56 227 random 2;
#X obj 97 73 loadbang;
#X obj 508 177 loadbang;
#X obj 518 100 r windHighOn;
#X obj 608 146 r windHighOff;
#X msg 648 181 1;
#X msg 503 132 0;
#X connect 1 0 3 0;
#X connect 3 0 39 0;
#X connect 3 1 38 0;
#X connect 3 2 5 1;
#X connect 4 0 11 0;
#X connect 4 1 17 0;
#X connect 5 0 12 0;
#X connect 6 0 1 0;
#X connect 7 0 6 0;
#X connect 8 0 10 1;
#X connect 9 0 1 1;
#X connect 9 0 29 0;
#X connect 9 0 34 0;
#X connect 10 0 5 0;
#X connect 11 0 10 0;
#X connect 12 0 14 0;
#X connect 12 1 13 0;
#X connect 13 0 9 0;
#X connect 13 1 15 0;
#X connect 14 0 9 0;
#X connect 15 0 16 0;
#X connect 16 0 9 0;
#X connect 17 0 10 0;
#X connect 29 0 31 0;
#X connect 31 0 32 0;
#X connect 32 0 30 0;
#X connect 33 0 31 1;
#X connect 34 0 35 0;
#X connect 35 0 36 0;
#X connect 36 0 30 0;
#X connect 37 0 35 1;
#X connect 38 0 0 0;
#X connect 38 0 8 0;
#X connect 39 0 2 0;
#X connect 39 0 4 0;
#X connect 40 0 7 0;
#X connect 41 0 33 0;
#X connect 42 0 45 0;
#X connect 43 0 44 0;
#X connect 44 0 33 0;
#X connect 45 0 33 0;
#X restore 498 84 pd walk_better;
#X obj 283 64 r windRes;
#X obj 506 55 + 50;
#X obj 495 -15 r windWidthLo;
#X connect 0 0 1 0;
#X connect 1 0 2 0;
#X connect 2 0 8 0;
#X connect 3 0 1 1;
#X connect 3 0 11 0;
#X connect 4 0 1 2;
#X connect 4 0 5 0;
#X connect 6 0 7 0;
#X connect 6 0 2 1;
#X connect 8 0 17 0;
#X connect 9 0 10 0;
#X connect 9 0 8 1;
#X connect 12 0 3 0;
#X connect 13 0 4 0;
#X connect 14 0 6 0;
#X connect 15 0 9 0;
#X connect 16 0 15 0;
#X connect 16 0 14 0;
#X connect 16 0 13 0;
#X connect 16 0 12 0;
#X connect 19 0 18 0;
#X connect 20 0 3 0;
#X connect 24 0 27 0;
#X connect 26 0 4 0;
#X connect 27 0 9 0;
#X connect 28 0 6 0;
#X restore 41 156 pd wind L;
#N canvas 356 264 947 374 wind 0;
#X obj 75 153 noise~;
#X obj 88 209 bp~;
#X obj 89 248 hip~;
#X obj 183 56 vsl 15 128 0 7000 0 0 empty empty empty 0 -9 0 10 -262144
-1 -1 927 1;
#X obj 221 56 vsl 15 128 0 200 0 0 empty empty empty 0 -9 0 10 -262144
-1 -1 200 1;
#X floatatom 249 208 5 0 0 0 - - -;
#X obj 361 46 vsl 15 128 0 7000 0 0 empty empty empty 0 -9 0 10 -262144
-1 -1 1553 1;
#X floatatom 389 198 5 0 0 0 - - -;
#X obj 94 280 lop~;
#X obj 437 45 vsl 15 128 280 3000 0 0 empty empty empty 0 -9 0 10 -262144
-1 -1 1279 1;
#X floatatom 465 197 5 0 0 0 - - -;
#X floatatom 177 204 5 0 0 0 - - -;
#X msg 196 9 1157;
#X msg 255 15 3.149;
#X msg 342 11 826;
#X msg 449 18 330;
#X obj 326 -11 loadbang;
#X obj 98 302 outlet~;
#N canvas 490 311 571 409 walk 0;
#X floatatom 99 101 5 0 0 0 - - -;
#X obj 100 28 tgl 15 0 empty empty empty 17 7 0 10 -262144 -1 -1 1
1;
#X obj 104 254 f;
#X obj 138 256 +;
#X floatatom 104 282 5 0 0 0 - - -;
#X msg 65 217 1;
#X obj 104 134 t b f;
#X obj 147 166 sel 0 1;
#X obj 46 7 inlet;
#X floatatom 177 23 5 0 0 0 - - -;
#X text 216 20 Speed;
#X obj 105 367 outlet;
#X obj 100 76 random 100;
#X floatatom 110 335 5 0 0 0 - - -;
#X obj 100 53 metro 200;
#X msg 127 193 -1;
#X msg 174 194 1;
#X floatatom 226 153 5 0 0 0 - - -;
#X obj 106 313 + 100;
#X connect 0 0 6 0;
#X connect 1 0 14 0;
#X connect 2 0 3 0;
#X connect 2 0 4 0;
#X connect 3 0 2 1;
#X connect 4 0 18 0;
#X connect 5 0 2 1;
#X connect 6 0 2 0;
#X connect 6 1 7 0;
#X connect 6 1 17 0;
#X connect 7 0 15 0;
#X connect 7 1 16 0;
#X connect 8 0 1 0;
#X connect 9 0 14 1;
#X connect 12 0 0 0;
#X connect 13 0 11 0;
#X connect 14 0 12 0;
#X connect 15 0 3 1;
#X connect 16 0 3 1;
#X connect 18 0 13 0;
#X restore 75 27 pd walk;
#X obj 21 1 loadbang;
#N canvas 397 316 722 454 walk_better 0;
#X floatatom 143 248 5 0 0 0 - - -;
#X obj 153 143 f;
#X floatatom 65 249 5 0 0 0 - - -;
#X obj 153 168 t b b f;
#X obj 56 283 sel 0 1;
#X obj 189 358 +;
#X obj 153 117 metro 100;
#X obj 153 95 tgl 15 0 empty empty empty 0 -6 0 8 -262144 -1 -1 1 1
;
#X obj 134 282 + 1;
#X floatatom 272 183 5 0 0 0 - - -;
#X obj 112 339 *;
#X msg 56 312 -1;
#X obj 272 113 moses 0;
#X obj 346 113 moses 100;
#X obj 272 137 * -1;
#X obj 437 116 * -1;
#X obj 437 141 + 200;
#X msg 90 312 1;
#X text 69 39 Random walk generator;
#X text 173 94 on/off;
#X text 328 182 output;
#X text 52 405 A random walk is a special case of a Markov chain \,
in which the states are integers and the transitions add or subtract
a small amount from the previous state to get a new one. Here the "f"
holds the state. When it gets a bang \, the previous state is added
to a random number (from 1 to 4) multiplied by a random sign (-1 or
1). The new value is then coerced into the range from 0 to 100;
#X text 65 265 sign;
#X text 143 264 magnitude;
#X text 233 343 add prev value;
#X text 230 360 to random increment;
#X text 286 60 coercion to range 0-100 \; if out of range \, reflect
;
#X text 285 90 us back in.;
#X text 353 522 updated for Pd version 0.37-1;
#X obj 277 226 + 500;
#X obj 282 273 outlet;
#X obj 406 236 spigot;
#X floatatom 410 266 5 0 0 0 - - -;
#X obj 494 197 tgl 15 0 empty empty empty 17 7 0 10 -262144 -1 -1 1
1;
#X obj 549 241 + 1000;
#X obj 557 292 spigot;
#X floatatom 561 322 5 0 0 0 - - -;
#X obj 643 226 tgl 15 0 empty empty empty 17 7 0 10 -262144 -1 -1 0
1;
#X obj 134 228 random 4;
#X obj 56 227 random 2;
#X obj 97 73 loadbang;
#X obj 508 177 loadbang;
#X connect 1 0 3 0;
#X connect 3 0 39 0;
#X connect 3 1 38 0;
#X connect 3 2 5 1;
#X connect 4 0 11 0;
#X connect 4 1 17 0;
#X connect 5 0 12 0;
#X connect 6 0 1 0;
#X connect 7 0 6 0;
#X connect 8 0 10 1;
#X connect 9 0 1 1;
#X connect 9 0 29 0;
#X connect 9 0 34 0;
#X connect 10 0 5 0;
#X connect 11 0 10 0;
#X connect 12 0 14 0;
#X connect 12 1 13 0;
#X connect 13 0 9 0;
#X connect 13 1 15 0;
#X connect 14 0 9 0;
#X connect 15 0 16 0;
#X connect 16 0 9 0;
#X connect 17 0 10 0;
#X connect 29 0 30 0;
#X connect 29 0 31 0;
#X connect 31 0 32 0;
#X connect 32 0 30 0;
#X connect 33 0 31 1;
#X connect 34 0 35 0;
#X connect 35 0 36 0;
#X connect 36 0 30 0;
#X connect 37 0 35 1;
#X connect 38 0 0 0;
#X connect 38 0 8 0;
#X connect 39 0 2 0;
#X connect 39 0 4 0;
#X connect 40 0 7 0;
#X connect 41 0 33 0;
#X restore 68 83 pd walk_better;
#X text 356 214 Lowpass;
#X text 450 215 Hipass;
#X text 261 231 q;
#X obj 507 36 r windWidth;
#N canvas 912 367 722 454 walk_better 0;
#X floatatom 143 248 5 0 0 0 - - -;
#X obj 153 143 f;
#X floatatom 65 249 5 0 0 0 - - -;
#X obj 153 168 t b b f;
#X obj 56 283 sel 0 1;
#X obj 189 358 +;
#X obj 153 117 metro 100;
#X obj 153 95 tgl 15 0 empty empty empty 0 -6 0 8 -262144 -1 -1 1 1
;
#X obj 134 282 + 1;
#X floatatom 272 183 5 0 0 0 - - -;
#X obj 112 339 *;
#X msg 56 312 -1;
#X obj 272 113 moses 0;
#X obj 346 113 moses 100;
#X obj 272 137 * -1;
#X obj 437 116 * -1;
#X obj 437 141 + 200;
#X msg 90 312 1;
#X text 69 39 Random walk generator;
#X text 173 94 on/off;
#X text 328 182 output;
#X text 52 405 A random walk is a special case of a Markov chain \,
in which the states are integers and the transitions add or subtract
a small amount from the previous state to get a new one. Here the "f"
holds the state. When it gets a bang \, the previous state is added
to a random number (from 1 to 4) multiplied by a random sign (-1 or
1). The new value is then coerced into the range from 0 to 100;
#X text 65 265 sign;
#X text 143 264 magnitude;
#X text 233 343 add prev value;
#X text 230 360 to random increment;
#X text 286 60 coercion to range 0-100 \; if out of range \, reflect
;
#X text 285 90 us back in.;
#X text 353 522 updated for Pd version 0.37-1;
#X obj 277 226 + 500;
#X obj 296 308 outlet;
#X obj 406 236 spigot;
#X floatatom 410 266 5 0 0 0 - - -;
#X obj 494 197 tgl 15 0 empty empty empty 17 7 0 10 -262144 -1 -1 1
1;
#X obj 549 241 + 1000;
#X obj 557 292 spigot;
#X floatatom 561 322 5 0 0 0 - - -;
#X obj 643 226 tgl 15 0 empty empty empty 17 7 0 10 -262144 -1 -1 0
1;
#X obj 134 228 random 4;
#X obj 56 227 random 2;
#X obj 97 73 loadbang;
#X obj 508 177 loadbang;
#X obj 518 100 r windHighOn;
#X obj 608 146 r windHighOff;
#X msg 648 181 1;
#X msg 503 132 0;
#X connect 1 0 3 0;
#X connect 3 0 39 0;
#X connect 3 1 38 0;
#X connect 3 2 5 1;
#X connect 4 0 11 0;
#X connect 4 1 17 0;
#X connect 5 0 12 0;
#X connect 6 0 1 0;
#X connect 7 0 6 0;
#X connect 8 0 10 1;
#X connect 9 0 1 1;
#X connect 9 0 29 0;
#X connect 9 0 34 0;
#X connect 10 0 5 0;
#X connect 11 0 10 0;
#X connect 12 0 14 0;
#X connect 12 1 13 0;
#X connect 13 0 9 0;
#X connect 13 1 15 0;
#X connect 14 0 9 0;
#X connect 15 0 16 0;
#X connect 16 0 9 0;
#X connect 17 0 10 0;
#X connect 29 0 31 0;
#X connect 31 0 32 0;
#X connect 32 0 30 0;
#X connect 33 0 31 1;
#X connect 34 0 35 0;
#X connect 35 0 36 0;
#X connect 36 0 30 0;
#X connect 37 0 35 1;
#X connect 38 0 0 0;
#X connect 38 0 8 0;
#X connect 39 0 2 0;
#X connect 39 0 4 0;
#X connect 40 0 7 0;
#X connect 41 0 33 0;
#X connect 42 0 45 0;
#X connect 43 0 44 0;
#X connect 44 0 33 0;
#X connect 45 0 33 0;
#X restore 488 74 pd walk_better;
#X obj 273 54 r windRes;
#X obj 406 -5 r windWidthLo;
#X obj 389 17 + 30;
#X connect 0 0 1 0;
#X connect 1 0 2 0;
#X connect 2 0 8 0;
#X connect 3 0 1 1;
#X connect 3 0 11 0;
#X connect 4 0 1 2;
#X connect 4 0 5 0;
#X connect 6 0 7 0;
#X connect 6 0 2 1;
#X connect 8 0 17 0;
#X connect 9 0 10 0;
#X connect 9 0 8 1;
#X connect 12 0 3 0;
#X connect 13 0 4 0;
#X connect 14 0 6 0;
#X connect 15 0 9 0;
#X connect 16 0 15 0;
#X connect 16 0 14 0;
#X connect 16 0 13 0;
#X connect 16 0 12 0;
#X connect 19 0 18 0;
#X connect 20 0 3 0;
#X connect 24 0 9 0;
#X connect 25 0 9 0;
#X connect 26 0 4 0;
#X connect 27 0 28 0;
#X connect 28 0 6 0;
#X restore 131 156 pd wind R;
#X text 31 12 Stereo Generative Wind Machine;
#N canvas 215 50 821 512 windHowl 0;
#X obj 71 33 inlet;
#X obj 83 160 line;
#X floatatom 81 227 5 0 0 0 - - -;
#X obj 171 31 inlet;
#X obj 76 264 s windRes;
#X obj 264 85 loadbang;
#X msg 76 122 30 5000;
#X obj 174 79 t b b;
#X obj 267 146 delay 1000;
#X msg 150 122 10 3000;
#X msg 255 190 3.149 3000;
#X obj 248 11 r windX;
#X floatatom 249 35 5 0 0 0 - - -;
#X msg 346 28 30;
#X obj 416 48 - 3.149;
#X floatatom 419 76 5 0 0 0 - - -;
#X obj 420 123 * \$1;
#X floatatom 420 153 5 0 0 0 - - -;
#X obj 423 192 + 3.149;
#X floatatom 424 231 5 0 0 0 - - -;
#X obj 328 65 t b f;
#X connect 0 0 6 0;
#X connect 1 0 2 0;
#X connect 2 0 4 0;
#X connect 3 0 7 0;
#X connect 5 0 10 0;
#X connect 6 0 1 0;
#X connect 7 0 8 0;
#X connect 7 1 9 0;
#X connect 8 0 10 0;
#X connect 9 0 1 0;
#X connect 10 0 1 0;
#X connect 11 0 12 0;
#X connect 13 0 14 0;
#X connect 14 0 15 0;
#X connect 15 0 16 0;
#X connect 16 0 17 0;
#X connect 17 0 18 0;
#X connect 18 0 19 0;
#X connect 19 0 4 0;
#X connect 20 0 16 0;
#X connect 20 1 16 1;
#X restore 31 114 pd windHowl;
#X obj 35 48 r windHowlOn;
#X obj 34 75 bng 15 250 50 0 empty empty empty 17 7 0 10 -262144 -1
-1;
#X obj 121 49 r windHowlOff;
#X obj 114 75 bng 15 250 50 0 empty empty empty 17 7 0 10 -262144 -1
-1;
#X obj 225 51 r windHighOn;
#X obj 318 54 r windHighOff;
#X obj 223 82 bng 15 250 50 0 empty empty empty 17 7 0 10 -262144 -1
-1;
#X obj 319 82 bng 15 250 50 0 empty empty empty 17 7 0 10 -262144 -1
-1;
#N canvas 1017 341 865 354 windHigh 0;
#X obj 86 23 inlet;
#X obj 98 150 line;
#X floatatom 96 217 5 0 0 0 - - -;
#X obj 186 21 inlet;
#X obj 279 75 loadbang;
#X obj 95 251 s windWidth;
#N canvas 680 645 450 300 ranodm 0;
#X floatatom 51 153 5 0 0 0 - - -;
#X obj 56 18 bng 15 250 50 0 empty empty empty 17 7 0 10 -262144 -1
-1;
#X obj 54 69 random 1000;
#X obj 51 113 + 2000;
#X obj 14 9 inlet;
#X obj 47 184 outlet;
#X connect 0 0 5 0;
#X connect 1 0 2 0;
#X connect 2 0 3 0;
#X connect 3 0 0 0;
#X connect 4 0 1 0;
#X restore 17 82 pd ranodm;
#X msg 91 112 2731 7000;
#X msg 165 112 553.9 7000;
#X msg 9 117 set \$1 7000;
#X obj 428 260 s windWidthLo;
#X obj 430 163 line;
#X floatatom 429 209 5 0 0 0 - - -;
#X obj 644 79 loadbang;
#X msg 530 116 826 7000;
#X msg 413 118 1500 7000;
#X obj 51 43 t b b b;
#X obj 656 141 r windY;
#X floatatom 653 169 5 0 0 0 - - -;
#X floatatom 653 219 5 0 0 0 - - -;
#X floatatom 611 318 5 0 0 0 - - -;
#X obj 655 264 min 2000;
#X floatatom 291 148 5 0 0 0 - - -;
#X floatatom 291 198 5 0 0 0 - - -;
#X floatatom 249 297 5 0 0 0 - - -;
#X obj 293 243 min 2731;
#X obj 243 270 max 553.9;
#X obj 294 120 r windX;
#X obj 654 192 * 1000;
#X obj 292 171 * 1000;
#X obj 605 291 max 10;
#X connect 0 0 16 0;
#X connect 1 0 2 0;
#X connect 2 0 5 0;
#X connect 3 0 8 0;
#X connect 3 0 14 0;
#X connect 4 0 8 0;
#X connect 6 0 9 0;
#X connect 7 0 1 0;
#X connect 8 0 1 0;
#X connect 9 0 7 0;
#X connect 11 0 12 0;
#X connect 12 0 10 0;
#X connect 13 0 14 0;
#X connect 14 0 11 0;
#X connect 15 0 11 0;
#X connect 16 0 7 0;
#X connect 16 1 6 0;
#X connect 16 2 15 0;
#X connect 17 0 18 0;
#X connect 18 0 28 0;
#X connect 19 0 21 0;
#X connect 20 0 10 0;
#X connect 21 0 30 0;
#X connect 22 0 29 0;
#X connect 23 0 25 0;
#X connect 24 0 5 0;
#X connect 25 0 26 0;
#X connect 26 0 24 0;
#X connect 27 0 22 0;
#X connect 28 0 19 0;
#X connect 29 0 23 0;
#X connect 30 0 20 0;
#X restore 216 112 pd windHigh;
#X connect 2 0 1 0;
#X connect 3 0 0 0;
#X connect 6 0 7 0;
#X connect 7 0 5 0;
#X connect 8 0 9 0;
#X connect 9 0 5 1;
#X connect 10 0 12 0;
#X connect 11 0 13 0;
#X connect 12 0 14 0;
#X connect 13 0 14 1;
#X restore 33 79 pd wind_generative;
#N canvas 339 360 806 397 sfx 0;
#X obj 41 110 inlet~ 2L;
#X obj 120 110 inlet~ 2R;
#N canvas 87 181 745 465 channel_2 0;
#X obj 120 178 inlet~;
#X obj 178 178 inlet~;
#X obj 120 253 *~;
#X obj 182 253 *~;
#X obj 120 296 outlet~;
#X obj 178 296 outlet~;
#X obj 64 120 vsl 15 128 0 0.7 0 0 empty empty empty 0 -9 0 10 -262144
-1 -1 5443 1;
#X text 51 261 Volume;
#N canvas 0 50 450 300 mute 0;
#X obj 136 88 sel 0 1;
#X msg 160 147 0;
#X msg 91 149 0.7;
#X obj 139 206 outlet;
#X obj 132 40 r sfx_submixer_mute_2;
#X connect 0 0 2 0;
#X connect 0 1 1 0;
#X connect 1 0 3 0;
#X connect 2 0 3 0;
#X connect 4 0 0 0;
#X restore 5 69 pd mute;
#X obj 59 59 loadbang;
#X text 161 84 add volume automation here!;
#X text 310 9 Submixer Channel 2;
#X msg 73 82 0.3;
#X connect 0 0 2 0;
#X connect 1 0 3 0;
#X connect 2 0 4 0;
#X connect 3 0 5 0;
#X connect 6 0 2 1;
#X connect 6 0 3 1;
#X connect 8 0 6 0;
#X connect 9 0 12 0;
#X connect 12 0 6 0;
#X restore 41 138 pd channel_2 submix;
#X obj 87 68 tgl 35 0 sfx_submixer_mute_2 empty empty 17 7 0 10 -262144
-1 -1 0 1;
#X text 136 80 MUTE;
#X obj 169 286 throw~ sfx_submixL;
#X obj 308 285 throw~ sfx_submixR;
#X text 232 4 SFX SUBMIXER;
#X text 443 278 note: duplicate channel and change: 1) mute receiver
(big box and inside) 2) adjust reverb 3) samples: change array etc.
;
#X obj 420 69 tgl 35 0 sfx_submixer_mute_4 empty empty 17 7 0 10 -262144
-1 -1 0 1;
#X text 469 81 MUTE;
#X obj 374 111 inlet~ sfx4;
#N canvas 286 252 745 465 channel_4 0;
#X obj 120 178 inlet~;
#X obj 120 253 *~;
#X obj 120 296 outlet~;
#X obj 64 120 vsl 15 128 0 0.7 0 0 empty empty empty 0 -9 0 10 -262144
-1 -1 9071 1;
#X text 51 261 Volume;
#N canvas 0 50 450 300 mute 0;
#X obj 136 88 sel 0 1;
#X msg 160 147 0;
#X msg 91 149 0.7;
#X obj 139 206 outlet;
#X obj 132 40 r sfx_submixer_mute_4;
#X connect 0 0 2 0;
#X connect 0 1 1 0;
#X connect 1 0 3 0;
#X connect 2 0 3 0;
#X connect 4 0 0 0;
#X restore 5 69 pd mute;
#X obj 59 59 loadbang;
#X text 308 9 Submixer Channel 4;
#X msg 72 82 0.5;
#X connect 0 0 1 0;
#X connect 1 0 2 0;
#X connect 3 0 1 1;
#X connect 5 0 3 0;
#X connect 6 0 8 0;
#X connect 8 0 3 0;
#X restore 374 139 pd channel_4 submix;
#X obj 551 72 tgl 35 0 sfx_submixer_mute_5 empty empty 17 7 0 10 -262144
-1 -1 0 1;
#X text 600 84 MUTE;
#X obj 505 114 inlet~ sfx5;
#N canvas 109 170 745 465 channel_5 0;
#X obj 120 178 inlet~;
#X obj 120 253 *~;
#X obj 120 296 outlet~;
#X obj 64 120 vsl 15 128 0 0.7 0 0 empty empty empty 0 -9 0 10 -262144
-1 -1 3629 1;
#X text 51 261 Volume;
#N canvas 0 50 450 300 mute 0;
#X obj 136 88 sel 0 1;
#X msg 160 147 0;
#X msg 91 149 0.7;
#X obj 139 206 outlet;
#X obj 132 40 r sfx_submixer_mute_5;
#X connect 0 0 2 0;
#X connect 0 1 1 0;
#X connect 1 0 3 0;
#X connect 2 0 3 0;
#X connect 4 0 0 0;
#X restore 5 69 pd mute;
#X obj 59 59 loadbang;
#X text 308 9 Submixer Channel 4 - Creature Hit;
#X msg 73 82 0.2;
#X connect 0 0 1 0;
#X connect 1 0 2 0;
#X connect 3 0 1 1;
#X connect 5 0 3 0;
#X connect 6 0 8 0;
#X connect 8 0 3 0;
#X restore 505 142 pd channel_5 submix;
#X text 80 39 CHANNEL 2 _ Wind;
#X obj 250 71 tgl 35 0 sfx_submixer_mute_3 empty empty 17 7 0 10 -262144
-1 -1 0 1;
#X text 298 83 MUTE;
#N canvas 87 181 745 465 channel_3 0;
#X obj 120 178 inlet~;
#X obj 178 178 inlet~;
#X obj 120 253 *~;
#X obj 182 253 *~;
#X obj 120 296 outlet~;
#X obj 178 296 outlet~;
#X obj 64 120 vsl 15 128 0 0.7 0 0 empty empty empty 0 -9 0 10 -262144
-1 -1 9071 1;
#X text 51 261 Volume;
#N canvas 0 50 450 300 mute 0;
#X obj 136 88 sel 0 1;
#X msg 160 147 0;
#X msg 91 149 0.7;
#X obj 139 206 outlet;
#X obj 133 40 r sfx_submixer_mute_3;
#X connect 0 0 2 0;
#X connect 0 1 1 0;
#X connect 1 0 3 0;
#X connect 2 0 3 0;
#X connect 4 0 0 0;
#X restore 5 69 pd mute;
#X obj 59 59 loadbang;
#X text 308 9 Submixer Channel 2 - confirm synth;
#X msg 73 82 0.5;
#X connect 0 0 2 0;
#X connect 1 0 3 0;
#X connect 2 0 4 0;
#X connect 3 0 5 0;
#X connect 6 0 2 1;
#X connect 6 0 3 1;
#X connect 8 0 6 0;
#X connect 9 0 11 0;
#X connect 11 0 6 0;
#X restore 203 142 pd channel_3 submix;
#X obj 203 113 inlet~ 3L;
#X obj 282 113 inlet~ 3R;
#X text 569 47 ?;
#X text 243 42 recorded;
#X text 412 46 place_discovered;
#X connect 0 0 2 0;
#X connect 1 0 2 1;
#X connect 2 0 5 0;
#X connect 2 1 6 0;
#X connect 11 0 12 0;
#X connect 12 0 5 0;
#X connect 12 0 6 0;
#X connect 15 0 16 0;
#X connect 16 0 5 0;
#X connect 16 0 6 0;
#X connect 20 0 5 0;
#X connect 20 1 6 0;
#X connect 21 0 20 0;
#X connect 22 0 20 1;
#X restore 61 146 pd sfx submixer for all your sfx mixing needs;
#X obj 49 180 catch~ sfx_submixL;
#X obj 236 184 catch~ sfx_submixR;
#N canvas 489 255 724 312 recorded 0;
#X obj 104 268 outlet~ L;
#X obj 222 263 outlet~ R;
#N canvas 159 196 1128 585 wolf 0;
#X obj 46 310 t b b;
#X obj 45 259 bng 15 250 50 0 empty empty empty 17 7 0 10 -262144 -1
-1;
#N canvas 707 432 672 195 samples 0;
#X obj 296 168 soundfiler;
#X obj 292 0 loadbang;
#X msg 355 25 read -resize sfx_amb_wolf_00.wav wolf1;
#X msg 354 50 read -resize sfx_amb_wolf_01.wav wolf2;
#X msg 356 76 read -resize sfx_amb_wolf_02.wav wolf3;
#X msg 359 99 read -resize sfx_amb_wolf_03.wav wolf4;
#X msg 360 122 read -resize sfx_amb_wolf_04.wav wolf5;
#X obj 10 25 table wolf1;
#X obj 11 48 table wolf2;
#X obj 13 74 table wolf3;
#X obj 102 24 table wolf4;
#X obj 103 47 table wolf5;
#X obj 110 72 table wolf6;
#X msg 364 143 read -resize sfx_amb_wolf_05.wav wolf6;
#X connect 1 0 2 0;
#X connect 1 0 3 0;
#X connect 1 0 4 0;
#X connect 1 0 5 0;
#X connect 1 0 6 0;
#X connect 1 0 13 0;
#X connect 2 0 0 0;
#X connect 3 0 0 0;
#X connect 4 0 0 0;
#X connect 5 0 0 0;
#X connect 6 0 0 0;
#X connect 13 0 0 0;
#X restore 33 498 pd samples;
#X obj 218 313 t b b;
#X obj 217 262 bng 15 250 50 0 empty empty empty 17 7 0 10 -262144
-1 -1;
#X obj 386 311 t b b;
#X obj 385 260 bng 15 250 50 0 empty empty empty 17 7 0 10 -262144
-1 -1;
#X obj 548 310 t b b;
#X obj 547 259 bng 15 250 50 0 empty empty empty 17 7 0 10 -262144
-1 -1;
#X obj 708 306 t b b;
#X obj 707 255 bng 15 250 50 0 empty empty empty 17 7 0 10 -262144
-1 -1;
#X floatatom 369 177 5 0 0 0 - - -;
#X obj 319 125 bng 15 250 50 0 empty empty empty 17 7 0 10 -262144
-1 -1;
#X msg 118 326 set wolf1;
#X msg 290 330 set wolf2;
#X msg 458 328 set wolf3;
#X msg 620 327 set wolf4;
#X msg 780 323 set wolf5;
#X obj 451 378 s wolftabplay;
#X obj 247 402 r wolftabplay;
#X obj 250 427 tabplay~;
#X obj 868 303 t b b;
#X obj 867 252 bng 15 250 50 0 empty empty empty 17 7 0 10 -262144
-1 -1;
#X obj 366 202 sel 0 1 2 3 4 5;
#X msg 940 320 set wolf6;
#X obj 251 469 *~;
#X obj 349 417 vsl 15 128 0 1 0 0 empty empty Vol. 0 -9 0 10 -262144
-1 -1 1651 1;
#X obj 478 429 loadbang;
#X obj 367 93 tgl 15 0 empty empty empty 17 7 0 10 -262144 -1 -1 0
1;
#X obj 420 30 inlet;
#X obj 315 30 inlet;
#X msg 344 61 1;
#X msg 396 59 0;
#X obj 367 117 metro 15000;
#X floatatom 381 554 5 0 0 0 - - -;
#X obj 365 150 pip_randomnorepeat 7;
#X msg 477 454 0.13;
#X obj 179 567 outlet~;
#N canvas 662 616 450 300 pan 0;
#X obj 68 274 *~;
#X obj 264 253 *~;
#X obj 273 102 hsl 128 15 0 1 0 0 empty empty empty -2 -8 0 10 -262144
-1 -1 0 1;
#X obj 269 187 sig~;
#X obj 86 232 sig~;
#X floatatom 312 149 5 0 0 0 - - -;
#X obj 118 198 expr 1-$f1;
#X obj 78 37 inlet~;
#X obj 123 368 outlet~ L;
#X obj 276 8 inlet;
#X obj 220 25 bng 15 250 50 0 empty empty empty 17 7 0 10 -262144 -1
-1;
#X obj 275 35 pip_randomnorepeat 100;
#X obj 284 57 / 100;
#X floatatom 283 78 5 0 0 0 - - -;
#X obj 258 346 outlet~ R;
#X connect 0 0 8 0;
#X connect 1 0 14 0;
#X connect 2 0 3 0;
#X connect 2 0 5 0;
#X connect 2 0 6 0;
#X connect 3 0 1 1;
#X connect 4 0 0 1;
#X connect 6 0 4 0;
#X connect 7 0 0 0;
#X connect 7 0 1 0;
#X connect 9 0 11 0;
#X connect 10 0 11 0;
#X connect 11 0 12 0;
#X connect 12 0 13 0;
#X connect 13 0 2 0;
#X restore 191 525 pd pan;
#X obj 253 573 outlet~;
#X obj 260 510 r toPanWolf;
#X obj 278 160 s toPanWolf;
#X connect 0 0 18 0;
#X connect 0 1 13 0;
#X connect 1 0 0 0;
#X connect 3 0 18 0;
#X connect 3 1 14 0;
#X connect 4 0 3 0;
#X connect 5 0 18 0;
#X connect 5 1 15 0;
#X connect 6 0 5 0;
#X connect 7 0 18 0;
#X connect 7 1 16 0;
#X connect 8 0 7 0;
#X connect 9 0 18 0;
#X connect 9 1 17 0;
#X connect 10 0 9 0;
#X connect 11 0 23 0;
#X connect 12 0 35 0;
#X connect 13 0 18 0;
#X connect 14 0 18 0;
#X connect 15 0 18 0;
#X connect 16 0 18 0;
#X connect 17 0 18 0;
#X connect 19 0 20 0;
#X connect 20 0 25 0;
#X connect 21 0 18 0;
#X connect 21 1 24 0;
#X connect 22 0 21 0;
#X connect 23 0 1 0;
#X connect 23 1 4 0;
#X connect 23 2 6 0;
#X connect 23 3 8 0;
#X connect 23 4 10 0;
#X connect 23 5 22 0;
#X connect 25 0 38 0;
#X connect 26 0 34 0;
#X connect 26 0 25 1;
#X connect 27 0 36 0;
#X connect 28 0 33 0;
#X connect 29 0 32 0;
#X connect 30 0 31 0;
#X connect 31 0 28 0;
#X connect 32 0 28 0;
#X connect 33 0 35 0;
#X connect 33 0 41 0;
#X connect 35 0 11 0;
#X connect 36 0 26 0;
#X connect 38 0 37 0;
#X connect 38 1 39 0;
#X connect 40 0 38 1;
#X restore 41 92 pd wolf;
#N canvas 579 397 539 374 storm 0;
#X obj 148 180 oggread~;
#X obj 130 343 outlet~ L;
#X obj 212 343 outlet~ R;
#X obj 251 139 vsl 15 128 0 1 0 0 empty empty Volume 0 -9 0 10 -262144
-1 -1 12700 1;
#X obj 109 244 *~;
#X obj 176 239 *~;
#X obj 354 95 loadbang;
#X obj 212 183 bng 15 250 50 0 empty empty empty 17 7 0 10 -262144
-1 -1;
#X obj 214 270 sig~;
#N canvas 752 539 677 302 loadFile 0;
#X obj 74 11 loadbang;
#X msg 157 123 open /Volumes/3rd_PROJECTS/2014/das_tal/unity/art_proto/Assets/StreamingAssets/sfx_amb_storm_00.ogg
;
#X obj 83 207 outlet;
#X obj 19 48 inlet;
#X text 569 140 Mac Pro;
#X text 523 63 Air;
#X msg 148 48 open /Users/Pippo/Desktop/unity/das_tal/Assets/StreamingAssets/sfx_amb_storm_00.ogg
;
#X connect 0 0 6 0;
#X connect 0 0 1 0;
#X connect 1 0 2 0;
#X connect 3 0 6 0;
#X connect 6 0 2 0;
#X restore 67 156 pd loadFile;
#X obj 22 142 bng 15 250 50 0 empty empty empty 17 7 0 10 -262144 -1
-1;
#X msg 152 138 1;
#X text 303 67 Loops storm sound.;
#X msg 190 137 stop;
#X floatatom 193 207 5 0 0 0 - - -;
#X obj 243 85 line;
#X msg 350 138 1 100;
#X msg 220 29 0 3000;
#X obj 29 24 r thunderOn;
#X obj 106 71 r thunderOff;
#X obj 110 92 t b b;
#X obj 28 55 t b b;
#X obj 438 4 bng 15 250 50 0 empty thunderOn thunder_on 17 7 0 10 -262144
-1 -1;
#X obj 438 25 bng 15 250 50 0 empty thunderOff thunder_off 17 7 0 10
-262144 -1 -1;
#X obj 12 37 bng 15 250 50 0 empty empty empty 17 7 0 10 -262144 -1
-1;
#X obj 122 48 bng 15 250 50 0 empty empty empty 17 7 0 10 -262144 -1
-1;
#X obj 22 78 delay 200;
#X obj 147 113 delay 3000;
#X msg 154 29 0.76 3000;
#X connect 0 0 4 0;
#X connect 0 1 5 0;
#X connect 0 2 14 0;
#X connect 0 3 7 0;
#X connect 3 0 8 0;
#X connect 4 0 1 0;
#X connect 5 0 2 0;
#X connect 6 0 16 0;
#X connect 7 0 11 0;
#X connect 8 0 5 1;
#X connect 8 0 4 1;
#X connect 9 0 0 0;
#X connect 10 0 9 0;
#X connect 11 0 0 0;
#X connect 13 0 0 0;
#X connect 15 0 3 0;
#X connect 16 0 15 0;
#X connect 17 0 15 0;
#X connect 18 0 21 0;
#X connect 19 0 20 0;
#X connect 20 0 27 0;
#X connect 20 1 17 0;
#X connect 21 0 26 0;
#X connect 21 1 28 0;
#X connect 24 0 21 0;
#X connect 25 0 20 0;
#X connect 26 0 11 0;
#X connect 27 0 13 0;
#X connect 28 0 15 0;
#X restore 157 95 pd storm;
#N canvas 456 144 946 586 hawk 0;
#X obj 46 240 t b b;
#X obj 45 189 bng 15 250 50 0 empty empty empty 17 7 0 10 -262144 -1
-1;
#N canvas 707 432 672 195 samples 0;
#X obj 296 168 soundfiler;
#X obj 292 0 loadbang;
#X obj 11 25 table hawk1;
#X obj 11 51 table hawk2;
#X obj 13 79 table hawk3;
#X obj 93 53 table hawk4;
#X msg 354 50 read -resize sfx_amb_hawk_01.wav hawk2;
#X msg 355 26 read -resize sfx_amb_hawk_00.wav hawk1;
#X msg 356 77 read -resize sfx_amb_hawk_02.wav hawk3;
#X msg 359 99 read -resize sfx_amb_hawk_03.wav hawk4;
#X connect 1 0 7 0;
#X connect 1 0 6 0;
#X connect 1 0 8 0;
#X connect 1 0 9 0;
#X connect 6 0 0 0;
#X connect 7 0 0 0;
#X connect 8 0 0 0;
#X connect 9 0 0 0;
#X restore 33 428 pd samples;
#X obj 218 243 t b b;
#X obj 217 192 bng 15 250 50 0 empty empty empty 17 7 0 10 -262144
-1 -1;
#X obj 386 241 t b b;
#X obj 385 190 bng 15 250 50 0 empty empty empty 17 7 0 10 -262144
-1 -1;
#X obj 548 240 t b b;
#X obj 547 189 bng 15 250 50 0 empty empty empty 17 7 0 10 -262144
-1 -1;
#X floatatom 369 107 5 0 0 0 - - -;
#X obj 183 502 outlet~;
#X obj 250 357 tabplay~;
#X obj 251 399 *~;
#X obj 349 347 vsl 15 128 0 1 0 0 empty empty Vol. 0 -9 0 10 -262144
-1 -1 9525 1;
#X obj 478 359 loadbang;
#X obj 365 83 pip_randomnorepeat 4;
#X obj 366 132 sel 0 1 2 3;
#X obj 451 308 s hawktabplay;
#X obj 247 332 r hawktabplay;
#X msg 458 258 set hawk3;
#X msg 620 257 set hawk4;
#X msg 118 256 set hawk1;
#X msg 290 260 set hawk2;
#X obj 370 34 tgl 15 0 empty empty empty 17 7 0 10 -262144 -1 -1 0
1;
#X obj 423 -32 inlet;
#X obj 318 -32 inlet;
#X msg 347 -1 1;
#X msg 399 -3 0;
#X obj 370 58 metro 20000;
#X msg 477 384 0.75;
#N canvas 662 616 450 300 pan 0;
#X obj 68 274 *~;
#X obj 264 253 *~;
#X obj 273 102 hsl 128 15 0 1 0 0 empty empty empty -2 -8 0 10 -262144
-1 -1 0 1;
#X obj 269 187 sig~;
#X obj 86 232 sig~;
#X floatatom 312 149 5 0 0 0 - - -;
#X obj 118 198 expr 1-$f1;
#X obj 78 37 inlet~;
#X obj 123 368 outlet~ L;
#X obj 276 8 inlet;
#X obj 220 25 bng 15 250 50 0 empty empty empty 17 7 0 10 -262144 -1
-1;
#X obj 275 35 pip_randomnorepeat 100;
#X obj 284 57 / 100;
#X floatatom 283 78 5 0 0 0 - - -;
#X obj 258 346 outlet~ R;
#X connect 0 0 8 0;
#X connect 1 0 14 0;
#X connect 2 0 3 0;
#X connect 2 0 5 0;
#X connect 2 0 6 0;
#X connect 3 0 1 1;
#X connect 4 0 0 1;
#X connect 6 0 4 0;
#X connect 7 0 0 0;
#X connect 7 0 1 0;
#X connect 9 0 11 0;
#X connect 10 0 11 0;
#X connect 11 0 12 0;
#X connect 12 0 13 0;
#X connect 13 0 2 0;
#X restore 195 460 pd pan;
#X obj 257 508 outlet~;
#X obj 289 80 s toPanHawk;
#X obj 264 445 r toPanHawk;
#X connect 0 0 17 0;
#X connect 0 1 21 0;
#X connect 1 0 0 0;
#X connect 3 0 17 0;
#X connect 3 1 22 0;
#X connect 4 0 3 0;
#X connect 5 0 17 0;
#X connect 5 1 19 0;
#X connect 6 0 5 0;
#X connect 7 0 17 0;
#X connect 7 1 20 0;
#X connect 8 0 7 0;
#X connect 9 0 16 0;
#X connect 11 0 12 0;
#X connect 12 0 30 0;
#X connect 13 0 12 1;
#X connect 14 0 29 0;
#X connect 15 0 9 0;
#X connect 16 0 1 0;
#X connect 16 1 4 0;
#X connect 16 2 6 0;
#X connect 16 3 8 0;
#X connect 18 0 11 0;
#X connect 19 0 17 0;
#X connect 20 0 17 0;
#X connect 21 0 17 0;
#X connect 22 0 17 0;
#X connect 23 0 28 0;
#X connect 24 0 27 0;
#X connect 25 0 26 0;
#X connect 26 0 23 0;
#X connect 27 0 23 0;
#X connect 28 0 15 0;
#X connect 28 0 32 0;
#X connect 29 0 13 0;
#X connect 30 0 10 0;
#X connect 30 1 31 0;
#X connect 33 0 30 1;
#X restore 97 91 pd hawk;
#N canvas 725 286 531 465 insects 0;
#X obj 148 140 oggread~;
#X obj 114 400 outlet~ L;
#X obj 219 415 outlet~ R;
#X obj 251 99 vsl 15 128 0 1 0 0 empty empty Volume 0 -9 0 10 -262144
-1 -1 0 1;
#X obj 121 201 *~;
#X obj 176 199 *~;
#X obj 374 111 loadbang;
#X obj 212 143 bng 15 250 50 0 empty empty empty 17 7 0 10 -262144
-1 -1;
#X obj 214 230 sig~;
#N canvas 810 485 628 319 loadFile 0;
#X obj 73 -4 loadbang;
#X obj 83 207 outlet;
#X obj 19 -6 inlet;
#X msg 211 112 open /Volumes/3rd_PROJECTS/2014/das_tal/unity/art_proto/Assets/StreamingAssets/sfx_amb_insects_00.ogg
;
#X msg 135 40 open /Users/Pippo/Desktop/unity/das_tal/Assets/StreamingAssets/sfx_amb_insects_00.ogg
;
#X connect 0 0 4 0;
#X connect 0 0 3 0;
#X connect 2 0 4 0;
#X connect 3 0 1 0;
#X connect 4 0 1 0;
#X restore 67 116 pd loadFile;
#X obj 69 92 bng 15 250 50 0 empty empty empty 17 7 0 10 -262144 -1
-1;
#X msg 152 98 1;
#X msg 190 97 stop;
#X floatatom 193 167 5 0 0 0 - - -;
#X text 303 27 Loops insect sound.;
#X obj 141 55 loadbang;
#X obj 313 70 r insects;
#X floatatom 312 89 5 0 0 0 - - -;
#X obj 302 116 min 0.9;
#X msg 327 154 0;
#N canvas 545 322 710 436 pan 0;
#X obj 204 295 *~;
#X obj 400 274 *~;
#X obj 401 123 hsl 128 15 0 1 0 0 empty empty empty -2 -8 0 10 -262144
-1 -1 0 1;
#X obj 405 208 sig~;
#X obj 222 253 sig~;
#X floatatom 448 170 5 0 0 0 - - -;
#X obj 254 219 expr 1-$f1;
#X obj 214 58 inlet~;
#X floatatom 398 69 5 0 0 0 - - -;
#X obj 391 39 r insects_pan;
#X obj 259 389 outlet~ R;
#X connect 1 0 10 0;
#X connect 2 0 3 0;
#X connect 2 0 5 0;
#X connect 2 0 6 0;
#X connect 3 0 1 1;
#X connect 4 0 0 1;
#X connect 6 0 4 0;
#X connect 7 0 0 0;
#X connect 7 0 1 0;
#X connect 8 0 2 0;
#X connect 9 0 8 0;
#X restore 207 320 pd pan;
#N canvas 434 327 705 380 panL 0;
#X obj 204 295 *~;
#X obj 400 274 *~;
#X obj 409 123 hsl 128 15 0 1 0 0 empty empty empty -2 -8 0 10 -262144
-1 -1 0 1;
#X obj 405 208 sig~;
#X obj 222 253 sig~;
#X floatatom 448 170 5 0 0 0 - - -;
#X obj 254 219 expr 1-$f1;
#X obj 214 58 inlet~;
#X obj 259 389 outlet~ L;
#X floatatom 402 70 5 0 0 0 - - -;
#X obj 395 40 r insects_pan;
#X connect 0 0 8 0;
#X connect 2 0 3 0;
#X connect 2 0 5 0;
#X connect 2 0 6 0;
#X connect 3 0 1 1;
#X connect 4 0 0 1;
#X connect 6 0 4 0;
#X connect 7 0 0 0;
#X connect 7 0 1 0;
#X connect 9 0 2 0;
#X connect 10 0 9 0;
#X restore 133 320 pd panL;
#X connect 0 0 4 0;
#X connect 0 1 5 0;
#X connect 0 2 13 0;
#X connect 0 3 7 0;
#X connect 3 0 8 0;
#X connect 4 0 21 0;
#X connect 5 0 20 0;
#X connect 6 0 19 0;
#X connect 7 0 11 0;
#X connect 8 0 5 1;
#X connect 8 0 4 1;
#X connect 9 0 0 0;
#X connect 10 0 9 0;
#X connect 11 0 0 0;
#X connect 12 0 0 0;
#X connect 15 0 11 0;
#X connect 16 0 17 0;
#X connect 17 0 18 0;
#X connect 18 0 3 0;
#X connect 19 0 3 0;
#X connect 20 0 2 0;
#X connect 21 0 1 0;
#X restore 229 96 pd insects;
#N canvas 521 290 521 440 jungle 0;
#X obj 148 140 oggread~;
#X obj 129 400 outlet~ L;
#X obj 211 400 outlet~ R;
#X obj 251 99 vsl 15 128 0 1 0 0 empty empty Volume 0 -9 0 10 -262144
-1 -1 0 1;
#X obj 121 201 *~;
#X obj 176 199 *~;
#X obj 331 111 loadbang;
#X obj 212 143 bng 15 250 50 0 empty empty empty 17 7 0 10 -262144
-1 -1;
#X obj 214 230 sig~;
#N canvas 972 522 450 300 loadFile 0;
#X obj 73 10 loadbang;
#X obj 83 207 outlet;
#X obj 19 8 inlet;
#X msg 79 122 open /Volumes/3rd_PROJECTS/2014/das_tal/unity/art_proto/Assets/StreamingAssets/sfx_amb_jungle_00.ogg
;
#X msg 71 52 open /Users/Pippo/Desktop/unity/das_tal/Assets/StreamingAssets/sfx_amb_jungle_00.ogg
;
#X connect 0 0 4 0;
#X connect 0 0 3 0;
#X connect 2 0 4 0;
#X connect 3 0 1 0;
#X connect 4 0 1 0;
#X restore 67 116 pd loadFile;
#X obj 69 92 bng 15 250 50 0 empty empty empty 17 7 0 10 -262144 -1
-1;
#X msg 152 98 1;
#X msg 190 97 stop;
#X floatatom 193 167 5 0 0 0 - - -;
#X text 303 27 Loops jungle sound.;
#X obj 353 203 r jungle_1;
#X floatatom 319 247 5 0 0 0 - - -;
#X obj 136 47 loadbang;
#X msg 327 154 0;
#N canvas 823 115 710 436 pan 0;
#X obj 204 295 *~;
#X obj 400 274 *~;
#X obj 401 123 hsl 128 15 0 1 0 0 empty empty empty -2 -8 0 10 -262144
-1 -1 0 1;
#X obj 405 208 sig~;
#X obj 222 253 sig~;
#X floatatom 448 170 5 0 0 0 - - -;
#X obj 254 219 expr 1-$f1;
#X obj 214 58 inlet~;
#X obj 259 389 outlet~ L;
#X floatatom 398 69 5 0 0 0 - - -;
#X obj 392 41 r jungle_1_pan;
#X connect 1 0 8 0;
#X connect 2 0 3 0;
#X connect 2 0 5 0;
#X connect 2 0 6 0;
#X connect 3 0 1 1;
#X connect 4 0 0 1;
#X connect 6 0 4 0;
#X connect 7 0 0 0;
#X connect 7 0 1 0;
#X connect 9 0 2 0;
#X connect 10 0 9 0;
#X restore 203 304 pd pan;
#N canvas 447 392 661 322 panL 0;
#X obj 204 295 *~;
#X obj 400 274 *~;
#X obj 409 123 hsl 128 15 0 1 0 0 empty empty empty -2 -8 0 10 -262144
-1 -1 0 1;
#X obj 405 208 sig~;
#X obj 222 253 sig~;
#X floatatom 448 170 5 0 0 0 - - -;
#X obj 254 219 expr 1-$f1;
#X obj 214 58 inlet~;
#X obj 259 389 outlet~ L;
#X floatatom 402 70 5 0 0 0 - - -;
#X obj 395 40 r jungle_1_pan;
#X connect 0 0 8 0;
#X connect 2 0 3 0;
#X connect 2 0 5 0;
#X connect 2 0 6 0;
#X connect 3 0 1 1;
#X connect 4 0 0 1;
#X connect 6 0 4 0;
#X connect 7 0 0 0;
#X connect 7 0 1 0;
#X connect 9 0 2 0;
#X connect 10 0 9 0;
#X restore 129 304 pd panL;
#X obj 370 266 max 0;
#X obj 123 350 *~ 0.3;
#X obj 215 352 *~ 0.3;
#X connect 0 0 4 0;
#X connect 0 1 5 0;
#X connect 0 2 13 0;
#X connect 0 3 7 0;
#X connect 3 0 8 0;
#X connect 4 0 20 0;
#X connect 5 0 19 0;
#X connect 6 0 18 0;
#X connect 7 0 11 0;
#X connect 8 0 5 1;
#X connect 8 0 4 1;
#X connect 9 0 0 0;
#X connect 10 0 9 0;
#X connect 11 0 0 0;
#X connect 12 0 0 0;
#X connect 15 0 16 0;
#X connect 16 0 3 0;
#X connect 17 0 11 0;
#X connect 18 0 3 0;
#X connect 19 0 23 0;
#X connect 20 0 22 0;
#X connect 22 0 1 0;
#X connect 23 0 2 0;
#X restore 322 94 pd jungle;
#N canvas 234 467 622 359 bubbles 0;
#X obj 148 140 oggread~;
#X obj 131 312 outlet~ L;
#X obj 213 312 outlet~ R;
#X obj 251 99 vsl 15 128 0 1 0 0 empty empty Volume 0 -9 0 10 -262144
-1 -1 0 1;
#X obj 121 201 *~;
#X obj 176 199 *~;
#X obj 371 59 loadbang;
#X obj 212 143 bng 15 250 50 0 empty empty empty 17 7 0 10 -262144
-1 -1;
#X obj 214 230 sig~;
#N canvas 810 485 628 319 loadFile 0;
#X obj 73 -4 loadbang;
#X obj 83 207 outlet;
#X obj 19 -6 inlet;
#X msg 135 40 open /Users/Pippo/Desktop/unity/das_tal/Assets/StreamingAssets/sfx_amb_bubbles_00.ogg
;
#X msg 160 113 open /Volumes/3rd_PROJECTS/2014/das_tal/unity/art_proto/Assets/StreamingAssets/sfx_amb_bubbles_00.ogg
;
#X connect 0 0 3 0;
#X connect 0 0 4 0;
#X connect 2 0 3 0;
#X connect 3 0 1 0;
#X connect 4 0 1 0;
#X restore 67 116 pd loadFile;
#X obj 69 92 bng 15 250 50 0 empty empty empty 17 7 0 10 -262144 -1
-1;
#X msg 152 98 1;
#X msg 190 97 stop;
#X floatatom 193 167 5 0 0 0 - - -;
#X text 303 27 Loops bubbles sound.;
#X msg 367 92 0;
#X obj 158 33 loadbang;
#X obj 325 124 r bubbles;
#X floatatom 315 179 5 0 0 0 - - -;
#N canvas 988 101 710 436 pan 0;
#X obj 204 295 *~;
#X obj 400 274 *~;
#X obj 401 123 hsl 128 15 0 1 0 0 empty empty empty -2 -8 0 10 -262144
-1 -1 0 1;
#X obj 405 208 sig~;
#X obj 222 253 sig~;
#X floatatom 448 170 5 0 0 0 - - -;
#X obj 254 219 expr 1-$f1;
#X obj 214 58 inlet~;
#X obj 259 389 outlet~ L;
#X floatatom 398 69 5 0 0 0 - - -;
#X obj 391 39 r bubbles_pan;
#X connect 1 0 8 0;
#X connect 2 0 3 0;
#X connect 2 0 5 0;
#X connect 2 0 6 0;
#X connect 3 0 1 1;
#X connect 4 0 0 1;
#X connect 6 0 4 0;
#X connect 7 0 0 0;
#X connect 7 0 1 0;
#X connect 9 0 2 0;
#X connect 10 0 9 0;
#X restore 196 273 pd pan;
#N canvas 515 389 730 372 panL 0;
#X obj 204 295 *~;
#X obj 400 274 *~;
#X obj 409 123 hsl 128 15 0 1 0 0 empty empty empty -2 -8 0 10 -262144
-1 -1 0 1;
#X obj 405 208 sig~;
#X obj 222 253 sig~;
#X floatatom 448 170 5 0 0 0 - - -;
#X obj 254 219 expr 1-$f1;
#X obj 214 58 inlet~;
#X obj 259 389 outlet~ L;
#X floatatom 402 70 5 0 0 0 - - -;
#X obj 395 40 r bubbles_pan;
#X connect 0 0 8 0;
#X connect 2 0 3 0;
#X connect 2 0 5 0;
#X connect 2 0 6 0;
#X connect 3 0 1 1;
#X connect 4 0 0 1;
#X connect 6 0 4 0;
#X connect 7 0 0 0;
#X connect 7 0 1 0;
#X connect 9 0 2 0;
#X connect 10 0 9 0;
#X restore 122 273 pd panL;
#X connect 0 0 4 0;
#X connect 0 1 5 0;
#X connect 0 2 13 0;
#X connect 0 3 7 0;
#X connect 3 0 8 0;
#X connect 4 0 20 0;
#X connect 5 0 19 0;
#X connect 6 0 15 0;
#X connect 7 0 11 0;
#X connect 8 0 5 1;
#X connect 8 0 4 1;
#X connect 9 0 0 0;
#X connect 10 0 9 0;
#X connect 11 0 0 0;
#X connect 12 0 0 0;
#X connect 15 0 3 0;
#X connect 16 0 11 0;
#X connect 17 0 18 0;
#X connect 18 0 3 0;
#X connect 19 0 2 0;
#X connect 20 0 1 0;
#X restore 411 93 pd bubbles;
#N canvas 364 192 844 488 nightstyle 0;
#X obj 148 140 oggread~;
#X obj 135 374 outlet~ L;
#X obj 217 374 outlet~ R;
#X obj 251 99 vsl 15 128 0 1 0 0 empty empty Volume 0 -9 0 10 -262144
-1 -1 0 1;
#X obj 121 201 *~;
#X obj 176 199 *~;
#X obj 356 114 loadbang;
#X obj 212 143 bng 15 250 50 0 empty empty empty 17 7 0 10 -262144
-1 -1;
#X obj 214 230 sig~;
#N canvas 972 522 450 300 loadFile 0;
#X obj 73 10 loadbang;
#X obj 83 207 outlet;
#X obj 19 8 inlet;
#X msg 71 52 open /Users/Pippo/Desktop/unity/das_tal/Assets/StreamingAssets/sfx_amb_nightstyle_00.ogg
;
#X msg 93 121 open /Volumes/3rd_PROJECTS/2014/das_tal/unity/art_proto/Assets/StreamingAssets/sfx_amb_nightstyle_00.ogg
;
#X connect 0 0 3 0;
#X connect 0 0 4 0;
#X connect 2 0 3 0;
#X connect 3 0 1 0;
#X connect 4 0 1 0;
#X restore 67 116 pd loadFile;
#X obj 69 92 bng 15 250 50 0 empty empty empty 17 7 0 10 -262144 -1
-1;
#X msg 152 98 1;
#X msg 190 97 stop;
#X floatatom 193 167 5 0 0 0 - - -;
#X obj 150 41 loadbang;
#X text 272 3 Loops nightstyle sound.;
#X obj 333 43 r nightstyle;
#X floatatom 335 68 5 0 0 0 - - -;
#X msg 328 154 0;
#N canvas 901 75 710 436 pan 0;
#X obj 204 295 *~;
#X obj 400 274 *~;
#X obj 401 123 hsl 128 15 0 1 0 0 empty empty empty -2 -8 0 10 -262144
-1 -1 0 1;
#X obj 405 208 sig~;
#X obj 222 253 sig~;
#X floatatom 448 170 5 0 0 0 - - -;
#X obj 254 219 expr 1-$f1;
#X obj 214 58 inlet~;
#X obj 259 389 outlet~ L;
#X floatatom 398 69 5 0 0 0 - - -;
#X obj 391 39 r nightstyle_pan;
#X connect 1 0 8 0;
#X connect 2 0 3 0;
#X connect 2 0 5 0;
#X connect 2 0 6 0;
#X connect 3 0 1 1;
#X connect 4 0 0 1;
#X connect 6 0 4 0;
#X connect 7 0 0 0;
#X connect 7 0 1 0;
#X connect 9 0 2 0;
#X connect 10 0 9 0;
#X restore 192 304 pd pan;
#N canvas 515 389 730 372 panL 0;
#X obj 204 295 *~;
#X obj 400 274 *~;
#X obj 409 123 hsl 128 15 0 1 0 0 empty empty empty -2 -8 0 10 -262144
-1 -1 0 1;
#X obj 405 208 sig~;
#X obj 222 253 sig~;
#X floatatom 448 170 5 0 0 0 - - -;
#X obj 254 219 expr 1-$f1;
#X obj 214 58 inlet~;
#X obj 259 389 outlet~ L;
#X floatatom 402 70 5 0 0 0 - - -;
#X obj 395 40 r nightstyle_pan;
#X connect 0 0 8 0;
#X connect 2 0 3 0;
#X connect 2 0 5 0;
#X connect 2 0 6 0;
#X connect 3 0 1 1;
#X connect 4 0 0 1;
#X connect 6 0 4 0;
#X connect 7 0 0 0;
#X connect 7 0 1 0;
#X connect 9 0 2 0;
#X connect 10 0 9 0;
#X restore 118 304 pd panL;
#X obj 117 344 *~ 0.5;
#X obj 200 342 *~ 0.5;
#X connect 0 0 4 0;
#X connect 0 1 5 0;
#X connect 0 2 13 0;
#X connect 0 3 7 0;
#X connect 3 0 8 0;
#X connect 4 0 20 0;
#X connect 5 0 19 0;
#X connect 6 0 18 0;
#X connect 7 0 11 0;
#X connect 8 0 5 1;
#X connect 8 0 4 1;
#X connect 9 0 0 0;
#X connect 10 0 9 0;
#X connect 11 0 0 0;
#X connect 12 0 0 0;
#X connect 14 0 11 0;
#X connect 16 0 17 0;
#X connect 17 0 3 0;
#X connect 18 0 3 0;
#X connect 19 0 22 0;
#X connect 20 0 21 0;
#X connect 21 0 1 0;
#X connect 22 0 2 0;
#X restore 504 92 pd nightstyle;
#N canvas 894 449 450 300 eerie 0;
#X obj 148 140 oggread~;
#X obj 131 262 outlet~ L;
#X obj 213 262 outlet~ R;
#X obj 251 99 vsl 15 128 0 1 0 0 empty empty Volume 0 -9 0 10 -262144
-1 -1 2794 1;
#X obj 121 201 *~;
#X obj 176 199 *~;
#X obj 331 111 loadbang;
#X obj 212 143 bng 15 250 50 0 empty empty empty 17 7 0 10 -262144
-1 -1;
#X obj 214 230 sig~;
#N canvas 972 522 450 300 loadFile 0;
#X obj 73 10 loadbang;
#X obj 83 207 outlet;
#X obj 19 8 inlet;
#X msg 71 52 open /Users/Pippo/Desktop/unity/das_tal/Assets/StreamingAssets/sfx_amb_eerie_00.ogg
;
#X msg 94 119 open /Volumes/3rd_PROJECTS/2014/das_tal/unity/art_proto/Assets/StreamingAssets/sfx_amb_eerie_00.ogg
;
#X connect 0 0 3 0;
#X connect 0 0 4 0;
#X connect 2 0 3 0;
#X connect 3 0 1 0;
#X connect 4 0 1 0;
#X restore 67 116 pd loadFile;
#X obj 69 92 bng 15 250 50 0 empty empty empty 17 7 0 10 -262144 -1
-1;
#X msg 152 98 1;
#X msg 190 97 stop;
#X floatatom 193 167 5 0 0 0 - - -;
#X msg 327 154 0.22;
#X text 303 27 Loops eerie sound.;
#X connect 0 0 4 0;
#X connect 0 1 5 0;
#X connect 0 2 13 0;
#X connect 0 3 7 0;
#X connect 3 0 8 0;
#X connect 4 0 1 0;
#X connect 5 0 2 0;
#X connect 6 0 14 0;
#X connect 7 0 11 0;
#X connect 8 0 5 1;
#X connect 8 0 4 1;
#X connect 9 0 0 0;
#X connect 10 0 9 0;
#X connect 11 0 0 0;
#X connect 12 0 0 0;
#X connect 14 0 3 0;
#X restore 603 94 pd eerie;
#X obj 40 24 r animalsOn;
#X obj 127 27 r animalsOff;
#X connect 2 0 0 0;
#X connect 2 1 1 0;
#X connect 3 0 0 0;
#X connect 3 1 1 0;
#X connect 4 0 0 0;
#X connect 4 1 1 0;
#X connect 5 0 0 0;
#X connect 5 1 1 0;
#X connect 6 0 0 0;
#X connect 6 1 1 0;
#X connect 7 0 0 0;
#X connect 7 1 1 0;
#X connect 8 0 0 0;
#X connect 8 1 1 0;
#X connect 9 0 0 0;
#X connect 9 1 1 0;
#X connect 10 0 2 0;
#X connect 10 0 4 0;
#X connect 11 0 2 1;
#X connect 11 0 4 1;
#X restore 176 80 pd recorded;
#N canvas 779 367 767 547 hiding_filter 0;
#X obj 226 274 lop~;
#X floatatom 93 201 5 0 0 0 - - -;
#X obj 92 28 r hide_time;
#X floatatom 98 51 5 0 0 0 - - -;
#X obj 93 91 t b f;
#X obj 126 164 - \$1;
#X floatatom 60 166 5 0 0 0 - - -;
#X obj 27 42 loadbang;
#X obj 27 95 1000;
#X obj 322 278 lop~;
#X obj 213 320 outlet~ L;
#X obj 326 323 outlet~ R;
#X obj 245 94 inlet~ L;
#X obj 317 90 inlet~ R;
#X obj 31 73 bng 15 250 50 0 empty empty empty 17 7 0 10 -262144 -1
-1;
#X floatatom 90 246 5 0 0 0 - - -;
#X obj 91 223 max 150;
#X obj 389 135 r hide;
#X obj 385 191 r unhide;
#X obj 399 156 bng 15 250 50 0 empty empty empty 17 7 0 10 -262144
-1 -1;
#X obj 389 213 bng 15 250 50 0 empty empty empty 17 7 0 10 -262144
-1 -1;
#X obj 76 70 * 2000;
#X floatatom 144 122 15 0 0 0 - - -;
#X connect 0 0 10 0;
#X connect 1 0 16 0;
#X connect 2 0 3 0;
#X connect 3 0 21 0;
#X connect 4 0 5 0;
#X connect 4 1 5 1;
#X connect 4 1 22 0;
#X connect 5 0 1 0;
#X connect 6 0 5 0;
#X connect 7 0 8 0;
#X connect 8 0 6 0;
#X connect 9 0 11 0;
#X connect 12 0 0 0;
#X connect 13 0 9 0;
#X connect 14 0 8 0;
#X connect 15 0 0 1;
#X connect 15 0 9 1;
#X connect 16 0 15 0;
#X connect 17 0 19 0;
#X connect 18 0 20 0;
#X connect 21 0 4 0;
#X restore 118 213 pd hiding_filter;
#N canvas 335 264 947 254 place_discovered 0;
#X obj 188 142 outlet~;
#X obj 261 109 *~;
#X obj 359 57 vsl 15 128 0 1 0 0 empty empty Vol. 0 -9 0 10 -262144
-1 -1 4191 1;
#X obj 488 69 loadbang;
#X obj 31 45 table place_discovered;
#X obj 570 65 soundfiler;
#X obj 573 -18 loadbang;
#X msg 573 25 read -resize sfx_place_discovered.wav place_discovered
;
#X obj 246 -11 r place_discovered;
#X obj 219 16 bng 15 250 50 0 empty empty empty 17 7 0 10 -262144 -1
-1;
#X obj 314 96 bng 15 250 50 0 empty empty empty 17 7 0 10 -262144 -1
-1;
#X obj 195 67 tabplay~ place_discovered;
#X msg 487 94 0.33;
#X connect 1 0 0 0;
#X connect 2 0 1 1;
#X connect 3 0 12 0;
#X connect 6 0 7 0;
#X connect 7 0 5 0;
#X connect 8 0 9 0;
#X connect 9 0 11 0;
#X connect 11 0 1 0;
#X connect 11 1 10 0;
#X connect 12 0 2 0;
#X restore 289 78 pd place_discovered;
#X connect 2 0 3 0;
#X connect 2 1 3 1;
#X connect 4 0 7 0;
#X connect 5 0 7 1;
#X connect 6 0 3 2;
#X connect 6 1 3 3;
#X connect 7 0 0 0;
#X connect 7 1 1 0;
#X connect 8 0 3 4;
#X restore 282 57 pd ambience;
#X msg 397 73 \; pd dsp 1;
#X obj 397 53 loadbang;
#X obj 76 222 print;
#X msg 475 111 \; pd dsp 0;
#X text 524 51 TO DO -- -npc footsteps -eerie ambience during hiding?
hiding fade in hiding instant! logarithmic rolloff for ambience;
#X obj 160 155 *~ 1;
#X obj 291 152 *~ 1;
#X obj 466 185 declare -path ../Data -path ../Effects -path ../Misc
-path ../Signal -path ../Sources -path ../Unity -path mx -path sfx
-path pip_drummachine -path pip_melodicsfx;
#X connect 1 0 2 0;
#X connect 4 0 5 0;
#X connect 4 0 0 0;
#X connect 4 1 5 0;
#X connect 4 1 0 1;
#X connect 5 0 6 0;
#X connect 9 0 10 2;
#X connect 9 1 10 3;
#X connect 10 0 17 0;
#X connect 10 1 18 0;
#X connect 11 0 10 4;
#X connect 11 1 10 5;
#X connect 13 0 12 0;
#X connect 17 0 4 0;
#X connect 18 0 4 1;
