#N struct 1023-symarray float x array symbols 1023-sym;
#N struct 1023-sym symbol name float on;
#N canvas 181 513 304 322 10;
#X declare -path ../Data -path ../Effects -path ../Misc -path ../Signal
-path ../Sources -path ../Unity -path mx -path sfx -path pip_drummachine
-path pip_melodicsfx -path ../Pip;
#X obj 94 278 dac~;
#N canvas 0 174 1313 795 sampleBank 0;
#X symbolatom -54 444 10 0 0 0 - - -;
#X obj 15 365 hradio 15 1 0 25 empty mybuttons empty 0 -8 0 10 -262144
-1 -1 13;
#X text 13 -128 Load Samples!;
#X obj -12 -131 bng 15 250 50 0 empty empty empty 17 7 0 10 -262144
-1 -1;
#X obj 141 441 print;
#X text 181 446 makes list of samples;
#X msg 146 388 dump;
#X text 185 388 triggers list creation;
#X obj 122 -126 bng 15 250 50 0 reset_samplebank empty empty 17 7 0
10 -262144 -1 -1;
#X text 147 -127 Reset bank!;
#N canvas 259 195 1218 871 sampleplayer 0;
#X obj 39 704 outlet~;
#X obj 271 35 inlet;
#X floatatom 207 61 5 0 0 0 - - -;
#X obj 338 48 select 0 1 2 3 4 5 6 7 8 9 10 11 12 13 14 15 16 17 18
19 20 21 22 23 24;
#X obj 28 130 tabplay~ $-2notes-0;
#X obj 33 162 tabplay~ $-2notes-1;
#X obj 40 188 tabplay~ $-2notes-2;
#X obj 62 209 tabplay~ $-2notes-3;
#X obj 84 232 tabplay~ $-2notes-4;
#X obj 86 257 tabplay~ $-2notes-5;
#X obj 112 282 tabplay~ $-2notes-6;
#X obj 142 310 tabplay~ $-2notes-7;
#X obj 146 333 tabplay~ $-2notes-8;
#X obj 139 361 tabplay~ $-2notes-9;
#X obj 143 391 tabplay~ $-2notes-10;
#X obj 156 417 tabplay~ $-2notes-11;
#X obj 163 445 tabplay~ $-2notes-12;
#X obj 178 474 tabplay~ $-2notes-13;
#X obj 183 506 tabplay~ $-2notes-14;
#X obj 190 532 tabplay~ $-2notes-15;
#X obj 212 553 tabplay~ $-2notes-16;
#X obj 234 576 tabplay~ $-2notes-17;
#X obj 236 601 tabplay~ $-2notes-18;
#X obj 262 626 tabplay~ $-2notes-19;
#X obj 276 649 tabplay~ $-2notes-20;
#X obj 298 677 tabplay~ $-2notes-21;
#X obj 290 705 tabplay~ $-2notes-22;
#X obj 293 735 tabplay~ $-2notes-23;
#X obj 306 761 tabplay~ $-2notes-24;
#X obj 304 787 tabplay~ $-2notes-25;
#X connect 1 0 2 0;
#X connect 1 0 3 0;
#X connect 3 0 4 0;
#X connect 3 1 5 0;
#X connect 3 2 6 0;
#X connect 3 3 7 0;
#X connect 3 4 8 0;
#X connect 3 5 9 0;
#X connect 3 6 10 0;
#X connect 3 7 11 0;
#X connect 3 8 12 0;
#X connect 3 9 13 0;
#X connect 3 10 14 0;
#X connect 3 11 15 0;
#X connect 3 12 16 0;
#X connect 3 13 17 0;
#X connect 3 14 18 0;
#X connect 3 15 19 0;
#X connect 3 16 20 0;
#X connect 3 17 21 0;
#X connect 3 18 22 0;
#X connect 3 19 23 0;
#X connect 3 20 24 0;
#X connect 3 21 25 0;
#X connect 3 22 26 0;
#X connect 3 23 27 0;
#X connect 3 24 28 0;
#X connect 3 25 29 0;
#X connect 4 0 0 0;
#X connect 5 0 0 0;
#X connect 6 0 0 0;
#X connect 7 0 0 0;
#X connect 8 0 0 0;
#X connect 9 0 0 0;
#X connect 10 0 0 0;
#X connect 11 0 0 0;
#X connect 12 0 0 0;
#X connect 13 0 0 0;
#X connect 14 0 0 0;
#X connect 15 0 0 0;
#X connect 16 0 0 0;
#X connect 17 0 0 0;
#X connect 18 0 0 0;
#X connect 19 0 0 0;
#X connect 20 0 0 0;
#X connect 21 0 0 0;
#X connect 22 0 0 0;
#X connect 23 0 0 0;
#X connect 24 0 0 0;
#X connect 25 0 0 0;
#X connect 26 0 0 0;
#X connect 27 0 0 0;
#X connect 28 0 0 0;
#X restore 16 479 pd sampleplayer;
#X text 358 -24 Always use these filenames;
#X obj 21 -148 loadbang;
#X obj 424 497 declare -path ../Data -path ../Effects -path ../Misc
-path ../Signal -path ../Sources -path ../Unity -path mx -path sfx
-path pip_drummachine -path pip_melodicsfx -path ../Pip;
#N canvas 139 432 450 300 spigots 0;
#X floatatom 47 231 5 0 0 0 - - -;
#X floatatom 97 231 5 0 0 0 - - -;
#X floatatom 152 231 5 0 0 0 - - -;
#X floatatom 211 233 5 0 0 0 - - -;
#X obj 39 290 spigot;
#X obj 67 259 tgl 15 0 empty empty empty 17 7 0 10 -262144 -1 -1 0
-1;
#X obj 86 290 spigot;
#X obj 114 259 tgl 15 0 empty empty empty 17 7 0 10 -262144 -1 -1 0
1;
#X obj 142 290 spigot;
#X obj 170 259 tgl 15 0 empty empty empty 17 7 0 10 -262144 -1 -1 0
1;
#X obj 192 289 spigot;
#X obj 220 258 tgl 15 0 empty empty empty 17 7 0 10 -262144 -1 -1 0
1;
#X obj 26 324 - 60;
#X connect 0 0 5 0;
#X connect 0 0 4 0;
#X connect 1 0 7 0;
#X connect 1 0 6 0;
#X connect 2 0 9 0;
#X connect 2 0 8 0;
#X connect 3 0 11 0;
#X connect 3 0 10 0;
#X connect 4 0 12 0;
#X connect 5 0 4 1;
#X connect 6 0 12 0;
#X connect 7 0 6 1;
#X connect 8 0 12 0;
#X connect 9 0 8 1;
#X connect 10 0 12 0;
#X connect 11 0 10 1;
#X restore 5 246 pd spigots;
#X obj 55 297 hsl 128 15 0 14 0 0 empty empty South -2 -8 0 10 -262144
-1 -1 3629 1;
#X obj 258 299 hsl 128 15 0 14 0 0 empty empty West -2 -8 0 10 -262144
-1 -1 11793 1;
#X obj 92 247 inlet south;
#X obj 274 248 inlet west;
#X obj 14 577 outlet~;
#X obj 122 502 r randomVol;
#X obj 65 531 r scaleVol;
#X obj 9 523 *~ 1;
#X obj 12 552 *~ 1;
#X obj -6 414 u_multisamplebank $-2notes;
#X msg -20 -93 open sfx_chimes_west_hard_00.wav 0 \, open sfx_chimes_west_hard_01.wav
1 \, open sfx_chimes_west_hard_02.wav 2 \, open sfx_chimes_west_hard_03.wav
3 \, open sfx_chimes_west_hard_04.wav 4 \, open sfx_chimes_west_soft_00.wav
5 \, open sfx_chimes_west_soft_01.wav 6 \, open sfx_chimes_west_soft_02.wav
7 \, open sfx_chimes_west_soft_03.wav 8 \, open sfx_chimes_west_soft_04.wav
9 \, open sfx_chimes_west_soft_05.wav 10 \, open sfx_chimes_west_soft_06.wav
11 \, open sfx_chimes_west_soft_07.wav 12 \, open sfx_chimes_west_soft_08.wav
13 \, open sfx_chimes_west_soft_09.wav 14 \, open sfx_chimes_west_soft_10.wav
15 \, open sfx_chimes_west_soft_11.wav 16 \, open sfx_chimes_west_soft_12.wav
17 \, open sfx_chimes_west_soft_13.wav 18 \, open sfx_chimes_west_soft_14.wav
19 \, open sfx_chimes_west_soft_15.wav 20 \, open sfx_chimes_west_soft_16.wav
21 \, open sfx_chimes_west_soft_17.wav 21 \, open 23.wav 22 \, open
24.wav 23 \, open 25.wav 24 \, open 26.wav 25;
#X connect 1 0 10 0;
#X connect 1 0 24 0;
#X connect 3 0 25 0;
#X connect 6 0 24 1;
#X connect 10 0 22 0;
#X connect 12 0 3 0;
#X connect 15 0 1 0;
#X connect 16 0 1 0;
#X connect 17 0 15 0;
#X connect 18 0 16 0;
#X connect 20 0 22 1;
#X connect 21 0 23 1;
#X connect 22 0 23 0;
#X connect 23 0 19 0;
#X connect 24 0 0 0;
#X connect 24 1 4 0;
#X connect 25 0 24 0;
#X restore 109 187 pd sampleBank;
#N canvas 530 352 960 507 random 0;
#X obj 204 166 bng 15 250 50 0 empty empty empty 17 7 0 10 -262144
-1 -1;
#X obj 199 132 t b b;
#X obj 154 115 bng 15 250 50 0 empty empty empty 17 7 0 10 -262144
-1 -1;
#X obj 153 19 tgl 15 0 empty empty empty 17 7 0 10 -262144 -1 -1 1
1;
#X obj 36 251 outlet;
#X obj 452 -35 inlet;
#X floatatom 221 213 5 0 0 0 - - -;
#X obj 313 221 / 10;
#X floatatom 312 250 5 0 0 0 - - -;
#X obj 317 344 s randomVol;
#X obj 335 277 max 0.7;
#X floatatom 307 29 5 0 0 0 - - -;
#X obj 731 280 s scaleVol;
#X floatatom 438 39 5 0 0 0 - - -;
#X obj 479 74 / 100;
#X floatatom 482 106 5 0 0 0 - - -;
#X obj 489 136 / 6;
#X floatatom 485 173 5 0 0 0 - - -;
#X obj 491 211 / 10;
#X floatatom 494 263 5 0 0 0 - - -;
#X floatatom 544 320 5 0 0 0 - - -;
#X floatatom 679 295 5 0 0 0 - - -;
#X obj 614 275 max 0.8;
#X obj 171 -9 loadbang;
#N canvas 621 372 511 438 random 0;
#X obj 90 40 inlet;
#X obj 90 64 bng 15 250 50 0 empty empty empty 17 7 0 10 -262144 -1
-1;
#X obj 189 180 f;
#X obj 173 217 ==;
#X obj 91 281 f;
#X obj 92 308 sel 0;
#X obj 170 309 sel 1;
#X obj 92 338 f;
#X obj 92 385 outlet;
#X obj 99 144 trigger bang float bang float;
#X floatatom 166 387 5 0 0 0 - - -;
#X text 194 38 Define number range;
#X text 204 387 Test output;
#X text 37 37 Trigger;
#X text 37 14 Prevents a random number to repeat consecutively.;
#X text 330 400 pip;
#X obj 91 105 random 25;
#X connect 0 0 1 0;
#X connect 1 0 16 0;
#X connect 2 0 3 0;
#X connect 3 0 4 1;
#X connect 4 0 5 0;
#X connect 4 0 6 0;
#X connect 5 0 7 0;
#X connect 6 0 16 0;
#X connect 7 0 8 0;
#X connect 7 0 10 0;
#X connect 9 0 4 0;
#X connect 9 1 2 1;
#X connect 9 2 2 0;
#X connect 9 3 7 1;
#X connect 9 3 3 1;
#X connect 16 0 9 0;
#X restore 306 190 pd random 25;
#N canvas 621 372 511 438 random 0;
#X obj 90 40 inlet;
#X obj 90 64 bng 15 250 50 0 empty empty empty 17 7 0 10 -262144 -1
-1;
#X obj 189 180 f;
#X obj 173 217 ==;
#X obj 91 281 f;
#X obj 92 308 sel 0;
#X obj 170 309 sel 1;
#X obj 92 338 f;
#X obj 92 385 outlet;
#X obj 99 144 trigger bang float bang float;
#X floatatom 166 387 5 0 0 0 - - -;
#X text 194 38 Define number range;
#X text 204 387 Test output;
#X text 37 37 Trigger;
#X text 37 14 Prevents a random number to repeat consecutively.;
#X text 330 400 pip;
#X obj 90 104 random 15;
#X connect 0 0 1 0;
#X connect 1 0 16 0;
#X connect 2 0 3 0;
#X connect 3 0 4 1;
#X connect 4 0 5 0;
#X connect 4 0 6 0;
#X connect 5 0 7 0;
#X connect 6 0 16 0;
#X connect 7 0 8 0;
#X connect 7 0 10 0;
#X connect 9 0 4 0;
#X connect 9 1 2 1;
#X connect 9 2 2 0;
#X connect 9 3 7 1;
#X connect 9 3 3 1;
#X connect 16 0 9 0;
#X restore 208 186 pd random 15;
#X floatatom 293 101 5 0 0 0 - - -;
#X obj 107 63 bng 15 250 50 0 empty empty empty 17 7 0 10 -262144 -1
-1;
#X obj 173 91 delay;
#X obj 279 141 max 300;
#X floatatom 289 165 5 0 0 0 - - -;
#X obj 168 57 metro 1000;
#N canvas 3253 277 511 438 random 1;
#X obj 90 40 inlet;
#X obj 90 64 bng 15 250 50 0 empty empty empty 17 7 0 10 -262144 -1
-1;
#X obj 189 180 f;
#X obj 173 217 ==;
#X obj 91 281 f;
#X obj 92 308 sel 0;
#X obj 170 309 sel 1;
#X obj 92 338 f;
#X obj 92 385 outlet;
#X obj 99 144 trigger bang float bang float;
#X floatatom 166 387 5 0 0 0 - - -;
#X text 194 38 Define number range;
#X text 204 387 Test output;
#X text 37 37 Trigger;
#X text 37 14 Prevents a random number to repeat consecutively.;
#X text 330 400 pip;
#X obj 160 41 inlet;
#X floatatom 194 107 5 0 0 0 - - -;
#X obj 99 102 random 111;
#X connect 0 0 1 0;
#X connect 1 0 18 0;
#X connect 2 0 3 0;
#X connect 3 0 4 1;
#X connect 4 0 5 0;
#X connect 4 0 6 0;
#X connect 5 0 7 0;
#X connect 6 0 18 0;
#X connect 7 0 8 0;
#X connect 7 0 10 0;
#X connect 9 0 4 0;
#X connect 9 1 2 1;
#X connect 9 2 2 0;
#X connect 9 3 7 1;
#X connect 9 3 3 1;
#X connect 16 0 18 1;
#X connect 18 0 9 0;
#X restore 323 78 pd random delay;
#N canvas 635 469 511 438 random 0;
#X obj 90 40 inlet;
#X obj 90 64 bng 15 250 50 0 empty empty empty 17 7 0 10 -262144 -1
-1;
#X obj 189 180 f;
#X obj 173 217 ==;
#X obj 91 281 f;
#X obj 92 308 sel 0;
#X obj 170 309 sel 1;
#X obj 92 338 f;
#X obj 92 385 outlet;
#X obj 99 144 trigger bang float bang float;
#X floatatom 166 387 5 0 0 0 - - -;
#X text 194 38 Define number range;
#X text 204 387 Test output;
#X text 37 37 Trigger;
#X text 37 14 Prevents a random number to repeat consecutively.;
#X text 330 400 pip;
#X obj 160 41 inlet;
#X floatatom 194 107 5 0 0 0 - - -;
#X obj 99 102 random 2000;
#X connect 0 0 1 0;
#X connect 1 0 18 0;
#X connect 2 0 3 0;
#X connect 3 0 4 1;
#X connect 4 0 5 0;
#X connect 4 0 6 0;
#X connect 5 0 7 0;
#X connect 6 0 18 0;
#X connect 7 0 8 0;
#X connect 7 0 10 0;
#X connect 9 0 4 0;
#X connect 9 1 2 1;
#X connect 9 2 2 0;
#X connect 9 3 7 1;
#X connect 9 3 3 1;
#X connect 16 0 18 1;
#X connect 18 0 9 0;
#X restore 343 106 pd random time;
#X floatatom 347 134 5 0 0 0 - - -;
#X obj 347 159 max 750;
#N canvas 862 551 786 415 delayer 0;
#X obj 130 189 delay 100;
#X obj 265 195 delay 500;
#X obj 188 78 random 200;
#X obj 193 107 max 50;
#X obj 63 12 inlet;
#X obj 315 79 random 500;
#X obj 320 108 max 210;
#X obj 67 44 bang;
#X floatatom 322 139 5 0 0 0 - - -;
#X floatatom 199 140 5 0 0 0 - - -;
#X obj 49 369 outlet;
#X obj 217 379 outlet;
#X obj 52 334 spigot;
#X obj 47 310 tgl 15 0 empty empty empty 17 7 0 10 -262144 -1 -1 1
1;
#X obj 32 206 random 3;
#X floatatom 32 225 5 0 0 0 - - -;
#X obj 23 244 sel 0 1 2;
#X msg 24 272 0;
#X msg 63 274 1;
#X obj 210 346 spigot;
#X obj 205 322 tgl 15 0 empty empty empty 17 7 0 10 -262144 -1 -1 0
1;
#X floatatom 190 237 5 0 0 0 - - -;
#X msg 182 284 0;
#X msg 221 286 1;
#X obj 190 218 random 5;
#X obj 181 256 sel 0 1 2 3 4;
#X connect 0 0 12 0;
#X connect 1 0 19 0;
#X connect 2 0 3 0;
#X connect 3 0 0 1;
#X connect 3 0 9 0;
#X connect 4 0 7 0;
#X connect 5 0 6 0;
#X connect 6 0 8 0;
#X connect 7 0 2 0;
#X connect 7 0 5 0;
#X connect 7 0 0 0;
#X connect 7 0 1 0;
#X connect 7 0 14 0;
#X connect 7 0 24 0;
#X connect 8 0 1 1;
#X connect 12 0 10 0;
#X connect 13 0 12 1;
#X connect 14 0 15 0;
#X connect 15 0 16 0;
#X connect 16 0 17 0;
#X connect 16 1 17 0;
#X connect 16 2 18 0;
#X connect 17 0 13 0;
#X connect 18 0 13 0;
#X connect 19 0 11 0;
#X connect 20 0 19 1;
#X connect 21 0 25 0;
#X connect 22 0 20 0;
#X connect 23 0 20 0;
#X connect 24 0 21 0;
#X connect 25 0 22 0;
#X connect 25 1 22 0;
#X connect 25 2 23 0;
#X connect 25 3 22 0;
#X connect 25 4 22 0;
#X restore 150 334 pd delayer;
#X obj 108 425 outlet;
#X obj 174 423 outlet;
#N canvas 621 372 511 438 random 0;
#X obj 90 40 inlet;
#X obj 90 64 bng 15 250 50 0 empty empty empty 17 7 0 10 -262144 -1
-1;
#X obj 189 180 f;
#X obj 173 217 ==;
#X obj 91 281 f;
#X obj 92 308 sel 0;
#X obj 170 309 sel 1;
#X obj 92 338 f;
#X obj 92 385 outlet;
#X obj 99 144 trigger bang float bang float;
#X floatatom 166 387 5 0 0 0 - - -;
#X text 194 38 Define number range;
#X text 204 387 Test output;
#X text 37 37 Trigger;
#X text 37 14 Prevents a random number to repeat consecutively.;
#X text 330 400 pip;
#X obj 90 104 random 15;
#X connect 0 0 1 0;
#X connect 1 0 16 0;
#X connect 2 0 3 0;
#X connect 3 0 4 1;
#X connect 4 0 5 0;
#X connect 4 0 6 0;
#X connect 5 0 7 0;
#X connect 6 0 16 0;
#X connect 7 0 8 0;
#X connect 7 0 10 0;
#X connect 9 0 4 0;
#X connect 9 1 2 1;
#X connect 9 2 2 0;
#X connect 9 3 7 1;
#X connect 9 3 3 1;
#X connect 16 0 9 0;
#X restore 176 381 pd random 15;
#X floatatom 216 404 5 0 0 0 - - -;
#N canvas 621 372 511 438 random 0;
#X obj 90 40 inlet;
#X obj 90 64 bng 15 250 50 0 empty empty empty 17 7 0 10 -262144 -1
-1;
#X obj 189 180 f;
#X obj 173 217 ==;
#X obj 91 281 f;
#X obj 92 308 sel 0;
#X obj 170 309 sel 1;
#X obj 92 338 f;
#X obj 92 385 outlet;
#X obj 99 144 trigger bang float bang float;
#X floatatom 166 387 5 0 0 0 - - -;
#X text 194 38 Define number range;
#X text 204 387 Test output;
#X text 37 37 Trigger;
#X text 37 14 Prevents a random number to repeat consecutively.;
#X text 330 400 pip;
#X obj 90 104 random 15;
#X connect 0 0 1 0;
#X connect 1 0 16 0;
#X connect 2 0 3 0;
#X connect 3 0 4 1;
#X connect 4 0 5 0;
#X connect 4 0 6 0;
#X connect 5 0 7 0;
#X connect 6 0 16 0;
#X connect 7 0 8 0;
#X connect 7 0 10 0;
#X connect 9 0 4 0;
#X connect 9 1 2 1;
#X connect 9 2 2 0;
#X connect 9 3 7 1;
#X connect 9 3 3 1;
#X connect 16 0 9 0;
#X restore 50 376 pd random 15;
#X floatatom 90 399 5 0 0 0 - - -;
#X connect 0 0 25 0;
#X connect 0 0 24 0;
#X connect 1 0 0 0;
#X connect 2 0 1 0;
#X connect 3 0 31 0;
#X connect 5 0 11 0;
#X connect 5 0 13 0;
#X connect 5 0 32 1;
#X connect 5 0 33 1;
#X connect 7 0 8 0;
#X connect 8 0 10 0;
#X connect 10 0 9 0;
#X connect 11 0 29 1;
#X connect 13 0 14 0;
#X connect 14 0 15 0;
#X connect 15 0 16 0;
#X connect 16 0 17 0;
#X connect 17 0 18 0;
#X connect 18 0 19 0;
#X connect 19 0 22 0;
#X connect 21 0 12 0;
#X connect 22 0 21 0;
#X connect 23 0 3 0;
#X connect 24 0 7 0;
#X connect 25 0 4 0;
#X connect 25 0 6 0;
#X connect 25 0 36 0;
#X connect 26 0 29 0;
#X connect 28 0 2 0;
#X connect 29 0 28 1;
#X connect 29 0 30 0;
#X connect 31 0 32 0;
#X connect 31 0 27 0;
#X connect 31 0 28 0;
#X connect 31 0 33 0;
#X connect 32 0 26 0;
#X connect 33 0 34 0;
#X connect 34 0 35 0;
#X connect 35 0 31 1;
#X connect 36 0 41 0;
#X connect 36 1 39 0;
#X connect 39 0 38 0;
#X connect 39 0 40 0;
#X connect 41 0 42 0;
#X connect 41 0 37 0;
#X restore 48 131 pd random;
#X obj 116 62 hsl 128 15 500 5 0 0 empty empty Wind_Strength -2 -8
0 10 -262144 -1 -1 4400 1;
#X floatatom 224 94 5 0 0 0 - - -;
#X obj 51 22 loadbang;
#X msg 51 45 4500;
#X connect 1 0 0 0;
#X connect 1 0 0 1;
#X connect 2 0 1 0;
#X connect 2 1 1 1;
#X connect 2 2 1 0;
#X connect 3 0 2 0;
#X connect 3 0 4 0;
#X connect 5 0 6 0;
#X connect 6 0 3 0;
