#N struct 1004-symarray float x array symbols 1004-sym;
#N struct 1004-sym symbol name float on;
#N canvas 738 265 267 298 10;
#X declare -path ../Data -path ../Effects -path ../Misc -path ../Signal
-path ../Sources -path ../Unity -path mx -path sfx -path pip_drummachine
-path pip_melodicsfx -path ../Pip;
#X obj 84 268 dac~;
#N canvas 0 174 1313 795 sampleBank 0;
#X symbolatom -54 444 10 0 0 0 - - -;
#X obj 15 365 hradio 15 1 0 25 empty mybuttons empty 0 -8 0 10 -262144
-1 -1 12;
#X obj -6 414 u_multisamplebank $-notes;
#X text 13 -128 Load Samples!;
#X obj -12 -131 bng 15 250 50 0 empty empty empty 17 7 0 10 -262144
-1 -1;
#X obj 141 441 print;
#X text 181 446 makes list of samples;
#X msg 146 388 dump;
#X text 185 388 triggers list creation;
#X obj 122 -126 bng 15 250 50 0 reset_samplebank empty empty 17 7 0
10 -262144 -1 -1;
#X text 147 -127 Reset bank!;
#N canvas 259 195 1218 871 sampleplayer 0;
#X obj 39 704 outlet~;
#X obj 271 35 inlet;
#X obj 33 162 tabplay~ $-notes-1;
#X obj 40 188 tabplay~ $-notes-2;
#X obj 62 209 tabplay~ $-notes-3;
#X obj 84 232 tabplay~ $-notes-4;
#X obj 86 257 tabplay~ $-notes-5;
#X floatatom 207 61 5 0 0 0 - - -;
#X obj 112 282 tabplay~ $-notes-6;
#X obj 142 310 tabplay~ $-notes-7;
#X obj 146 333 tabplay~ $-notes-8;
#X obj 139 361 tabplay~ $-notes-9;
#X obj 143 391 tabplay~ $-notes-10;
#X obj 156 417 tabplay~ $-notes-11;
#X obj 163 445 tabplay~ $-notes-12;
#X obj 28 130 tabplay~ $-notes-0;
#X obj 338 48 select 0 1 2 3 4 5 6 7 8 9 10 11 12 13 14 15 16 17 18
19 20 21 22 23 24;
#X obj 178 474 tabplay~ $-notes-13;
#X obj 183 506 tabplay~ $-notes-14;
#X obj 190 532 tabplay~ $-notes-15;
#X obj 212 553 tabplay~ $-notes-16;
#X obj 234 576 tabplay~ $-notes-17;
#X obj 236 601 tabplay~ $-notes-18;
#X obj 262 626 tabplay~ $-notes-19;
#X obj 276 649 tabplay~ $-notes-20;
#X obj 296 677 tabplay~ $-notes-21;
#X obj 289 705 tabplay~ $-notes-22;
#X obj 293 735 tabplay~ $-notes-23;
#X obj 306 761 tabplay~ $-notes-24;
#X obj 304 787 tabplay~ $-notes-25;
#X connect 1 0 7 0;
#X connect 1 0 16 0;
#X connect 2 0 0 0;
#X connect 3 0 0 0;
#X connect 4 0 0 0;
#X connect 5 0 0 0;
#X connect 6 0 0 0;
#X connect 8 0 0 0;
#X connect 9 0 0 0;
#X connect 10 0 0 0;
#X connect 11 0 0 0;
#X connect 12 0 0 0;
#X connect 13 0 0 0;
#X connect 14 0 0 0;
#X connect 15 0 0 0;
#X connect 16 0 15 0;
#X connect 16 1 2 0;
#X connect 16 2 3 0;
#X connect 16 3 4 0;
#X connect 16 4 5 0;
#X connect 16 5 6 0;
#X connect 16 6 8 0;
#X connect 16 7 9 0;
#X connect 16 8 10 0;
#X connect 16 9 11 0;
#X connect 16 10 12 0;
#X connect 16 11 13 0;
#X connect 16 12 14 0;
#X connect 16 13 17 0;
#X connect 16 14 18 0;
#X connect 16 15 19 0;
#X connect 16 16 20 0;
#X connect 16 17 21 0;
#X connect 16 18 22 0;
#X connect 16 19 23 0;
#X connect 16 20 24 0;
#X connect 16 21 25 0;
#X connect 16 22 26 0;
#X connect 16 23 27 0;
#X connect 16 24 28 0;
#X connect 16 25 29 0;
#X connect 17 0 0 0;
#X connect 18 0 0 0;
#X connect 19 0 0 0;
#X connect 20 0 0 0;
#X connect 21 0 0 0;
#X connect 22 0 0 0;
#X connect 23 0 0 0;
#X connect 24 0 0 0;
#X connect 25 0 0 0;
#X connect 26 0 0 0;
#X connect 27 0 0 0;
#X connect 28 0 0 0;
#X restore 16 479 pd sampleplayer;
#X text 358 -24 Always use these filenames;
#X obj 21 -148 loadbang;
#X obj 424 497 declare -path ../Data -path ../Effects -path ../Misc
-path ../Signal -path ../Sources -path ../Unity -path mx -path sfx
-path pip_drummachine -path pip_melodicsfx -path ../Pip;
#N canvas 139 432 450 300 spigots 0;
#X floatatom 47 231 5 0 0 0 - - -;
#X floatatom 97 231 5 0 0 0 - - -;
#X floatatom 152 231 5 0 0 0 - - -;
#X floatatom 211 233 5 0 0 0 - - -;
#X obj 39 290 spigot;
#X obj 67 259 tgl 15 0 empty empty empty 17 7 0 10 -262144 -1 -1 0
-1;
#X obj 86 290 spigot;
#X obj 114 259 tgl 15 0 empty empty empty 17 7 0 10 -262144 -1 -1 0
1;
#X obj 142 290 spigot;
#X obj 170 259 tgl 15 0 empty empty empty 17 7 0 10 -262144 -1 -1 0
1;
#X obj 192 289 spigot;
#X obj 220 258 tgl 15 0 empty empty empty 17 7 0 10 -262144 -1 -1 0
1;
#X obj 26 324 - 60;
#X connect 0 0 5 0;
#X connect 0 0 4 0;
#X connect 1 0 7 0;
#X connect 1 0 6 0;
#X connect 2 0 9 0;
#X connect 2 0 8 0;
#X connect 3 0 11 0;
#X connect 3 0 10 0;
#X connect 4 0 12 0;
#X connect 5 0 4 1;
#X connect 6 0 12 0;
#X connect 7 0 6 1;
#X connect 8 0 12 0;
#X connect 9 0 8 1;
#X connect 10 0 12 0;
#X connect 11 0 10 1;
#X restore 5 246 pd spigots;
#X obj 55 297 hsl 128 15 0 18 0 0 empty empty South -2 -8 0 10 -262144
-1 -1 9172 1;
#X obj 258 299 hsl 128 15 0 18 0 0 empty empty West -2 -8 0 10 -262144
-1 -1 12700 1;
#X obj 92 247 inlet south;
#X obj 274 248 inlet west;
#X obj 14 577 outlet~;
#X obj 122 502 r randomVol;
#X obj 65 531 r scaleVol;
#X msg -20 -93 open sfx_chimes_south_hard_00.wav 0 \, open sfx_chimes_south_hard_01.wav
1 \, open sfx_chimes_south_hard_02.wav 2 \, open sfx_chimes_south_hard_03.wav
3 \, open sfx_chimes_south_hard_04.wav 4 \, open sfx_chimes_south_soft_00.wav
5 \, open sfx_chimes_south_soft_01.wav 6 \, open sfx_chimes_south_soft_02.wav
7 \, open sfx_chimes_south_soft_03.wav 8 \, open sfx_chimes_south_soft_04.wav
9 \, open sfx_chimes_south_soft_05.wav 10 \, open sfx_chimes_south_soft_06.wav
11 \, open sfx_chimes_south_soft_07.wav 12 \, open sfx_chimes_south_soft_08.wav
13 \, open sfx_chimes_south_soft_09.wav 14 \, open sfx_chimes_south_soft_10.wav
15 \, open sfx_chimes_south_soft_11.wav 16 \, open sfx_chimes_south_soft_12.wav
17 \, open sfx_chimes_south_soft_13.wav 18 \, open sfx_chimes_south_soft_14.wav
19 \, open sfx_chimes_south_soft_15.wav 20 \, open sfx_chimes_south_soft_16.wav
21 \, open sfx_chimes_south_soft_17.wav 21 \, open 23.wav 22 \, open
24.wav 23 \, open 25.wav 24 \, open 26.wav 25;
#X obj 9 523 *~ 1;
#X obj 12 552 *~ 1;
#X connect 1 0 2 0;
#X connect 1 0 11 0;
#X connect 2 0 0 0;
#X connect 2 1 5 0;
#X connect 4 0 23 0;
#X connect 7 0 2 1;
#X connect 11 0 24 0;
#X connect 13 0 4 0;
#X connect 16 0 1 0;
#X connect 17 0 1 0;
#X connect 18 0 16 0;
#X connect 19 0 17 0;
#X connect 23 0 2 0;
#X connect 24 0 25 0;
#X connect 25 0 20 0;
#X restore 99 177 pd sampleBank;
#N canvas 0 202 960 507 random 0;
#X obj 204 166 bng 15 250 50 0 empty empty empty 17 7 0 10 -262144
-1 -1;
#N canvas 621 372 511 438 random 0;
#X obj 90 40 inlet;
#X obj 90 64 bng 15 250 50 0 empty empty empty 17 7 0 10 -262144 -1
-1;
#X obj 189 180 f;
#X obj 173 217 ==;
#X obj 91 281 f;
#X obj 92 308 sel 0;
#X obj 170 309 sel 1;
#X obj 92 338 f;
#X obj 92 385 outlet;
#X obj 99 144 trigger bang float bang float;
#X floatatom 166 387 5 0 0 0 - - -;
#X text 194 38 Define number range;
#X text 204 387 Test output;
#X text 37 37 Trigger;
#X text 37 14 Prevents a random number to repeat consecutively.;
#X text 330 400 pip;
#X obj 90 104 random 25;
#X connect 0 0 1 0;
#X connect 1 0 16 0;
#X connect 2 0 3 0;
#X connect 3 0 4 1;
#X connect 4 0 5 0;
#X connect 4 0 6 0;
#X connect 5 0 7 0;
#X connect 6 0 16 0;
#X connect 7 0 8 0;
#X connect 7 0 10 0;
#X connect 9 0 4 0;
#X connect 9 1 2 1;
#X connect 9 2 2 0;
#X connect 9 3 7 1;
#X connect 9 3 3 1;
#X connect 16 0 9 0;
#X restore 206 186 pd random 10;
#X obj 199 132 t b b;
#X obj 173 118 bng 15 250 50 0 empty empty empty 17 7 0 10 -262144
-1 -1;
#X obj 173 91 delay \$1;
#X obj 153 19 tgl 15 0 empty empty empty 17 7 0 10 -262144 -1 -1 1
1;
#X obj 154 241 outlet;
#X obj 452 -35 inlet;
#X floatatom 221 213 5 0 0 0 - - -;
#X obj 313 221 / 10;
#X floatatom 312 250 5 0 0 0 - - -;
#X obj 317 344 s randomVol;
#X obj 168 57 metro 5000;
#X obj 335 277 max 0.7;
#X floatatom 307 29 5 0 0 0 - - -;
#X obj 731 280 s scaleVol;
#X floatatom 438 39 5 0 0 0 - - -;
#X obj 479 74 / 100;
#X floatatom 482 106 5 0 0 0 - - -;
#X obj 489 136 / 6;
#X floatatom 485 173 5 0 0 0 - - -;
#X obj 491 211 / 10;
#X floatatom 494 263 5 0 0 0 - - -;
#X floatatom 544 320 5 0 0 0 - - -;
#X floatatom 679 295 5 0 0 0 - - -;
#X obj 614 275 max 0.8;
#N canvas 621 372 511 438 random 0;
#X obj 90 40 inlet;
#X obj 90 64 bng 15 250 50 0 empty empty empty 17 7 0 10 -262144 -1
-1;
#X obj 189 180 f;
#X obj 173 217 ==;
#X obj 91 281 f;
#X obj 92 308 sel 0;
#X obj 170 309 sel 1;
#X obj 92 338 f;
#X obj 92 385 outlet;
#X obj 99 144 trigger bang float bang float;
#X floatatom 166 387 5 0 0 0 - - -;
#X text 194 38 Define number range;
#X text 204 387 Test output;
#X text 37 37 Trigger;
#X text 37 14 Prevents a random number to repeat consecutively.;
#X text 330 400 pip;
#X obj 91 104 random 200;
#X connect 0 0 1 0;
#X connect 1 0 16 0;
#X connect 2 0 3 0;
#X connect 3 0 4 1;
#X connect 4 0 5 0;
#X connect 4 0 6 0;
#X connect 5 0 7 0;
#X connect 6 0 16 0;
#X connect 7 0 8 0;
#X connect 7 0 10 0;
#X connect 9 0 4 0;
#X connect 9 1 2 1;
#X connect 9 2 2 0;
#X connect 9 3 7 1;
#X connect 9 3 3 1;
#X connect 16 0 9 0;
#X restore 317 84 pd random 6000;
#X obj 312 117 max 4000;
#X obj 171 -9 loadbang;
#N canvas 621 372 511 438 random 0;
#X obj 90 40 inlet;
#X obj 90 64 bng 15 250 50 0 empty empty empty 17 7 0 10 -262144 -1
-1;
#X obj 189 180 f;
#X obj 173 217 ==;
#X obj 91 281 f;
#X obj 92 308 sel 0;
#X obj 170 309 sel 1;
#X obj 92 338 f;
#X obj 92 385 outlet;
#X obj 99 144 trigger bang float bang float;
#X floatatom 166 387 5 0 0 0 - - -;
#X text 194 38 Define number range;
#X text 204 387 Test output;
#X text 37 37 Trigger;
#X text 37 14 Prevents a random number to repeat consecutively.;
#X text 330 400 pip;
#X obj 91 105 random 25;
#X connect 0 0 1 0;
#X connect 1 0 16 0;
#X connect 2 0 3 0;
#X connect 3 0 4 1;
#X connect 4 0 5 0;
#X connect 4 0 6 0;
#X connect 5 0 7 0;
#X connect 6 0 16 0;
#X connect 7 0 8 0;
#X connect 7 0 10 0;
#X connect 9 0 4 0;
#X connect 9 1 2 1;
#X connect 9 2 2 0;
#X connect 9 3 7 1;
#X connect 9 3 3 1;
#X connect 16 0 9 0;
#X restore 306 190 pd random 25;
#X connect 0 0 1 0;
#X connect 0 0 29 0;
#X connect 1 0 6 0;
#X connect 1 0 8 0;
#X connect 2 0 0 0;
#X connect 3 0 2 0;
#X connect 4 0 3 0;
#X connect 5 0 12 0;
#X connect 7 0 14 0;
#X connect 7 0 16 0;
#X connect 9 0 10 0;
#X connect 10 0 13 0;
#X connect 12 0 26 0;
#X connect 12 0 4 0;
#X connect 13 0 11 0;
#X connect 14 0 27 1;
#X connect 16 0 17 0;
#X connect 17 0 18 0;
#X connect 18 0 19 0;
#X connect 19 0 20 0;
#X connect 20 0 21 0;
#X connect 21 0 22 0;
#X connect 22 0 25 0;
#X connect 24 0 15 0;
#X connect 25 0 24 0;
#X connect 26 0 27 0;
#X connect 27 0 12 1;
#X connect 28 0 5 0;
#X connect 29 0 9 0;
#X restore 38 121 pd random;
#X obj 106 52 hsl 128 15 6000 1500 0 0 empty empty Wind_Strength -2
-8 0 10 -262144 -1 -1 4233 1;
#N canvas 455 434 960 507 random 0;
#X obj 204 166 bng 15 250 50 0 empty empty empty 17 7 0 10 -262144
-1 -1;
#N canvas 621 372 511 438 random 0;
#X obj 90 40 inlet;
#X obj 90 64 bng 15 250 50 0 empty empty empty 17 7 0 10 -262144 -1
-1;
#X obj 189 180 f;
#X obj 173 217 ==;
#X obj 91 281 f;
#X obj 92 308 sel 0;
#X obj 170 309 sel 1;
#X obj 92 338 f;
#X obj 92 385 outlet;
#X obj 99 144 trigger bang float bang float;
#X floatatom 166 387 5 0 0 0 - - -;
#X text 194 38 Define number range;
#X text 204 387 Test output;
#X text 37 37 Trigger;
#X text 37 14 Prevents a random number to repeat consecutively.;
#X text 330 400 pip;
#X obj 90 104 random 25;
#X connect 0 0 1 0;
#X connect 1 0 16 0;
#X connect 2 0 3 0;
#X connect 3 0 4 1;
#X connect 4 0 5 0;
#X connect 4 0 6 0;
#X connect 5 0 7 0;
#X connect 6 0 16 0;
#X connect 7 0 8 0;
#X connect 7 0 10 0;
#X connect 9 0 4 0;
#X connect 9 1 2 1;
#X connect 9 2 2 0;
#X connect 9 3 7 1;
#X connect 9 3 3 1;
#X connect 16 0 9 0;
#X restore 206 186 pd random 10;
#X obj 199 132 t b b;
#X obj 173 118 bng 15 250 50 0 empty empty empty 17 7 0 10 -262144
-1 -1;
#X obj 173 91 delay \$1;
#X obj 153 19 tgl 15 0 empty empty empty 17 7 0 10 -262144 -1 -1 1
1;
#X floatatom 330 113 5 0 0 0 - - -;
#X obj 154 241 outlet;
#X obj 452 -35 inlet;
#X floatatom 221 213 5 0 0 0 - - -;
#X obj 313 221 / 10;
#X obj 321 327 s randomVol;
#X obj 168 57 metro 3000;
#X obj 310 262 max 0.7;
#X floatatom 374 294 5 0 0 0 - - -;
#N canvas 621 372 511 438 random 0;
#X obj 90 40 inlet;
#X obj 90 64 bng 15 250 50 0 empty empty empty 17 7 0 10 -262144 -1
-1;
#X obj 189 180 f;
#X obj 173 217 ==;
#X obj 91 281 f;
#X obj 92 308 sel 0;
#X obj 170 309 sel 1;
#X obj 92 338 f;
#X obj 92 385 outlet;
#X obj 99 144 trigger bang float bang float;
#X floatatom 166 387 5 0 0 0 - - -;
#X text 194 38 Define number range;
#X text 204 387 Test output;
#X text 37 37 Trigger;
#X text 37 14 Prevents a random number to repeat consecutively.;
#X text 330 400 pip;
#X obj 90 104 random 10;
#X connect 0 0 1 0;
#X connect 1 0 16 0;
#X connect 2 0 3 0;
#X connect 3 0 4 1;
#X connect 4 0 5 0;
#X connect 4 0 6 0;
#X connect 5 0 7 0;
#X connect 6 0 16 0;
#X connect 7 0 8 0;
#X connect 7 0 10 0;
#X connect 9 0 4 0;
#X connect 9 1 2 1;
#X connect 9 2 2 0;
#X connect 9 3 7 1;
#X connect 9 3 3 1;
#X connect 16 0 9 0;
#X restore 317 188 pd random 5;
#X floatatom 312 241 5 0 0 0 - - -;
#X floatatom 455 12 5 0 0 0 - - -;
#X obj 260 128 max 2000;
#X obj 119 -19 loadbang;
#N canvas 621 372 511 438 random 0;
#X obj 90 40 inlet;
#X obj 90 64 bng 15 250 50 0 empty empty empty 17 7 0 10 -262144 -1
-1;
#X obj 189 180 f;
#X obj 173 217 ==;
#X obj 91 281 f;
#X obj 92 308 sel 0;
#X obj 170 309 sel 1;
#X obj 92 338 f;
#X obj 92 385 outlet;
#X obj 99 144 trigger bang float bang float;
#X floatatom 166 387 5 0 0 0 - - -;
#X text 194 38 Define number range;
#X text 204 387 Test output;
#X text 37 37 Trigger;
#X text 37 14 Prevents a random number to repeat consecutively.;
#X text 330 400 pip;
#X obj 91 104 random 200;
#X connect 0 0 1 0;
#X connect 1 0 16 0;
#X connect 2 0 3 0;
#X connect 3 0 4 1;
#X connect 4 0 5 0;
#X connect 4 0 6 0;
#X connect 5 0 7 0;
#X connect 6 0 16 0;
#X connect 7 0 8 0;
#X connect 7 0 10 0;
#X connect 9 0 4 0;
#X connect 9 1 2 1;
#X connect 9 2 2 0;
#X connect 9 3 7 1;
#X connect 9 3 3 1;
#X connect 16 0 9 0;
#X restore 317 84 pd random 6000;
#X obj 383 15 + 500;
#X connect 0 0 1 0;
#X connect 0 0 15 0;
#X connect 1 0 7 0;
#X connect 1 0 9 0;
#X connect 2 0 0 0;
#X connect 3 0 2 0;
#X connect 4 0 3 0;
#X connect 5 0 12 0;
#X connect 6 0 18 0;
#X connect 8 0 17 0;
#X connect 8 0 21 0;
#X connect 10 0 16 0;
#X connect 12 0 20 0;
#X connect 12 0 4 0;
#X connect 13 0 14 0;
#X connect 14 0 11 0;
#X connect 15 0 10 0;
#X connect 16 0 13 0;
#X connect 18 0 12 1;
#X connect 19 0 5 0;
#X connect 20 0 6 0;
#X connect 21 0 18 1;
#X restore 141 120 pd random;
#X floatatom 162 84 5 0 0 0 - - -;
#X obj 41 12 loadbang;
#X msg 41 35 4500;
#X connect 1 0 0 0;
#X connect 1 0 0 1;
#X connect 2 0 1 0;
#X connect 3 0 2 0;
#X connect 3 0 4 0;
#X connect 3 0 5 0;
#X connect 4 0 1 1;
#X connect 6 0 7 0;
#X connect 7 0 3 0;
