#N canvas 220 152 269 443 10;
#X obj 56 397 dac~;
#N canvas 214 243 974 617 reverb 0;
#N canvas 15 98 781 670 presets 0;
#X obj -1 30 inlet;
#X obj -1 68 route default large large_noexcursion huge huge_noexcursion
tadada;
#X obj -1 587 s \$0-GUI;
#X msg -1 134 predelay 0 \, bandwidth 22050 \, damping 22050 \, decay
0.5 \, input_diffusion1 0.75 \, input_diffusion2 0.625 \, decay_diffusion1
0.7 \, decay_diffusion2 0.5 \, excursion 0.53761 \;;
#X msg 135 274 predelay 0 \, bandwidth 10000 \, damping 4637 \, decay
0.98 \, input_diffusion1 0.685 \, input_diffusion2 0.779 \, decay_diffusion1
0.74 \, decay_diffusion2 0.68 \, excursion 0 \,;
#X msg 67 197 predelay 0 \, bandwidth 10000 \, damping 4637 \, decay
0.98 \, input_diffusion1 0.685 \, input_diffusion2 0.779 \, decay_diffusion1
0.74 \, decay_diffusion2 0.68 \, excursion 0.53761 \,;
#X msg 206 350 predelay 10 \, bandwidth 10000 \, damping 4637 \, decay
0.99 \, input_diffusion1 0.685 \, input_diffusion2 0.779 \, decay_diffusion1
0.889 \, decay_diffusion2 0.84 \, excursion 0.53761 \;;
#X msg 340 525 predelay 216.535 \, bandwidth 22050 \, damping 22050
\, decay 0.677165 \, input_diffusion1 0.850394 \, input_diffusion2
0.92126 \, decay_diffusion1 0.80315 \, decay_diffusion2 0.818898 \,
excursion 0.11811 \;;
#X msg 272 437 predelay 10 \, bandwidth 10000 \, damping 4637 \, decay
0.99 \, input_diffusion1 0.685 \, input_diffusion2 0.779 \, decay_diffusion1
0.889 \, decay_diffusion2 0.84 \, excursion 0 \;;
#X connect 0 0 1 0;
#X connect 1 0 3 0;
#X connect 1 1 5 0;
#X connect 1 2 4 0;
#X connect 1 3 6 0;
#X connect 1 4 8 0;
#X connect 1 5 7 0;
#X connect 3 0 2 0;
#X connect 4 0 2 0;
#X connect 5 0 2 0;
#X connect 6 0 2 0;
#X connect 7 0 2 0;
#X connect 8 0 2 0;
#X restore 435 106 pd presets;
#X msg 435 -36 default;
#X msg 435 33 huge;
#X msg 435 56 huge_noexcursion;
#X msg 435 -13 large;
#X msg 435 10 large_noexcursion;
#X msg 435 79 tadada;
#X obj 229 126 hsl 128 15 0 1 0 1 empty empty empty -2 -8 0 10 -262144
-1 -1 0 1;
#X msg 226 145 dry \$1;
#X obj 55 182 e_platereverb somename;
#X obj 226 70 loadbang;
#X msg 248 173 save;
#X obj 206 216 u_cocollect;
#X msg 206 246 dry 0.33 \, decay_diffusion2 0.68 \, decay_diffusion1
0.74 \, input_diffusion2 0.779 \, excursion 0 \, input_diffusion1 0.685
\, decay 0.98 \, damping 4637 \, bandwidth 10000 \, predelay 0 \,;
#X obj 248 193 t a b;
#X text 175 352 RjDj Library (https://github.com/rjdj/rjlib) - 2011
;
#X text 431 -62 Presets;
#X obj 206 46 r \$0-CTL;
#N canvas 0 22 622 572 Parameter 0;
#X obj 201 466 s \$0-CTL;
#X text 251 5 GUI;
#X text 385 6 No-GUI;
#X obj 201 105 g_hsl predelay 0 250;
#X obj 201 145 g_hsl bandwidth 220.05 22050;
#X obj 201 185 g_hsl damping 220.5 22050;
#X obj 201 225 g_hsl decay 0 1;
#X obj 201 428 g_hsl excursion 0 5;
#X msg 369 432 excursion \$1;
#X msg 369 110 predelay \$1;
#X msg 369 149 bandwidth \$1;
#X msg 369 190 damping \$1;
#X msg 369 229 decay \$1;
#X msg 369 272 input_diffusion1 \$1;
#X msg 369 302 input_diffusion2 \$1;
#X msg 369 352 decay_diffusion1 \$1;
#X msg 369 381 decay_diffusion2 \$1;
#X obj 201 268 g_hsl input_diffusion1 0 1;
#X obj 201 298 g_hsl input_diffusion2 0 1;
#X obj 201 348 g_hsl decay_diffusion1 0 1;
#X obj 201 378 g_hsl decay_diffusion2 0 1;
#X text 81 288 Input Diffusion;
#X text 151 230 Decay;
#X text 137 191 Damping;
#X text 47 150 Bandwidth (frequency);
#X text 134 109 Predelay;
#X text 81 367 Decay Diffusion;
#X text 123 433 Excursion;
#X obj 201 29 r \$0-GUI;
#X obj 201 61 g_hsl dry 0 1;
#X text 111 66 Wet/Dry Mix;
#X msg 369 66 dry \$1;
#X connect 3 0 4 0;
#X connect 4 0 5 0;
#X connect 5 0 6 0;
#X connect 6 0 17 0;
#X connect 7 0 0 0;
#X connect 17 0 18 0;
#X connect 18 0 19 0;
#X connect 19 0 20 0;
#X connect 20 0 7 0;
#X connect 28 0 29 0;
#X connect 29 0 3 0;
#X restore 436 -102 pd Parameter Controls;
#X obj 52 54 inlet~ L;
#X obj 115 57 inlet~ R;
#X obj 38 262 outlet~ L;
#X obj 121 267 outlet~ R;
#X msg 226 101 0;
#X obj 321 35 r reverbpresets;
#X obj 350 -47 loadbang;
#X connect 1 0 0 0;
#X connect 2 0 0 0;
#X connect 3 0 0 0;
#X connect 4 0 0 0;
#X connect 5 0 0 0;
#X connect 6 0 0 0;
#X connect 7 0 8 0;
#X connect 8 0 9 2;
#X connect 9 0 21 0;
#X connect 9 1 22 0;
#X connect 9 2 12 0;
#X connect 10 0 23 0;
#X connect 11 0 14 0;
#X connect 12 0 13 0;
#X connect 14 0 9 2;
#X connect 14 1 12 1;
#X connect 17 0 9 2;
#X connect 19 0 9 0;
#X connect 20 0 9 1;
#X connect 23 0 7 0;
#X connect 24 0 0 0;
#X connect 25 0 3 0;
#X restore 63 175 pd reverb;
#N canvas 810 339 249 124 howlingRock 0;
#X obj 136 63 outlet~ R;
#X obj 46 63 outlet~ L;
#N canvas 452 370 834 415 wind 0;
#X obj 85 163 noise~;
#X obj 98 219 bp~;
#X obj 99 258 hip~;
#X obj 193 66 vsl 15 128 0 7000 0 0 empty empty empty 0 -9 0 10 -262144
-1 -1 2034 1;
#X obj 231 66 vsl 15 128 0 400 0 1 empty empty empty 0 -9 0 10 -262144
-1 -1 12700 1;
#X floatatom 259 218 5 0 0 0 - - -;
#X obj 371 62 vsl 15 128 0 7000 0 1 empty empty empty 0 -9 0 10 -262144
-1 -1 3100 1;
#X floatatom 399 208 5 0 0 0 - - -;
#X obj 104 290 lop~;
#X obj 447 55 vsl 15 128 280 3000 0 1 empty empty empty 0 -9 0 10 -262144
-1 -1 12700 1;
#X floatatom 475 207 5 0 0 0 - - -;
#X floatatom 187 214 5 0 0 0 - - -;
#X obj 108 312 outlet~;
#N canvas 397 316 722 454 walk_better 0;
#X floatatom 143 248 5 0 0 0 - - -;
#X obj 153 143 f;
#X floatatom 65 249 5 0 0 0 - - -;
#X obj 153 168 t b b f;
#X obj 56 283 sel 0 1;
#X obj 189 358 +;
#X obj 153 117 metro 100;
#X obj 153 95 tgl 15 0 empty empty empty 0 -6 0 8 -262144 -1 -1 1 1
;
#X obj 134 282 + 1;
#X floatatom 272 183 5 0 0 0 - - -;
#X obj 112 339 *;
#X msg 56 312 -1;
#X obj 272 113 moses 0;
#X obj 346 113 moses 100;
#X obj 272 137 * -1;
#X obj 437 116 * -1;
#X obj 437 141 + 200;
#X msg 90 312 1;
#X text 69 39 Random walk generator;
#X text 173 94 on/off;
#X text 328 182 output;
#X text 52 405 A random walk is a special case of a Markov chain \,
in which the states are integers and the transitions add or subtract
a small amount from the previous state to get a new one. Here the "f"
holds the state. When it gets a bang \, the previous state is added
to a random number (from 1 to 4) multiplied by a random sign (-1 or
1). The new value is then coerced into the range from 0 to 100;
#X text 65 265 sign;
#X text 143 264 magnitude;
#X text 233 343 add prev value;
#X text 230 360 to random increment;
#X text 286 60 coercion to range 0-100 \; if out of range \, reflect
;
#X text 285 90 us back in.;
#X text 353 522 updated for Pd version 0.37-1;
#X obj 277 226 + 500;
#X obj 282 273 outlet;
#X obj 406 236 spigot;
#X floatatom 410 266 5 0 0 0 - - -;
#X obj 494 197 tgl 15 0 empty empty empty 17 7 0 10 -262144 -1 -1 1
1;
#X obj 549 241 + 1000;
#X obj 557 292 spigot;
#X floatatom 561 322 5 0 0 0 - - -;
#X obj 643 226 tgl 15 0 empty empty empty 17 7 0 10 -262144 -1 -1 0
1;
#X obj 134 228 random 4;
#X obj 56 227 random 2;
#X obj 97 73 loadbang;
#X obj 508 177 loadbang;
#X connect 1 0 3 0;
#X connect 3 0 39 0;
#X connect 3 1 38 0;
#X connect 3 2 5 1;
#X connect 4 0 11 0;
#X connect 4 1 17 0;
#X connect 5 0 12 0;
#X connect 6 0 1 0;
#X connect 7 0 6 0;
#X connect 8 0 10 1;
#X connect 9 0 1 1;
#X connect 9 0 29 0;
#X connect 9 0 34 0;
#X connect 10 0 5 0;
#X connect 11 0 10 0;
#X connect 12 0 14 0;
#X connect 12 1 13 0;
#X connect 13 0 9 0;
#X connect 13 1 15 0;
#X connect 14 0 9 0;
#X connect 15 0 16 0;
#X connect 16 0 9 0;
#X connect 17 0 10 0;
#X connect 29 0 30 0;
#X connect 29 0 31 0;
#X connect 31 0 32 0;
#X connect 32 0 30 0;
#X connect 33 0 31 1;
#X connect 34 0 35 0;
#X connect 35 0 36 0;
#X connect 36 0 30 0;
#X connect 37 0 35 1;
#X connect 38 0 0 0;
#X connect 38 0 8 0;
#X connect 39 0 2 0;
#X connect 39 0 4 0;
#X connect 40 0 7 0;
#X connect 41 0 33 0;
#X restore 30 94 pd walk_better;
#X text 366 224 Lowpass;
#X text 460 225 Hipass;
#X text 271 241 q;
#N canvas -1534 405 1048 402 howler 0;
#X obj 309 314 outlet;
#X floatatom 140 301 5 0 0 0 - - -;
#X obj 147 272 line;
#X msg 81 184 300 1000;
#X msg 247 187 530 750;
#X obj 135 58 metro 1000;
#X obj 142 23 tgl 15 0 empty empty empty 17 7 0 10 -262144 -1 -1 1
1;
#X obj 226 312 + 500;
#X msg 422 191 470 600;
#X msg 346 188 1000 400;
#X msg 159 189 700 300;
#X obj 497 272 random 500;
#X obj 439 22 r startHowl;
#X obj 397 83 select 0 1 2 3 4 5 6 7 8 9 10;
#X msg 482 192 280 1000;
#X msg 560 197 830 300;
#X msg 648 195 200 750;
#X msg 747 196 100 400;
#X msg 823 199 50 600;
#X msg 916 198 360 400;
#X floatatom 287 100 5 0 0 0 - - -;
#X obj 129 99 random 11;
#X connect 1 0 7 0;
#X connect 2 0 1 0;
#X connect 3 0 2 0;
#X connect 4 0 2 0;
#X connect 5 0 11 0;
#X connect 5 0 21 0;
#X connect 6 0 5 0;
#X connect 7 0 0 0;
#X connect 8 0 2 0;
#X connect 9 0 2 0;
#X connect 10 0 2 0;
#X connect 11 0 7 1;
#X connect 12 0 6 0;
#X connect 13 0 3 0;
#X connect 13 1 10 0;
#X connect 13 2 4 0;
#X connect 13 3 9 0;
#X connect 13 4 8 0;
#X connect 13 5 14 0;
#X connect 13 6 15 0;
#X connect 13 7 16 0;
#X connect 13 8 17 0;
#X connect 13 9 18 0;
#X connect 13 10 19 0;
#X connect 14 0 2 0;
#X connect 15 0 2 0;
#X connect 16 0 2 0;
#X connect 17 0 2 0;
#X connect 18 0 2 0;
#X connect 19 0 2 0;
#X connect 21 0 13 0;
#X connect 21 0 20 0;
#X restore 150 16 pd howler;
#X connect 0 0 1 0;
#X connect 1 0 2 0;
#X connect 2 0 8 0;
#X connect 3 0 1 1;
#X connect 3 0 11 0;
#X connect 4 0 1 2;
#X connect 4 0 5 0;
#X connect 6 0 7 0;
#X connect 6 0 2 1;
#X connect 8 0 12 0;
#X connect 9 0 10 0;
#X connect 9 0 8 1;
#X connect 17 0 3 0;
#X restore 47 30 pd wind L;
#N canvas 641 366 834 415 wind 0;
#X obj 85 163 noise~;
#X obj 98 219 bp~;
#X obj 99 258 hip~;
#X obj 193 66 vsl 15 128 0 7000 0 0 empty empty empty 0 -9 0 10 -262144
-1 -1 1531 1;
#X obj 231 66 vsl 15 128 0 400 0 1 empty empty empty 0 -9 0 10 -262144
-1 -1 12700 1;
#X floatatom 259 218 5 0 0 0 - - -;
#X obj 371 62 vsl 15 128 0 7000 0 1 empty empty empty 0 -9 0 10 -262144
-1 -1 3100 1;
#X floatatom 399 208 5 0 0 0 - - -;
#X obj 104 290 lop~;
#X obj 447 55 vsl 15 128 280 3000 0 1 empty empty empty 0 -9 0 10 -262144
-1 -1 12700 1;
#X floatatom 475 207 5 0 0 0 - - -;
#X floatatom 187 214 5 0 0 0 - - -;
#X obj 108 312 outlet~;
#N canvas 397 316 722 454 walk_better 0;
#X floatatom 143 248 5 0 0 0 - - -;
#X obj 153 143 f;
#X floatatom 65 249 5 0 0 0 - - -;
#X obj 153 168 t b b f;
#X obj 56 283 sel 0 1;
#X obj 189 358 +;
#X obj 153 117 metro 100;
#X obj 153 95 tgl 15 0 empty empty empty 0 -6 0 8 -262144 -1 -1 1 1
;
#X obj 134 282 + 1;
#X floatatom 272 183 5 0 0 0 - - -;
#X obj 112 339 *;
#X msg 56 312 -1;
#X obj 272 113 moses 0;
#X obj 346 113 moses 100;
#X obj 272 137 * -1;
#X obj 437 116 * -1;
#X obj 437 141 + 200;
#X msg 90 312 1;
#X text 69 39 Random walk generator;
#X text 173 94 on/off;
#X text 328 182 output;
#X text 52 405 A random walk is a special case of a Markov chain \,
in which the states are integers and the transitions add or subtract
a small amount from the previous state to get a new one. Here the "f"
holds the state. When it gets a bang \, the previous state is added
to a random number (from 1 to 4) multiplied by a random sign (-1 or
1). The new value is then coerced into the range from 0 to 100;
#X text 65 265 sign;
#X text 143 264 magnitude;
#X text 233 343 add prev value;
#X text 230 360 to random increment;
#X text 286 60 coercion to range 0-100 \; if out of range \, reflect
;
#X text 285 90 us back in.;
#X text 353 522 updated for Pd version 0.37-1;
#X obj 277 226 + 500;
#X obj 282 273 outlet;
#X obj 406 236 spigot;
#X floatatom 410 266 5 0 0 0 - - -;
#X obj 494 197 tgl 15 0 empty empty empty 17 7 0 10 -262144 -1 -1 1
1;
#X obj 549 241 + 1000;
#X obj 557 292 spigot;
#X floatatom 561 322 5 0 0 0 - - -;
#X obj 643 226 tgl 15 0 empty empty empty 17 7 0 10 -262144 -1 -1 0
1;
#X obj 134 228 random 4;
#X obj 56 227 random 2;
#X obj 97 73 loadbang;
#X obj 508 177 loadbang;
#X connect 1 0 3 0;
#X connect 3 0 39 0;
#X connect 3 1 38 0;
#X connect 3 2 5 1;
#X connect 4 0 11 0;
#X connect 4 1 17 0;
#X connect 5 0 12 0;
#X connect 6 0 1 0;
#X connect 7 0 6 0;
#X connect 8 0 10 1;
#X connect 9 0 1 1;
#X connect 9 0 29 0;
#X connect 9 0 34 0;
#X connect 10 0 5 0;
#X connect 11 0 10 0;
#X connect 12 0 14 0;
#X connect 12 1 13 0;
#X connect 13 0 9 0;
#X connect 13 1 15 0;
#X connect 14 0 9 0;
#X connect 15 0 16 0;
#X connect 16 0 9 0;
#X connect 17 0 10 0;
#X connect 29 0 30 0;
#X connect 29 0 31 0;
#X connect 31 0 32 0;
#X connect 32 0 30 0;
#X connect 33 0 31 1;
#X connect 34 0 35 0;
#X connect 35 0 36 0;
#X connect 36 0 30 0;
#X connect 37 0 35 1;
#X connect 38 0 0 0;
#X connect 38 0 8 0;
#X connect 39 0 2 0;
#X connect 39 0 4 0;
#X connect 40 0 7 0;
#X connect 41 0 33 0;
#X restore 30 94 pd walk_better;
#X text 366 224 Lowpass;
#X text 460 225 Hipass;
#X text 271 241 q;
#N canvas 367 363 1047 490 howler 0;
#X obj 398 403 outlet;
#X floatatom 221 358 5 0 0 0 - - -;
#X obj 228 329 line;
#X msg 81 184 300 1000;
#X msg 247 187 530 750;
#X obj 135 58 metro 1000;
#X obj 142 23 tgl 15 0 empty empty empty 17 7 0 10 -262144 -1 -1 1
1;
#X msg 422 191 470 600;
#X msg 346 188 1000 400;
#X msg 159 189 700 300;
#X obj 446 339 random 500;
#X obj 315 401 + 510;
#X obj 399 22 r startHowl;
#X obj 316 5 loadbang;
#X floatatom 361 82 5 0 0 0 - - -;
#X obj 310 28 random 1000;
#X obj 281 64 max 400;
#X obj 268 102 delay 2000;
#X obj 400 62 bng 15 250 50 0 empty empty empty 17 7 0 10 -262144 -1
-1;
#X msg 530 193 280 1000;
#X msg 608 198 830 300;
#X msg 696 196 200 750;
#X msg 795 197 100 400;
#X msg 871 200 50 600;
#X msg 964 199 360 400;
#X obj 137 144 select 0 1 2 3 4 5 6 7 8 9 10;
#X obj 129 99 random 11;
#X floatatom 163 122 5 0 0 0 - - -;
#X connect 1 0 11 0;
#X connect 2 0 1 0;
#X connect 3 0 2 0;
#X connect 4 0 2 0;
#X connect 5 0 10 0;
#X connect 5 0 26 0;
#X connect 6 0 5 0;
#X connect 7 0 2 0;
#X connect 8 0 2 0;
#X connect 9 0 2 0;
#X connect 10 0 11 1;
#X connect 11 0 0 0;
#X connect 12 0 18 0;
#X connect 13 0 15 0;
#X connect 15 0 14 0;
#X connect 15 0 16 0;
#X connect 17 0 6 0;
#X connect 18 0 17 0;
#X connect 19 0 2 0;
#X connect 20 0 2 0;
#X connect 21 0 2 0;
#X connect 22 0 2 0;
#X connect 23 0 2 0;
#X connect 24 0 2 0;
#X connect 25 0 3 0;
#X connect 25 1 9 0;
#X connect 25 2 4 0;
#X connect 25 3 8 0;
#X connect 25 4 7 0;
#X connect 25 5 19 0;
#X connect 25 6 20 0;
#X connect 25 7 21 0;
#X connect 25 8 22 0;
#X connect 25 9 23 0;
#X connect 25 10 24 0;
#X connect 26 0 25 0;
#X connect 26 0 27 0;
#X restore 150 16 pd howler;
#X connect 0 0 1 0;
#X connect 1 0 2 0;
#X connect 2 0 8 0;
#X connect 3 0 1 1;
#X connect 3 0 11 0;
#X connect 4 0 1 2;
#X connect 4 0 5 0;
#X connect 6 0 7 0;
#X connect 6 0 2 1;
#X connect 8 0 12 0;
#X connect 9 0 10 0;
#X connect 9 0 8 1;
#X connect 17 0 3 0;
#X restore 137 27 pd wind R;
#X connect 2 0 1 0;
#X connect 3 0 0 0;
#X restore 60 29 pd howlingRock;
#X obj 155 84 tgl 50 0 startHowl empty HOWL 17 70 0 20 -262144 -1 -1
1 1;
#X obj 175 32 loadbang;
#X obj 59 341 *~;
#X obj 88 341 *~;
#N canvas 416 468 450 300 startFade 0;
#X obj 92 43 r startHowl;
#X obj 101 148 line~;
#X obj 98 210 outlet~;
#X msg 93 94 1 10000;
#X connect 0 0 3 0;
#X connect 1 0 2 0;
#X connect 3 0 1 0;
#X restore 148 324 pd startFade;
#X obj 169 189 vu 15 120 howlingVU empty -1 -8 0 10 -66577 -1 1 0;
#N canvas 292 353 450 300 limiter 0;
#X obj 96 332 *~;
#X obj 131 90 env~;
#X obj 131 112 dbtorms;
#X obj 96 67 inlet~;
#X obj 93 358 outlet~;
#X obj 240 330 *~;
#X obj 240 65 inlet~;
#X obj 237 356 outlet~;
#X msg 140 188 1 \$1;
#X obj 142 215 /;
#X obj 131 248 min 1;
#X obj 134 151 + 0.5;
#X obj 127 282 lop~ 5;
#X floatatom 276 170 5 0 0 0 - - -;
#X text 138 26 Simple Limiter;
#X text 309 403 pip;
#N canvas 676 493 450 300 vu 0;
#X obj 71 71 env~;
#X obj 71 98 - 100;
#X obj 71 44 inlet~;
#X obj 134 130 s howlingVU;
#X connect 0 0 1 0;
#X connect 1 0 3 0;
#X connect 2 0 0 0;
#X restore 163 64 pd vu;
#X connect 0 0 4 0;
#X connect 1 0 2 0;
#X connect 2 0 11 0;
#X connect 2 0 13 0;
#X connect 3 0 1 0;
#X connect 3 0 0 0;
#X connect 3 0 16 0;
#X connect 5 0 7 0;
#X connect 6 0 5 0;
#X connect 6 0 1 0;
#X connect 6 0 16 0;
#X connect 8 0 9 0;
#X connect 9 0 10 0;
#X connect 10 0 12 0;
#X connect 11 0 8 0;
#X connect 12 0 0 1;
#X connect 12 0 5 1;
#X restore 50 273 pd limiter;
#X connect 1 0 9 0;
#X connect 1 1 9 1;
#X connect 2 0 1 0;
#X connect 2 1 1 1;
#X connect 4 0 3 0;
#X connect 5 0 0 0;
#X connect 6 0 0 1;
#X connect 7 0 6 1;
#X connect 7 0 5 1;
#X connect 9 0 5 0;
#X connect 9 1 6 0;
