#N canvas 447 323 434 214 10;
#X obj 231 155 dac~;
#X obj -17 31 vsl 15 128 0 1 0 0 empty string1Vol empty 0 -9 0 10 -257985
-1 -1 4011 1;
#X obj 21 31 vsl 15 128 0 1 0 0 empty string2Vol empty 0 -9 0 10 -257985
-1 -1 8021 1;
#X obj 63 31 vsl 15 128 0 1 0 0 empty string3Vol empty 0 -9 0 10 -257985
-1 -1 8331 1;
#X obj 102 31 vsl 15 128 0 1 0 0 empty string4Vol empty 0 -9 0 10 -257985
-1 -1 6736 1;
#X obj 140 31 vsl 15 128 0 1 0 0 empty string5Vol empty 0 -9 0 10 -257985
-1 -1 8583 1;
#N canvas 439 545 591 183 harp 0;
#N canvas 383 227 719 305 string_1 0;
#N canvas 0 22 450 278 (subpatch) 0;
#X array harpString1 1.38694e+06 float 2;
#X coords 0 1 1.38694e+06 -1 200 140 1 0 0;
#X restore 476 38 graph;
#X obj 132 147 soundfiler;
#X obj 73 171 bng 15 250 50 0 empty empty empty 17 7 0 10 -262144 -1
-1;
#X obj 142 263 outlet~;
#X obj 33 117 t b b;
#X msg 131 117 read -resize sfx_windHarp_v0_00.wav harpString1;
#X obj 130 190 tabplay~ harpString1;
#X obj 34 92 delay \$1;
#X obj 31 9 loadbang;
#X obj 103 40 random 100;
#X floatatom 98 71 5 0 0 0 - - -;
#X obj 22 48 t b b;
#X obj 7 16 bng 15 250 50 0 empty empty empty 17 7 0 10 -262144 -1
-1;
#X obj 142 239 lop~;
#X floatatom 304 259 10 0 0 0 - - -;
#X obj 299 155 r windStrength;
#X floatatom 298 175 5 0 0 0 - - -;
#X obj 299 195 + 1;
#X obj 303 237 + 50;
#X obj 299 216 pow 25;
#X obj 247 271 max 150;
#X floatatom 209 282 5 0 0 0 - - -;
#X connect 1 0 6 0;
#X connect 2 0 6 0;
#X connect 4 0 2 0;
#X connect 4 1 5 0;
#X connect 5 0 1 0;
#X connect 6 0 13 0;
#X connect 6 1 2 0;
#X connect 7 0 4 0;
#X connect 8 0 9 0;
#X connect 8 0 11 0;
#X connect 9 0 10 0;
#X connect 10 0 7 1;
#X connect 11 0 7 0;
#X connect 11 1 9 0;
#X connect 12 0 11 0;
#X connect 13 0 3 0;
#X connect 14 0 20 0;
#X connect 15 0 16 0;
#X connect 16 0 17 0;
#X connect 17 0 19 0;
#X connect 18 0 14 0;
#X connect 19 0 18 0;
#X connect 20 0 21 0;
#X connect 21 0 13 1;
#X restore 66 36 pd string_1;
#N canvas 212 220 728 306 sumbixer 0;
#X text 252 24 SFX SUBMIXER;
#X obj 443 75 inlet~ sfx4;
#N canvas 780 259 235 340 channel_4 0;
#X obj 120 178 inlet~;
#X obj 120 253 *~;
#X obj 120 296 outlet~;
#X obj 64 120 vsl 15 128 0 0.7 0 0 empty string4Vol empty 0 -9 0 10
-262144 -1 -1 9623 1;
#X text 51 261 Volume;
#X obj 59 59 loadbang;
#X msg 73 82 1;
#X connect 0 0 1 0;
#X connect 1 0 2 0;
#X connect 3 0 1 1;
#X connect 5 0 6 0;
#X connect 6 0 3 0;
#X restore 443 103 pd channel_4 submix;
#X obj 574 78 inlet~ sfx5;
#N canvas 1037 261 216 341 channel_5 0;
#X obj 120 178 inlet~;
#X obj 120 253 *~;
#X obj 120 296 outlet~;
#X obj 64 120 vsl 15 128 0 0.7 0 0 empty string5Vol empty 0 -9 0 10
-262144 -1 -1 12261 1;
#X text 51 261 Volume;
#X obj 59 59 loadbang;
#X msg 73 82 1;
#X connect 0 0 1 0;
#X connect 1 0 2 0;
#X connect 3 0 1 1;
#X connect 5 0 6 0;
#X connect 6 0 3 0;
#X restore 574 106 pd channel_5 submix;
#X obj 190 255 throw~ harp_submixL;
#X obj 337 253 throw~ harp_submixR;
#X obj 29 80 inlet~ sfx4;
#X obj 160 83 inlet~ sfx5;
#X obj 281 77 inlet~ sfx5;
#N canvas 82 273 490 466 channel_1 0;
#X obj 120 178 inlet~;
#X obj 120 253 *~;
#X obj 120 296 outlet~;
#X obj 64 120 vsl 15 128 0 0.7 0 0 empty string1Vol empty 0 -9 0 10
-262144 -1 -1 5729 1;
#X text 51 261 Volume;
#X obj 59 59 loadbang;
#X msg 72 82 1;
#X connect 0 0 1 0;
#X connect 1 0 2 0;
#X connect 3 0 1 1;
#X connect 5 0 6 0;
#X connect 6 0 3 0;
#X restore 29 108 pd channel_1 submix;
#N canvas 314 270 216 341 channel_2 0;
#X obj 120 178 inlet~;
#X obj 120 253 *~;
#X obj 120 296 outlet~;
#X obj 64 120 vsl 15 128 0 0.7 0 0 empty string2Vol empty 0 -9 0 10
-262144 -1 -1 11459 1;
#X text 51 261 Volume;
#X obj 59 59 loadbang;
#X msg 73 82 1;
#X connect 0 0 1 0;
#X connect 1 0 2 0;
#X connect 3 0 1 1;
#X connect 5 0 6 0;
#X connect 6 0 3 0;
#X restore 156 107 pd channel_2 submix;
#N canvas 547 266 206 341 channel_3 0;
#X obj 120 178 inlet~;
#X obj 120 253 *~;
#X obj 120 296 outlet~;
#X obj 54 117 vsl 15 128 0 0.7 0 0 empty string3Vol empty 0 -9 0 10
-262144 -1 -1 11902 1;
#X text 51 261 Volume;
#X obj 59 59 loadbang;
#X msg 73 82 1;
#X connect 0 0 1 0;
#X connect 1 0 2 0;
#X connect 3 0 1 1;
#X connect 5 0 6 0;
#X connect 6 0 3 0;
#X restore 281 105 pd channel_3 submix;
#N canvas 626 451 450 300 pan1 0;
#X floatatom 195 132 8 0 0 0 - - -;
#X obj 195 102 / 127;
#X obj 198 29 hsl 128 15 0 127 0 1 empty empty empty -2 -8 0 10 -262144
-1 -1 5600 1;
#X text 201 13 L < < < M > > > R;
#X text 332 31 Pan value;
#X obj 127 83 inlet~;
#X obj 77 215 outlet~ L;
#X obj 202 217 outlet~ R;
#N canvas 0 22 450 300 pan 0;
#X text 190 183 * ~M_PI/2;
#X obj 117 175 * 1.5708;
#X obj 117 60 inlet;
#X obj 38 62 inlet~;
#X obj 39 351 outlet~;
#X obj 130 355 outlet~;
#X obj 58 207 cos;
#X obj 147 209 sin;
#X msg 168 132 0.5;
#X obj 201 133 f \$1;
#N canvas 0 22 715 450 check-arg 0;
#X obj 179 184 makefilename $%d-EMPTY;
#X obj 52 185 symbol \$1-EMPTY;
#X msg 69 156 bang;
#X obj 52 217 select DUMMY;
#X obj 52 39 loadbang;
#X obj 52 62 t b b;
#X obj 179 157 1;
#X obj 52 294 outlet;
#X text 182 85 Using an idiom by IOhannes;
#X msg 133 250 1;
#X msg 52 246 0;
#X text 182 247 Output 0 if no \$1 argument present \, and 1 if \$1
is present even if it's 0!;
#X connect 0 0 3 1;
#X connect 1 0 3 0;
#X connect 2 0 1 0;
#X connect 3 0 10 0;
#X connect 3 1 9 0;
#X connect 4 0 5 0;
#X connect 5 0 1 0;
#X connect 5 1 6 0;
#X connect 6 0 0 0;
#X connect 9 0 7 0;
#X connect 10 0 7 0;
#X restore 168 59 pd check-arg;
#X obj 168 85 select 0 1;
#X obj 130 324 *~;
#X obj 39 320 *~;
#X obj 147 293 line~;
#X obj 147 267 pack 0 10;
#X obj 58 296 line~;
#X obj 58 270 pack 0 10;
#N canvas 228 198 627 317 LICENSE-BSD 0;
#X text 121 56 This software is copyrighted by Miller Puckette \, Reality
Jockey Ltd. and others. The terms (the "Standard Improved BSD License")
apply to all files associated with the software unless explicitly disclaimed
in individual files.;
#X text 123 148 See the file LICENSE.txt for the full license text.
;
#X restore 403 50 pd LICENSE-BSD;
#X connect 1 0 6 0;
#X connect 1 0 7 0;
#X connect 2 0 1 0;
#X connect 3 0 12 0;
#X connect 3 0 13 0;
#X connect 6 0 17 0;
#X connect 7 0 15 0;
#X connect 8 0 1 0;
#X connect 9 0 1 0;
#X connect 10 0 11 0;
#X connect 11 0 8 0;
#X connect 11 1 9 0;
#X connect 12 0 5 0;
#X connect 13 0 4 0;
#X connect 14 0 12 1;
#X connect 15 0 14 0;
#X connect 16 0 13 1;
#X connect 17 0 16 0;
#X restore 145 167 pd pan;
#X obj 117 18 loadbang;
#X connect 0 0 8 1;
#X connect 1 0 0 0;
#X connect 2 0 1 0;
#X connect 5 0 8 0;
#X connect 8 0 6 0;
#X connect 8 1 7 0;
#X connect 9 0 2 0;
#X restore 46 161 pd pan1;
#N canvas 626 451 450 300 pan2 0;
#X floatatom 195 132 8 0 0 0 - - -;
#X obj 195 102 / 127;
#X obj 198 29 hsl 128 15 0 127 0 1 empty empty empty -2 -8 0 10 -262144
-1 -1 7100 1;
#X text 201 13 L < < < M > > > R;
#X text 332 31 Pan value;
#X obj 127 83 inlet~;
#X obj 77 215 outlet~ L;
#X obj 202 217 outlet~ R;
#N canvas 0 22 450 300 pan 0;
#X text 190 183 * ~M_PI/2;
#X obj 117 175 * 1.5708;
#X obj 117 60 inlet;
#X obj 38 62 inlet~;
#X obj 39 351 outlet~;
#X obj 130 355 outlet~;
#X obj 58 207 cos;
#X obj 147 209 sin;
#X msg 168 132 0.5;
#X obj 201 133 f \$1;
#N canvas 0 22 715 450 check-arg 0;
#X obj 179 184 makefilename $%d-EMPTY;
#X obj 52 185 symbol \$1-EMPTY;
#X msg 69 156 bang;
#X obj 52 217 select DUMMY;
#X obj 52 39 loadbang;
#X obj 52 62 t b b;
#X obj 179 157 1;
#X obj 52 294 outlet;
#X text 182 85 Using an idiom by IOhannes;
#X msg 133 250 1;
#X msg 52 246 0;
#X text 182 247 Output 0 if no \$1 argument present \, and 1 if \$1
is present even if it's 0!;
#X connect 0 0 3 1;
#X connect 1 0 3 0;
#X connect 2 0 1 0;
#X connect 3 0 10 0;
#X connect 3 1 9 0;
#X connect 4 0 5 0;
#X connect 5 0 1 0;
#X connect 5 1 6 0;
#X connect 6 0 0 0;
#X connect 9 0 7 0;
#X connect 10 0 7 0;
#X restore 168 59 pd check-arg;
#X obj 168 85 select 0 1;
#X obj 130 324 *~;
#X obj 39 320 *~;
#X obj 147 293 line~;
#X obj 147 267 pack 0 10;
#X obj 58 296 line~;
#X obj 58 270 pack 0 10;
#N canvas 228 198 627 317 LICENSE-BSD 0;
#X text 121 56 This software is copyrighted by Miller Puckette \, Reality
Jockey Ltd. and others. The terms (the "Standard Improved BSD License")
apply to all files associated with the software unless explicitly disclaimed
in individual files.;
#X text 123 148 See the file LICENSE.txt for the full license text.
;
#X restore 403 50 pd LICENSE-BSD;
#X connect 1 0 6 0;
#X connect 1 0 7 0;
#X connect 2 0 1 0;
#X connect 3 0 12 0;
#X connect 3 0 13 0;
#X connect 6 0 17 0;
#X connect 7 0 15 0;
#X connect 8 0 1 0;
#X connect 9 0 1 0;
#X connect 10 0 11 0;
#X connect 11 0 8 0;
#X connect 11 1 9 0;
#X connect 12 0 5 0;
#X connect 13 0 4 0;
#X connect 14 0 12 1;
#X connect 15 0 14 0;
#X connect 16 0 13 1;
#X connect 17 0 16 0;
#X restore 145 167 pd pan;
#X obj 113 14 loadbang;
#X connect 0 0 8 1;
#X connect 1 0 0 0;
#X connect 2 0 1 0;
#X connect 5 0 8 0;
#X connect 8 0 6 0;
#X connect 8 1 7 0;
#X connect 9 0 2 0;
#X restore 171 171 pd pan2;
#N canvas 626 451 450 300 pan4 0;
#X floatatom 195 132 8 0 0 0 - - -;
#X obj 195 102 / 127;
#X obj 198 29 hsl 128 15 0 127 0 1 empty empty empty -2 -8 0 10 -262144
-1 -1 8400 1;
#X text 201 13 L < < < M > > > R;
#X text 332 31 Pan value;
#X obj 127 83 inlet~;
#X obj 77 215 outlet~ L;
#X obj 202 217 outlet~ R;
#N canvas 0 22 450 300 pan 0;
#X text 190 183 * ~M_PI/2;
#X obj 117 175 * 1.5708;
#X obj 117 60 inlet;
#X obj 38 62 inlet~;
#X obj 39 351 outlet~;
#X obj 130 355 outlet~;
#X obj 58 207 cos;
#X obj 147 209 sin;
#X msg 168 132 0.5;
#X obj 201 133 f \$1;
#N canvas 0 22 715 450 check-arg 0;
#X obj 179 184 makefilename $%d-EMPTY;
#X obj 52 185 symbol \$1-EMPTY;
#X msg 69 156 bang;
#X obj 52 217 select DUMMY;
#X obj 52 39 loadbang;
#X obj 52 62 t b b;
#X obj 179 157 1;
#X obj 52 294 outlet;
#X text 182 85 Using an idiom by IOhannes;
#X msg 133 250 1;
#X msg 52 246 0;
#X text 182 247 Output 0 if no \$1 argument present \, and 1 if \$1
is present even if it's 0!;
#X connect 0 0 3 1;
#X connect 1 0 3 0;
#X connect 2 0 1 0;
#X connect 3 0 10 0;
#X connect 3 1 9 0;
#X connect 4 0 5 0;
#X connect 5 0 1 0;
#X connect 5 1 6 0;
#X connect 6 0 0 0;
#X connect 9 0 7 0;
#X connect 10 0 7 0;
#X restore 168 59 pd check-arg;
#X obj 168 85 select 0 1;
#X obj 130 324 *~;
#X obj 39 320 *~;
#X obj 147 293 line~;
#X obj 147 267 pack 0 10;
#X obj 58 296 line~;
#X obj 58 270 pack 0 10;
#N canvas 228 198 627 317 LICENSE-BSD 0;
#X text 121 56 This software is copyrighted by Miller Puckette \, Reality
Jockey Ltd. and others. The terms (the "Standard Improved BSD License")
apply to all files associated with the software unless explicitly disclaimed
in individual files.;
#X text 123 148 See the file LICENSE.txt for the full license text.
;
#X restore 403 50 pd LICENSE-BSD;
#X connect 1 0 6 0;
#X connect 1 0 7 0;
#X connect 2 0 1 0;
#X connect 3 0 12 0;
#X connect 3 0 13 0;
#X connect 6 0 17 0;
#X connect 7 0 15 0;
#X connect 8 0 1 0;
#X connect 9 0 1 0;
#X connect 10 0 11 0;
#X connect 11 0 8 0;
#X connect 11 1 9 0;
#X connect 12 0 5 0;
#X connect 13 0 4 0;
#X connect 14 0 12 1;
#X connect 15 0 14 0;
#X connect 16 0 13 1;
#X connect 17 0 16 0;
#X restore 145 167 pd pan;
#X obj 103 19 loadbang;
#X connect 0 0 8 1;
#X connect 1 0 0 0;
#X connect 2 0 1 0;
#X connect 5 0 8 0;
#X connect 8 0 6 0;
#X connect 8 1 7 0;
#X connect 9 0 2 0;
#X restore 417 166 pd pan4;
#N canvas 626 451 450 300 pan3 0;
#X floatatom 195 132 8 0 0 0 - - -;
#X obj 195 102 / 127;
#X obj 198 29 hsl 128 15 0 127 0 1 empty empty empty -2 -8 0 10 -262144
-1 -1 4400 1;
#X text 201 13 L < < < M > > > R;
#X text 332 31 Pan value;
#X obj 127 83 inlet~;
#X obj 77 215 outlet~ L;
#X obj 202 217 outlet~ R;
#N canvas 0 22 450 300 pan 0;
#X text 190 183 * ~M_PI/2;
#X obj 117 175 * 1.5708;
#X obj 117 60 inlet;
#X obj 38 62 inlet~;
#X obj 39 351 outlet~;
#X obj 130 355 outlet~;
#X obj 58 207 cos;
#X obj 147 209 sin;
#X msg 168 132 0.5;
#X obj 201 133 f \$1;
#N canvas 0 22 715 450 check-arg 0;
#X obj 179 184 makefilename $%d-EMPTY;
#X obj 52 185 symbol \$1-EMPTY;
#X msg 69 156 bang;
#X obj 52 217 select DUMMY;
#X obj 52 39 loadbang;
#X obj 52 62 t b b;
#X obj 179 157 1;
#X obj 52 294 outlet;
#X text 182 85 Using an idiom by IOhannes;
#X msg 133 250 1;
#X msg 52 246 0;
#X text 182 247 Output 0 if no \$1 argument present \, and 1 if \$1
is present even if it's 0!;
#X connect 0 0 3 1;
#X connect 1 0 3 0;
#X connect 2 0 1 0;
#X connect 3 0 10 0;
#X connect 3 1 9 0;
#X connect 4 0 5 0;
#X connect 5 0 1 0;
#X connect 5 1 6 0;
#X connect 6 0 0 0;
#X connect 9 0 7 0;
#X connect 10 0 7 0;
#X restore 168 59 pd check-arg;
#X obj 168 85 select 0 1;
#X obj 130 324 *~;
#X obj 39 320 *~;
#X obj 147 293 line~;
#X obj 147 267 pack 0 10;
#X obj 58 296 line~;
#X obj 58 270 pack 0 10;
#N canvas 228 198 627 317 LICENSE-BSD 0;
#X text 121 56 This software is copyrighted by Miller Puckette \, Reality
Jockey Ltd. and others. The terms (the "Standard Improved BSD License")
apply to all files associated with the software unless explicitly disclaimed
in individual files.;
#X text 123 148 See the file LICENSE.txt for the full license text.
;
#X restore 403 50 pd LICENSE-BSD;
#X connect 1 0 6 0;
#X connect 1 0 7 0;
#X connect 2 0 1 0;
#X connect 3 0 12 0;
#X connect 3 0 13 0;
#X connect 6 0 17 0;
#X connect 7 0 15 0;
#X connect 8 0 1 0;
#X connect 9 0 1 0;
#X connect 10 0 11 0;
#X connect 11 0 8 0;
#X connect 11 1 9 0;
#X connect 12 0 5 0;
#X connect 13 0 4 0;
#X connect 14 0 12 1;
#X connect 15 0 14 0;
#X connect 16 0 13 1;
#X connect 17 0 16 0;
#X restore 145 167 pd pan;
#X obj 114 17 loadbang;
#X connect 0 0 8 1;
#X connect 1 0 0 0;
#X connect 2 0 1 0;
#X connect 5 0 8 0;
#X connect 8 0 6 0;
#X connect 8 1 7 0;
#X connect 9 0 2 0;
#X restore 269 166 pd pan3;
#N canvas 626 451 450 300 pan5 0;
#X floatatom 195 132 8 0 0 0 - - -;
#X obj 195 102 / 127;
#X obj 198 29 hsl 128 15 0 127 0 1 empty empty empty -2 -8 0 10 -262144
-1 -1 3600 1;
#X text 201 13 L < < < M > > > R;
#X text 332 31 Pan value;
#X obj 127 83 inlet~;
#X obj 77 215 outlet~ L;
#X obj 202 217 outlet~ R;
#N canvas 0 22 450 300 pan 0;
#X text 190 183 * ~M_PI/2;
#X obj 117 175 * 1.5708;
#X obj 117 60 inlet;
#X obj 38 62 inlet~;
#X obj 39 351 outlet~;
#X obj 130 355 outlet~;
#X obj 58 207 cos;
#X obj 147 209 sin;
#X msg 168 132 0.5;
#X obj 201 133 f \$1;
#N canvas 0 22 715 450 check-arg 0;
#X obj 179 184 makefilename $%d-EMPTY;
#X obj 52 185 symbol \$1-EMPTY;
#X msg 69 156 bang;
#X obj 52 217 select DUMMY;
#X obj 52 39 loadbang;
#X obj 52 62 t b b;
#X obj 179 157 1;
#X obj 52 294 outlet;
#X text 182 85 Using an idiom by IOhannes;
#X msg 133 250 1;
#X msg 52 246 0;
#X text 182 247 Output 0 if no \$1 argument present \, and 1 if \$1
is present even if it's 0!;
#X connect 0 0 3 1;
#X connect 1 0 3 0;
#X connect 2 0 1 0;
#X connect 3 0 10 0;
#X connect 3 1 9 0;
#X connect 4 0 5 0;
#X connect 5 0 1 0;
#X connect 5 1 6 0;
#X connect 6 0 0 0;
#X connect 9 0 7 0;
#X connect 10 0 7 0;
#X restore 168 59 pd check-arg;
#X obj 168 85 select 0 1;
#X obj 130 324 *~;
#X obj 39 320 *~;
#X obj 147 293 line~;
#X obj 147 267 pack 0 10;
#X obj 58 296 line~;
#X obj 58 270 pack 0 10;
#N canvas 228 198 627 317 LICENSE-BSD 0;
#X text 121 56 This software is copyrighted by Miller Puckette \, Reality
Jockey Ltd. and others. The terms (the "Standard Improved BSD License")
apply to all files associated with the software unless explicitly disclaimed
in individual files.;
#X text 123 148 See the file LICENSE.txt for the full license text.
;
#X restore 403 50 pd LICENSE-BSD;
#X connect 1 0 6 0;
#X connect 1 0 7 0;
#X connect 2 0 1 0;
#X connect 3 0 12 0;
#X connect 3 0 13 0;
#X connect 6 0 17 0;
#X connect 7 0 15 0;
#X connect 8 0 1 0;
#X connect 9 0 1 0;
#X connect 10 0 11 0;
#X connect 11 0 8 0;
#X connect 11 1 9 0;
#X connect 12 0 5 0;
#X connect 13 0 4 0;
#X connect 14 0 12 1;
#X connect 15 0 14 0;
#X connect 16 0 13 1;
#X connect 17 0 16 0;
#X restore 145 167 pd pan;
#X obj 109 20 loadbang;
#X connect 0 0 8 1;
#X connect 1 0 0 0;
#X connect 2 0 1 0;
#X connect 5 0 8 0;
#X connect 8 0 6 0;
#X connect 8 1 7 0;
#X connect 9 0 2 0;
#X restore 532 177 pd pan5;
#N canvas 831 423 135 159 vu 0;
#X obj 32 51 env~;
#X obj 32 78 - 100;
#X obj 32 24 inlet~;
#X obj 31 109 s harpVU;
#X connect 0 0 1 0;
#X connect 1 0 3 0;
#X connect 2 0 0 0;
#X restore 499 252 pd vu;
#X connect 1 0 2 0;
#X connect 2 0 15 0;
#X connect 3 0 4 0;
#X connect 4 0 17 0;
#X connect 7 0 10 0;
#X connect 8 0 11 0;
#X connect 9 0 12 0;
#X connect 10 0 13 0;
#X connect 11 0 14 0;
#X connect 12 0 16 0;
#X connect 13 0 5 0;
#X connect 13 0 18 0;
#X connect 13 1 6 0;
#X connect 13 1 18 0;
#X connect 14 0 5 0;
#X connect 14 0 18 0;
#X connect 14 1 6 0;
#X connect 14 1 18 0;
#X connect 15 0 5 0;
#X connect 15 0 18 0;
#X connect 15 1 6 0;
#X connect 15 1 18 0;
#X connect 16 0 5 0;
#X connect 16 1 6 0;
#X connect 16 1 18 0;
#X connect 17 0 5 0;
#X connect 17 0 18 0;
#X connect 17 1 6 0;
#X connect 17 1 18 0;
#X restore 171 150 pd sumbixer for harp string;
#N canvas 327 279 736 404 string_2 0;
#N canvas 0 22 450 278 (subpatch) 0;
#X array harpString2 2.29771e+06 float 2;
#X coords 0 1 2.29771e+06 -1 200 140 1 0 0;
#X restore 476 38 graph;
#X obj 127 154 soundfiler;
#X obj 68 178 bng 15 250 50 0 empty empty empty 17 7 0 10 -262144 -1
-1;
#X obj 124 313 outlet~;
#X obj 28 124 t b b;
#X msg 126 124 read -resize sfx_windHarp_v0_01.wav harpString2;
#X obj 126 197 tabplay~ harpString2;
#X obj 41 19 loadbang;
#X obj 113 50 random 100;
#X floatatom 108 81 5 0 0 0 - - -;
#X obj 32 58 t b b;
#X obj 17 26 bng 15 250 50 0 empty empty empty 17 7 0 10 -262144 -1
-1;
#X floatatom 314 269 10 0 0 0 - - -;
#X obj 309 165 r windStrength;
#X floatatom 308 185 5 0 0 0 - - -;
#X obj 309 205 + 1;
#X obj 313 247 + 50;
#X obj 130 263 lop~;
#X obj 309 226 pow 18;
#X connect 1 0 6 0;
#X connect 2 0 6 0;
#X connect 4 0 2 0;
#X connect 4 1 5 0;
#X connect 5 0 1 0;
#X connect 6 0 17 0;
#X connect 6 1 2 0;
#X connect 7 0 8 0;
#X connect 7 0 10 0;
#X connect 8 0 9 0;
#X connect 10 0 4 0;
#X connect 10 1 8 0;
#X connect 11 0 10 0;
#X connect 12 0 17 1;
#X connect 13 0 14 0;
#X connect 14 0 15 0;
#X connect 15 0 18 0;
#X connect 16 0 12 0;
#X connect 17 0 3 0;
#X connect 18 0 16 0;
#X restore 157 37 pd string_2;
#N canvas 176 220 719 305 string_3 0;
#N canvas 0 22 450 278 (subpatch) 0;
#X array harpString3 1.73983e+06 float 2;
#X coords 0 1 1.73983e+06 -1 200 140 1 0 0;
#X restore 476 38 graph;
#X obj 131 152 soundfiler;
#X obj 72 176 bng 15 250 50 0 empty empty empty 17 7 0 10 -262144 -1
-1;
#X obj 135 288 outlet~;
#X obj 32 122 t b b;
#X obj 131 195 tabplay~ harpString3;
#X msg 130 122 read -resize sfx_windHarp_v0_02.wav harpString3;
#X obj 51 29 loadbang;
#X obj 123 60 random 100;
#X floatatom 118 91 5 0 0 0 - - -;
#X obj 42 68 t b b;
#X obj 27 36 bng 15 250 50 0 empty empty empty 17 7 0 10 -262144 -1
-1;
#X floatatom 324 279 10 0 0 0 - - -;
#X obj 319 175 r windStrength;
#X floatatom 318 195 5 0 0 0 - - -;
#X obj 319 215 + 1;
#X obj 323 257 + 50;
#X obj 138 241 lop~;
#X obj 320 236 pow 17;
#X connect 1 0 5 0;
#X connect 2 0 5 0;
#X connect 4 0 2 0;
#X connect 4 1 6 0;
#X connect 5 0 17 0;
#X connect 5 1 2 0;
#X connect 6 0 1 0;
#X connect 7 0 8 0;
#X connect 7 0 10 0;
#X connect 8 0 9 0;
#X connect 10 0 4 0;
#X connect 10 1 8 0;
#X connect 11 0 10 0;
#X connect 12 0 17 1;
#X connect 13 0 14 0;
#X connect 14 0 15 0;
#X connect 15 0 18 0;
#X connect 16 0 12 0;
#X connect 17 0 3 0;
#X connect 18 0 16 0;
#X restore 244 38 pd string_3;
#N canvas 437 350 719 305 string_4 0;
#N canvas 0 22 450 278 (subpatch) 0;
#X array harpString4 1.66469e+06 float 2;
#X coords 0 1 1.66469e+06 -1 200 140 1 0 0;
#X restore 476 38 graph;
#X obj 128 149 soundfiler;
#X obj 69 173 bng 15 250 50 0 empty empty empty 17 7 0 10 -262144 -1
-1;
#X obj 132 267 outlet~;
#X obj 29 119 t b b;
#X obj 129 193 tabplay~ harpString4;
#X msg 128 118 read -resize sfx_windHarp_v0_03.wav harpString4;
#X obj 49 26 loadbang;
#X obj 121 57 random 100;
#X floatatom 116 88 5 0 0 0 - - -;
#X obj 40 65 t b b;
#X obj 25 33 bng 15 250 50 0 empty empty empty 17 7 0 10 -262144 -1
-1;
#X floatatom 350 248 10 0 0 0 - - -;
#X obj 345 144 r windStrength;
#X floatatom 344 164 5 0 0 0 - - -;
#X obj 345 184 + 1;
#X obj 349 226 + 50;
#X obj 135 227 lop~;
#X obj 345 205 pow 14;
#X connect 1 0 5 0;
#X connect 2 0 5 0;
#X connect 4 0 2 0;
#X connect 4 1 6 0;
#X connect 5 0 17 0;
#X connect 5 1 2 0;
#X connect 6 0 1 0;
#X connect 7 0 8 0;
#X connect 7 0 10 0;
#X connect 8 0 9 0;
#X connect 10 0 4 0;
#X connect 10 1 8 0;
#X connect 11 0 10 0;
#X connect 12 0 17 1;
#X connect 13 0 14 0;
#X connect 14 0 15 0;
#X connect 15 0 18 0;
#X connect 16 0 12 0;
#X connect 17 0 3 0;
#X connect 18 0 16 0;
#X restore 332 39 pd string_4;
#N canvas 437 350 719 305 string_5 0;
#N canvas 0 22 450 278 (subpatch) 0;
#X array harpString5 1.19704e+06 float 2;
#X coords 0 1 1.19704e+06 -1 200 140 1 0 0;
#X restore 476 38 graph;
#X obj 133 158 soundfiler;
#X obj 74 182 bng 15 250 50 0 empty empty empty 17 7 0 10 -262144 -1
-1;
#X obj 142 250 outlet~;
#X obj 34 128 t b b;
#X obj 133 201 tabplay~ harpString5;
#X msg 132 128 read -resize sfx_windHarp_v0_04.wav harpString5;
#X obj 58 17 loadbang;
#X obj 130 48 random 100;
#X floatatom 125 79 5 0 0 0 - - -;
#X obj 49 56 t b b;
#X obj 34 24 bng 15 250 50 0 empty empty empty 17 7 0 10 -262144 -1
-1;
#X floatatom 360 258 10 0 0 0 - - -;
#X obj 355 154 r windStrength;
#X floatatom 354 174 5 0 0 0 - - -;
#X obj 355 194 + 1;
#X obj 359 236 + 50;
#X obj 140 226 lop~;
#X obj 355 215 pow 15;
#X connect 1 0 5 0;
#X connect 2 0 5 0;
#X connect 4 0 2 0;
#X connect 4 1 6 0;
#X connect 5 0 17 0;
#X connect 5 1 2 0;
#X connect 6 0 1 0;
#X connect 7 0 8 0;
#X connect 7 0 10 0;
#X connect 8 0 9 0;
#X connect 10 0 4 0;
#X connect 10 1 8 0;
#X connect 11 0 10 0;
#X connect 12 0 17 1;
#X connect 13 0 14 0;
#X connect 14 0 15 0;
#X connect 15 0 18 0;
#X connect 16 0 12 0;
#X connect 17 0 3 0;
#X connect 18 0 16 0;
#X restore 414 39 pd string_5;
#N canvas 697 347 516 257 windmixer 1;
#X obj 51 89 vsl 15 128 0 1 0 0 string1Vol string1VolUI empty 0 -9
0 10 -262144 -1 -1 4011 1;
#X obj 84 89 vsl 15 128 0 1 0 0 string2Vol string2VolUI empty 0 -9
0 10 -262144 -1 -1 8021 1;
#X obj 119 89 vsl 15 128 0 1 0 0 string3Vol string3VolUI empty 0 -9
0 10 -262144 -1 -1 8331 1;
#X obj 152 90 vsl 15 128 0 1 0 0 string4Vol string4VolUI empty 0 -9
0 10 -262144 -1 -1 6736 1;
#X obj 183 90 vsl 15 128 0 1 0 0 string5Vol string5VolUI empty 0 -9
0 10 -262144 -1 -1 8583 1;
#X floatatom 293 181 5 0 0 0 - - -;
#X obj 294 205 s windStrength;
#X obj 296 96 hsl 128 15 0 1 0 1 empty empty Wind_Strength -2 -8 0
10 -262144 -1 -1 12700 1;
#X obj 260 6 r windstrengthUnity;
#X floatatom 260 28 5 0 0 0 - - -;
#N canvas 137 349 668 163 randomFaders 1;
#N canvas 200 316 500 445 string1Fader 1;
#X floatatom 52 372 5 0 0 0 - - -;
#X floatatom 135 208 5 0 0 0 - - -;
#X obj 132 130 bng 15 250 50 0 empty empty empty 17 7 0 10 -262144
-1 -1;
#N canvas 621 372 511 438 random 0;
#X obj 90 40 inlet;
#X obj 90 64 bng 15 250 50 0 empty empty empty 17 7 0 10 -262144 -1
-1;
#X obj 189 180 f;
#X obj 173 217 ==;
#X obj 91 281 f;
#X obj 92 308 sel 0;
#X obj 170 309 sel 1;
#X obj 92 338 f;
#X obj 92 385 outlet;
#X obj 99 144 trigger bang float bang float;
#X floatatom 166 387 5 0 0 0 - - -;
#X text 194 38 Define number range;
#X text 204 387 Test output;
#X text 37 37 Trigger;
#X text 37 14 Prevents a random number to repeat consecutively.;
#X text 330 400 pip;
#X obj 90 104 random 10;
#X connect 0 0 1 0;
#X connect 1 0 16 0;
#X connect 2 0 3 0;
#X connect 3 0 4 1;
#X connect 4 0 5 0;
#X connect 4 0 6 0;
#X connect 5 0 7 0;
#X connect 6 0 16 0;
#X connect 7 0 8 0;
#X connect 7 0 10 0;
#X connect 9 0 4 0;
#X connect 9 1 2 1;
#X connect 9 2 2 0;
#X connect 9 3 7 1;
#X connect 9 3 3 1;
#X connect 16 0 9 0;
#X restore 135 156 pd random 10;
#X floatatom 127 288 5 0 0 0 - - -;
#X obj 189 122 t b b;
#X obj 163 108 bng 15 250 50 0 empty empty empty 17 7 0 10 -262144
-1 -1;
#X obj 124 309 pack f f;
#X obj 52 336 line;
#X msg 228 286 \$1;
#X floatatom 289 251 5 0 0 0 - - -;
#X obj 163 81 delay \$1;
#X obj 294 152 bng 15 250 50 0 empty empty empty 17 7 0 10 -262144
-1 -1;
#X obj 143 25 tgl 15 0 empty empty empty 17 7 0 10 -262144 -1 -1 1
1;
#X obj 141 234 / 9.5;
#X obj 288 228 max 2000;
#N canvas 621 372 511 438 random 0;
#X obj 90 40 inlet;
#X obj 90 64 bng 15 250 50 0 empty empty empty 17 7 0 10 -262144 -1
-1;
#X obj 189 180 f;
#X obj 173 217 ==;
#X obj 91 281 f;
#X obj 92 308 sel 0;
#X obj 170 309 sel 1;
#X obj 92 338 f;
#X obj 92 385 outlet;
#X obj 99 144 trigger bang float bang float;
#X floatatom 166 387 5 0 0 0 - - -;
#X text 194 38 Define number range;
#X text 204 387 Test output;
#X text 37 37 Trigger;
#X text 37 14 Prevents a random number to repeat consecutively.;
#X text 330 400 pip;
#X obj 91 104 random 4000;
#X connect 0 0 1 0;
#X connect 1 0 16 0;
#X connect 2 0 3 0;
#X connect 3 0 4 1;
#X connect 4 0 5 0;
#X connect 4 0 6 0;
#X connect 5 0 7 0;
#X connect 6 0 16 0;
#X connect 7 0 8 0;
#X connect 7 0 10 0;
#X connect 9 0 4 0;
#X connect 9 1 2 1;
#X connect 9 2 2 0;
#X connect 9 3 7 1;
#X connect 9 3 3 1;
#X connect 16 0 9 0;
#X restore 284 204 pd random 4000;
#X obj 123 3 loadbang;
#X obj 53 401 s string1Vol;
#X msg 215 375 set \$1;
#X obj 215 397 s string1VolUI;
#X floatatom 283 88 5 0 0 0 - - -;
#X obj 265 107 max 2000;
#N canvas 621 372 511 438 random 0;
#X obj 90 40 inlet;
#X obj 90 64 bng 15 250 50 0 empty empty empty 17 7 0 10 -262144 -1
-1;
#X obj 189 180 f;
#X obj 173 217 ==;
#X obj 91 281 f;
#X obj 92 308 sel 0;
#X obj 170 309 sel 1;
#X obj 92 338 f;
#X obj 92 385 outlet;
#X obj 99 144 trigger bang float bang float;
#X floatatom 166 387 5 0 0 0 - - -;
#X text 194 38 Define number range;
#X text 204 387 Test output;
#X text 37 37 Trigger;
#X text 37 14 Prevents a random number to repeat consecutively.;
#X text 330 400 pip;
#X obj 91 104 random 4000;
#X connect 0 0 1 0;
#X connect 1 0 16 0;
#X connect 2 0 3 0;
#X connect 3 0 4 1;
#X connect 4 0 5 0;
#X connect 4 0 6 0;
#X connect 5 0 7 0;
#X connect 6 0 16 0;
#X connect 7 0 8 0;
#X connect 7 0 10 0;
#X connect 9 0 4 0;
#X connect 9 1 2 1;
#X connect 9 2 2 0;
#X connect 9 3 7 1;
#X connect 9 3 3 1;
#X connect 16 0 9 0;
#X restore 270 59 pd random 4000;
#X obj 158 47 metro 2000;
#X obj 136 183 max 0.3;
#X obj 137 262 max 0.3;
#X connect 0 0 18 0;
#X connect 0 0 19 0;
#X connect 1 0 14 0;
#X connect 2 0 3 0;
#X connect 3 0 25 0;
#X connect 4 0 7 0;
#X connect 5 0 2 0;
#X connect 5 1 16 0;
#X connect 6 0 5 0;
#X connect 7 0 8 0;
#X connect 8 0 0 0;
#X connect 9 0 7 1;
#X connect 10 0 9 0;
#X connect 10 0 24 1;
#X connect 11 0 6 0;
#X connect 12 0 16 0;
#X connect 13 0 24 0;
#X connect 14 0 26 0;
#X connect 15 0 10 0;
#X connect 16 0 15 0;
#X connect 17 0 13 0;
#X connect 19 0 20 0;
#X connect 21 0 22 0;
#X connect 22 0 11 1;
#X connect 23 0 21 0;
#X connect 24 0 23 0;
#X connect 24 0 11 0;
#X connect 25 0 1 0;
#X connect 26 0 4 0;
#X restore 68 83 pd string1Fader;
#N canvas 200 316 500 445 string2Fader 0;
#X floatatom 52 372 5 0 0 0 - - -;
#X floatatom 135 208 5 0 0 0 - - -;
#X obj 132 130 bng 15 250 50 0 empty empty empty 17 7 0 10 -262144
-1 -1;
#N canvas 621 372 511 438 random 0;
#X obj 90 40 inlet;
#X obj 90 64 bng 15 250 50 0 empty empty empty 17 7 0 10 -262144 -1
-1;
#X obj 189 180 f;
#X obj 173 217 ==;
#X obj 91 281 f;
#X obj 92 308 sel 0;
#X obj 170 309 sel 1;
#X obj 92 338 f;
#X obj 92 385 outlet;
#X obj 99 144 trigger bang float bang float;
#X floatatom 166 387 5 0 0 0 - - -;
#X text 194 38 Define number range;
#X text 204 387 Test output;
#X text 37 37 Trigger;
#X text 37 14 Prevents a random number to repeat consecutively.;
#X text 330 400 pip;
#X obj 90 104 random 10;
#X connect 0 0 1 0;
#X connect 1 0 16 0;
#X connect 2 0 3 0;
#X connect 3 0 4 1;
#X connect 4 0 5 0;
#X connect 4 0 6 0;
#X connect 5 0 7 0;
#X connect 6 0 16 0;
#X connect 7 0 8 0;
#X connect 7 0 10 0;
#X connect 9 0 4 0;
#X connect 9 1 2 1;
#X connect 9 2 2 0;
#X connect 9 3 7 1;
#X connect 9 3 3 1;
#X connect 16 0 9 0;
#X restore 135 156 pd random 10;
#X floatatom 127 288 5 0 0 0 - - -;
#X obj 189 122 t b b;
#X obj 163 108 bng 15 250 50 0 empty empty empty 17 7 0 10 -262144
-1 -1;
#X obj 124 309 pack f f;
#X obj 52 336 line;
#X msg 228 286 \$1;
#X floatatom 289 251 5 0 0 0 - - -;
#X obj 163 81 delay \$1;
#X obj 294 152 bng 15 250 50 0 empty empty empty 17 7 0 10 -262144
-1 -1;
#X obj 143 25 tgl 15 0 empty empty empty 17 7 0 10 -262144 -1 -1 1
1;
#X obj 141 234 / 9.5;
#X obj 289 229 max 2000;
#X obj 136 183 max 0.2;
#X obj 137 262 max 0.2;
#X obj 123 3 loadbang;
#X msg 215 375 set \$1;
#X obj 53 401 s string2Vol;
#X obj 216 398 s string2VolUI;
#N canvas 621 372 511 438 random 0;
#X obj 90 40 inlet;
#X obj 90 64 bng 15 250 50 0 empty empty empty 17 7 0 10 -262144 -1
-1;
#X obj 189 180 f;
#X obj 173 217 ==;
#X obj 91 281 f;
#X obj 92 308 sel 0;
#X obj 170 309 sel 1;
#X obj 92 338 f;
#X obj 92 385 outlet;
#X obj 99 144 trigger bang float bang float;
#X floatatom 166 387 5 0 0 0 - - -;
#X text 194 38 Define number range;
#X text 204 387 Test output;
#X text 37 37 Trigger;
#X text 37 14 Prevents a random number to repeat consecutively.;
#X text 330 400 pip;
#X obj 91 104 random 4000;
#X connect 0 0 1 0;
#X connect 1 0 16 0;
#X connect 2 0 3 0;
#X connect 3 0 4 1;
#X connect 4 0 5 0;
#X connect 4 0 6 0;
#X connect 5 0 7 0;
#X connect 6 0 16 0;
#X connect 7 0 8 0;
#X connect 7 0 10 0;
#X connect 9 0 4 0;
#X connect 9 1 2 1;
#X connect 9 2 2 0;
#X connect 9 3 7 1;
#X connect 9 3 3 1;
#X connect 16 0 9 0;
#X restore 284 204 pd random 4500;
#X floatatom 293 98 5 0 0 0 - - -;
#X obj 275 117 max 2000;
#N canvas 621 372 511 438 random 0;
#X obj 90 40 inlet;
#X obj 90 64 bng 15 250 50 0 empty empty empty 17 7 0 10 -262144 -1
-1;
#X obj 189 180 f;
#X obj 173 217 ==;
#X obj 91 281 f;
#X obj 92 308 sel 0;
#X obj 170 309 sel 1;
#X obj 92 338 f;
#X obj 92 385 outlet;
#X obj 99 144 trigger bang float bang float;
#X floatatom 166 387 5 0 0 0 - - -;
#X text 194 38 Define number range;
#X text 204 387 Test output;
#X text 37 37 Trigger;
#X text 37 14 Prevents a random number to repeat consecutively.;
#X text 330 400 pip;
#X obj 91 104 random 4000;
#X connect 0 0 1 0;
#X connect 1 0 16 0;
#X connect 2 0 3 0;
#X connect 3 0 4 1;
#X connect 4 0 5 0;
#X connect 4 0 6 0;
#X connect 5 0 7 0;
#X connect 6 0 16 0;
#X connect 7 0 8 0;
#X connect 7 0 10 0;
#X connect 9 0 4 0;
#X connect 9 1 2 1;
#X connect 9 2 2 0;
#X connect 9 3 7 1;
#X connect 9 3 3 1;
#X connect 16 0 9 0;
#X restore 280 69 pd random 4000;
#X obj 158 47 metro 1751;
#X connect 0 0 19 0;
#X connect 0 0 20 0;
#X connect 1 0 14 0;
#X connect 2 0 3 0;
#X connect 3 0 16 0;
#X connect 4 0 7 0;
#X connect 5 0 2 0;
#X connect 5 1 22 0;
#X connect 6 0 5 0;
#X connect 7 0 8 0;
#X connect 8 0 0 0;
#X connect 9 0 7 1;
#X connect 10 0 9 0;
#X connect 10 0 26 1;
#X connect 11 0 6 0;
#X connect 12 0 22 0;
#X connect 13 0 26 0;
#X connect 14 0 17 0;
#X connect 15 0 10 0;
#X connect 16 0 1 0;
#X connect 17 0 4 0;
#X connect 18 0 13 0;
#X connect 19 0 21 0;
#X connect 22 0 15 0;
#X connect 23 0 24 0;
#X connect 24 0 11 1;
#X connect 25 0 23 0;
#X connect 26 0 11 0;
#X connect 26 0 25 0;
#X restore 191 82 pd string2Fader;
#N canvas 200 316 500 445 string3Fader 0;
#X floatatom 52 372 5 0 0 0 - - -;
#X floatatom 135 208 5 0 0 0 - - -;
#X obj 132 130 bng 15 250 50 0 empty empty empty 17 7 0 10 -262144
-1 -1;
#N canvas 621 372 511 438 random 0;
#X obj 90 40 inlet;
#X obj 90 64 bng 15 250 50 0 empty empty empty 17 7 0 10 -262144 -1
-1;
#X obj 189 180 f;
#X obj 173 217 ==;
#X obj 91 281 f;
#X obj 92 308 sel 0;
#X obj 170 309 sel 1;
#X obj 92 338 f;
#X obj 92 385 outlet;
#X obj 99 144 trigger bang float bang float;
#X floatatom 166 387 5 0 0 0 - - -;
#X text 194 38 Define number range;
#X text 204 387 Test output;
#X text 37 37 Trigger;
#X text 37 14 Prevents a random number to repeat consecutively.;
#X text 330 400 pip;
#X obj 90 104 random 10;
#X connect 0 0 1 0;
#X connect 1 0 16 0;
#X connect 2 0 3 0;
#X connect 3 0 4 1;
#X connect 4 0 5 0;
#X connect 4 0 6 0;
#X connect 5 0 7 0;
#X connect 6 0 16 0;
#X connect 7 0 8 0;
#X connect 7 0 10 0;
#X connect 9 0 4 0;
#X connect 9 1 2 1;
#X connect 9 2 2 0;
#X connect 9 3 7 1;
#X connect 9 3 3 1;
#X connect 16 0 9 0;
#X restore 135 156 pd random 10;
#X floatatom 127 288 5 0 0 0 - - -;
#X obj 189 122 t b b;
#X obj 163 108 bng 15 250 50 0 empty empty empty 17 7 0 10 -262144
-1 -1;
#X obj 124 309 pack f f;
#X obj 52 336 line;
#X msg 228 286 \$1;
#X floatatom 289 251 5 0 0 0 - - -;
#X obj 163 81 delay \$1;
#X obj 294 152 bng 15 250 50 0 empty empty empty 17 7 0 10 -262144
-1 -1;
#X obj 143 25 tgl 15 0 empty empty empty 17 7 0 10 -262144 -1 -1 1
1;
#X obj 141 234 / 9.5;
#X obj 136 183 max 0.2;
#X obj 137 262 max 0.2;
#X obj 123 3 loadbang;
#X msg 215 375 set \$1;
#X obj 53 400 s string3Vol;
#X obj 215 397 s string3VolUI;
#N canvas 621 372 511 438 random 0;
#X obj 90 40 inlet;
#X obj 90 64 bng 15 250 50 0 empty empty empty 17 7 0 10 -262144 -1
-1;
#X obj 189 180 f;
#X obj 173 217 ==;
#X obj 91 281 f;
#X obj 92 308 sel 0;
#X obj 170 309 sel 1;
#X obj 92 338 f;
#X obj 92 385 outlet;
#X obj 99 144 trigger bang float bang float;
#X floatatom 166 387 5 0 0 0 - - -;
#X text 194 38 Define number range;
#X text 204 387 Test output;
#X text 37 37 Trigger;
#X text 37 14 Prevents a random number to repeat consecutively.;
#X text 330 400 pip;
#X obj 91 104 random 4000;
#X connect 0 0 1 0;
#X connect 1 0 16 0;
#X connect 2 0 3 0;
#X connect 3 0 4 1;
#X connect 4 0 5 0;
#X connect 4 0 6 0;
#X connect 5 0 7 0;
#X connect 6 0 16 0;
#X connect 7 0 8 0;
#X connect 7 0 10 0;
#X connect 9 0 4 0;
#X connect 9 1 2 1;
#X connect 9 2 2 0;
#X connect 9 3 7 1;
#X connect 9 3 3 1;
#X connect 16 0 9 0;
#X restore 284 204 pd random 4700;
#X obj 289 229 max 2900;
#X floatatom 388 75 5 0 0 0 - - -;
#X obj 370 94 max 2000;
#N canvas 621 372 511 438 random 0;
#X obj 90 40 inlet;
#X obj 90 64 bng 15 250 50 0 empty empty empty 17 7 0 10 -262144 -1
-1;
#X obj 189 180 f;
#X obj 173 217 ==;
#X obj 91 281 f;
#X obj 92 308 sel 0;
#X obj 170 309 sel 1;
#X obj 92 338 f;
#X obj 92 385 outlet;
#X obj 99 144 trigger bang float bang float;
#X floatatom 166 387 5 0 0 0 - - -;
#X text 194 38 Define number range;
#X text 204 387 Test output;
#X text 37 37 Trigger;
#X text 37 14 Prevents a random number to repeat consecutively.;
#X text 330 400 pip;
#X obj 91 104 random 4000;
#X connect 0 0 1 0;
#X connect 1 0 16 0;
#X connect 2 0 3 0;
#X connect 3 0 4 1;
#X connect 4 0 5 0;
#X connect 4 0 6 0;
#X connect 5 0 7 0;
#X connect 6 0 16 0;
#X connect 7 0 8 0;
#X connect 7 0 10 0;
#X connect 9 0 4 0;
#X connect 9 1 2 1;
#X connect 9 2 2 0;
#X connect 9 3 7 1;
#X connect 9 3 3 1;
#X connect 16 0 9 0;
#X restore 375 46 pd random 4000;
#X obj 158 47 metro 5000;
#X connect 0 0 18 0;
#X connect 0 0 19 0;
#X connect 1 0 14 0;
#X connect 2 0 3 0;
#X connect 3 0 15 0;
#X connect 4 0 7 0;
#X connect 5 0 2 0;
#X connect 5 1 21 0;
#X connect 6 0 5 0;
#X connect 7 0 8 0;
#X connect 8 0 0 0;
#X connect 9 0 7 1;
#X connect 10 0 9 0;
#X connect 10 0 26 1;
#X connect 11 0 6 0;
#X connect 12 0 21 0;
#X connect 13 0 26 0;
#X connect 14 0 16 0;
#X connect 15 0 1 0;
#X connect 16 0 4 0;
#X connect 17 0 13 0;
#X connect 18 0 20 0;
#X connect 21 0 22 0;
#X connect 22 0 10 0;
#X connect 23 0 24 0;
#X connect 24 0 11 1;
#X connect 25 0 23 0;
#X connect 26 0 11 0;
#X connect 26 0 25 0;
#X restore 300 83 pd string3Fader;
#N canvas 200 316 500 445 string4Fader 0;
#X floatatom 52 372 5 0 0 0 - - -;
#X floatatom 135 208 5 0 0 0 - - -;
#X obj 132 130 bng 15 250 50 0 empty empty empty 17 7 0 10 -262144
-1 -1;
#N canvas 621 372 511 438 random 0;
#X obj 90 40 inlet;
#X obj 90 64 bng 15 250 50 0 empty empty empty 17 7 0 10 -262144 -1
-1;
#X obj 189 180 f;
#X obj 173 217 ==;
#X obj 91 281 f;
#X obj 92 308 sel 0;
#X obj 170 309 sel 1;
#X obj 92 338 f;
#X obj 92 385 outlet;
#X obj 99 144 trigger bang float bang float;
#X floatatom 166 387 5 0 0 0 - - -;
#X text 194 38 Define number range;
#X text 204 387 Test output;
#X text 37 37 Trigger;
#X text 37 14 Prevents a random number to repeat consecutively.;
#X text 330 400 pip;
#X obj 90 104 random 10;
#X connect 0 0 1 0;
#X connect 1 0 16 0;
#X connect 2 0 3 0;
#X connect 3 0 4 1;
#X connect 4 0 5 0;
#X connect 4 0 6 0;
#X connect 5 0 7 0;
#X connect 6 0 16 0;
#X connect 7 0 8 0;
#X connect 7 0 10 0;
#X connect 9 0 4 0;
#X connect 9 1 2 1;
#X connect 9 2 2 0;
#X connect 9 3 7 1;
#X connect 9 3 3 1;
#X connect 16 0 9 0;
#X restore 135 156 pd random 10;
#X floatatom 127 288 5 0 0 0 - - -;
#X obj 189 122 t b b;
#X obj 163 108 bng 15 250 50 0 empty empty empty 17 7 0 10 -262144
-1 -1;
#X obj 124 309 pack f f;
#X obj 52 336 line;
#X msg 228 286 \$1;
#X floatatom 289 251 5 0 0 0 - - -;
#X obj 163 81 delay \$1;
#X obj 294 152 bng 15 250 50 0 empty empty empty 17 7 0 10 -262144
-1 -1;
#X obj 143 25 tgl 15 0 empty empty empty 17 7 0 10 -262144 -1 -1 1
1;
#X obj 141 234 / 9.5;
#X obj 136 183 max 0.2;
#X obj 137 262 max 0.2;
#X obj 123 3 loadbang;
#X msg 215 375 set \$1;
#X obj 53 401 s string4Vol;
#X obj 215 397 s string4VolUI;
#N canvas 621 372 511 438 random 0;
#X obj 90 40 inlet;
#X obj 90 64 bng 15 250 50 0 empty empty empty 17 7 0 10 -262144 -1
-1;
#X obj 189 180 f;
#X obj 173 217 ==;
#X obj 91 281 f;
#X obj 92 308 sel 0;
#X obj 170 309 sel 1;
#X obj 92 338 f;
#X obj 92 385 outlet;
#X obj 99 144 trigger bang float bang float;
#X floatatom 166 387 5 0 0 0 - - -;
#X text 194 38 Define number range;
#X text 204 387 Test output;
#X text 37 37 Trigger;
#X text 37 14 Prevents a random number to repeat consecutively.;
#X text 330 400 pip;
#X obj 91 104 random 4000;
#X connect 0 0 1 0;
#X connect 1 0 16 0;
#X connect 2 0 3 0;
#X connect 3 0 4 1;
#X connect 4 0 5 0;
#X connect 4 0 6 0;
#X connect 5 0 7 0;
#X connect 6 0 16 0;
#X connect 7 0 8 0;
#X connect 7 0 10 0;
#X connect 9 0 4 0;
#X connect 9 1 2 1;
#X connect 9 2 2 0;
#X connect 9 3 7 1;
#X connect 9 3 3 1;
#X connect 16 0 9 0;
#X restore 284 204 pd random 5500;
#X obj 288 229 max 3500;
#X floatatom 301 64 5 0 0 0 - - -;
#X obj 283 83 max 2000;
#N canvas 621 372 511 438 random 0;
#X obj 90 40 inlet;
#X obj 90 64 bng 15 250 50 0 empty empty empty 17 7 0 10 -262144 -1
-1;
#X obj 189 180 f;
#X obj 173 217 ==;
#X obj 91 281 f;
#X obj 92 308 sel 0;
#X obj 170 309 sel 1;
#X obj 92 338 f;
#X obj 92 385 outlet;
#X obj 99 144 trigger bang float bang float;
#X floatatom 166 387 5 0 0 0 - - -;
#X text 194 38 Define number range;
#X text 204 387 Test output;
#X text 37 37 Trigger;
#X text 37 14 Prevents a random number to repeat consecutively.;
#X text 330 400 pip;
#X obj 91 104 random 4000;
#X connect 0 0 1 0;
#X connect 1 0 16 0;
#X connect 2 0 3 0;
#X connect 3 0 4 1;
#X connect 4 0 5 0;
#X connect 4 0 6 0;
#X connect 5 0 7 0;
#X connect 6 0 16 0;
#X connect 7 0 8 0;
#X connect 7 0 10 0;
#X connect 9 0 4 0;
#X connect 9 1 2 1;
#X connect 9 2 2 0;
#X connect 9 3 7 1;
#X connect 9 3 3 1;
#X connect 16 0 9 0;
#X restore 288 35 pd random 4000;
#X obj 158 47 metro 3315;
#X connect 0 0 18 0;
#X connect 0 0 19 0;
#X connect 1 0 14 0;
#X connect 2 0 3 0;
#X connect 3 0 15 0;
#X connect 4 0 7 0;
#X connect 5 0 2 0;
#X connect 5 1 21 0;
#X connect 6 0 5 0;
#X connect 7 0 8 0;
#X connect 8 0 0 0;
#X connect 9 0 7 1;
#X connect 10 0 9 0;
#X connect 10 0 26 1;
#X connect 11 0 6 0;
#X connect 12 0 21 0;
#X connect 13 0 26 0;
#X connect 14 0 16 0;
#X connect 15 0 1 0;
#X connect 16 0 4 0;
#X connect 17 0 13 0;
#X connect 18 0 20 0;
#X connect 21 0 22 0;
#X connect 22 0 10 0;
#X connect 23 0 24 0;
#X connect 24 0 11 1;
#X connect 25 0 23 0;
#X connect 26 0 11 0;
#X connect 26 0 25 0;
#X restore 401 83 pd string4Fader;
#N canvas 200 316 500 445 string5Fader 0;
#X floatatom 52 372 5 0 0 0 - - -;
#X floatatom 135 208 5 0 0 0 - - -;
#X obj 132 130 bng 15 250 50 0 empty empty empty 17 7 0 10 -262144
-1 -1;
#N canvas 621 372 511 438 random 0;
#X obj 90 40 inlet;
#X obj 90 64 bng 15 250 50 0 empty empty empty 17 7 0 10 -262144 -1
-1;
#X obj 189 180 f;
#X obj 173 217 ==;
#X obj 91 281 f;
#X obj 92 308 sel 0;
#X obj 170 309 sel 1;
#X obj 92 338 f;
#X obj 92 385 outlet;
#X obj 99 144 trigger bang float bang float;
#X floatatom 166 387 5 0 0 0 - - -;
#X text 194 38 Define number range;
#X text 204 387 Test output;
#X text 37 37 Trigger;
#X text 37 14 Prevents a random number to repeat consecutively.;
#X text 330 400 pip;
#X obj 90 104 random 10;
#X connect 0 0 1 0;
#X connect 1 0 16 0;
#X connect 2 0 3 0;
#X connect 3 0 4 1;
#X connect 4 0 5 0;
#X connect 4 0 6 0;
#X connect 5 0 7 0;
#X connect 6 0 16 0;
#X connect 7 0 8 0;
#X connect 7 0 10 0;
#X connect 9 0 4 0;
#X connect 9 1 2 1;
#X connect 9 2 2 0;
#X connect 9 3 7 1;
#X connect 9 3 3 1;
#X connect 16 0 9 0;
#X restore 135 156 pd random 10;
#X floatatom 127 288 5 0 0 0 - - -;
#X obj 189 122 t b b;
#X obj 163 108 bng 15 250 50 0 empty empty empty 17 7 0 10 -262144
-1 -1;
#X obj 124 309 pack f f;
#X obj 52 336 line;
#X msg 228 286 \$1;
#X floatatom 289 251 5 0 0 0 - - -;
#X obj 163 81 delay \$1;
#X obj 294 152 bng 15 250 50 0 empty empty empty 17 7 0 10 -262144
-1 -1;
#X obj 143 25 tgl 15 0 empty empty empty 17 7 0 10 -262144 -1 -1 1
1;
#X obj 141 234 / 9.5;
#X obj 136 183 max 0.2;
#X obj 137 262 max 0.2;
#X obj 123 3 loadbang;
#X msg 215 375 set \$1;
#X obj 53 401 s string5Vol;
#X obj 215 397 s string5VolUI;
#N canvas 621 372 511 438 random 0;
#X obj 90 40 inlet;
#X obj 90 64 bng 15 250 50 0 empty empty empty 17 7 0 10 -262144 -1
-1;
#X obj 189 180 f;
#X obj 173 217 ==;
#X obj 91 281 f;
#X obj 92 308 sel 0;
#X obj 170 309 sel 1;
#X obj 92 338 f;
#X obj 92 385 outlet;
#X obj 99 144 trigger bang float bang float;
#X floatatom 166 387 5 0 0 0 - - -;
#X text 194 38 Define number range;
#X text 204 387 Test output;
#X text 37 37 Trigger;
#X text 37 14 Prevents a random number to repeat consecutively.;
#X text 330 400 pip;
#X obj 91 104 random 4000;
#X connect 0 0 1 0;
#X connect 1 0 16 0;
#X connect 2 0 3 0;
#X connect 3 0 4 1;
#X connect 4 0 5 0;
#X connect 4 0 6 0;
#X connect 5 0 7 0;
#X connect 6 0 16 0;
#X connect 7 0 8 0;
#X connect 7 0 10 0;
#X connect 9 0 4 0;
#X connect 9 1 2 1;
#X connect 9 2 2 0;
#X connect 9 3 7 1;
#X connect 9 3 3 1;
#X connect 16 0 9 0;
#X restore 284 204 pd random 6000;
#X obj 288 229 max 3000;
#X floatatom 336 49 5 0 0 0 - - -;
#X obj 318 68 max 2000;
#N canvas 621 372 511 438 random 0;
#X obj 90 40 inlet;
#X obj 90 64 bng 15 250 50 0 empty empty empty 17 7 0 10 -262144 -1
-1;
#X obj 189 180 f;
#X obj 173 217 ==;
#X obj 91 281 f;
#X obj 92 308 sel 0;
#X obj 170 309 sel 1;
#X obj 92 338 f;
#X obj 92 385 outlet;
#X obj 99 144 trigger bang float bang float;
#X floatatom 166 387 5 0 0 0 - - -;
#X text 194 38 Define number range;
#X text 204 387 Test output;
#X text 37 37 Trigger;
#X text 37 14 Prevents a random number to repeat consecutively.;
#X text 330 400 pip;
#X obj 91 104 random 4000;
#X connect 0 0 1 0;
#X connect 1 0 16 0;
#X connect 2 0 3 0;
#X connect 3 0 4 1;
#X connect 4 0 5 0;
#X connect 4 0 6 0;
#X connect 5 0 7 0;
#X connect 6 0 16 0;
#X connect 7 0 8 0;
#X connect 7 0 10 0;
#X connect 9 0 4 0;
#X connect 9 1 2 1;
#X connect 9 2 2 0;
#X connect 9 3 7 1;
#X connect 9 3 3 1;
#X connect 16 0 9 0;
#X restore 323 20 pd random 3000;
#X obj 158 47 metro 4512;
#X connect 0 0 18 0;
#X connect 0 0 19 0;
#X connect 1 0 14 0;
#X connect 2 0 3 0;
#X connect 3 0 15 0;
#X connect 4 0 7 0;
#X connect 5 0 2 0;
#X connect 5 1 21 0;
#X connect 6 0 5 0;
#X connect 7 0 8 0;
#X connect 8 0 0 0;
#X connect 9 0 7 1;
#X connect 10 0 9 0;
#X connect 10 0 26 1;
#X connect 11 0 6 0;
#X connect 12 0 21 0;
#X connect 13 0 26 0;
#X connect 14 0 16 0;
#X connect 15 0 1 0;
#X connect 16 0 4 0;
#X connect 17 0 13 0;
#X connect 18 0 20 0;
#X connect 21 0 22 0;
#X connect 22 0 10 0;
#X connect 23 0 24 0;
#X connect 24 0 11 1;
#X connect 25 0 23 0;
#X connect 26 0 11 0;
#X connect 26 0 25 0;
#X restore 506 86 pd string5Fader;
#X restore 324 138 pd randomFaders;
#X text 294 51 add to unity -->windstaerke zonen;
#X connect 5 0 6 0;
#X connect 7 0 5 0;
#X connect 8 0 9 0;
#X restore 475 87 pd windmixer;
#X connect 0 0 1 0;
#X connect 2 0 1 1;
#X connect 3 0 1 2;
#X connect 4 0 1 3;
#X connect 5 0 1 4;
#X restore 219 28 pd harp;
#X obj 216 83 catch~ harp_submixL;
#X obj 237 104 catch~ harp_submixR;
#X floatatom 219 54 5 0 0 1 Wind_Strength windStrength emptyWindharp0
;
#X obj 170 37 vu 15 120 harpVU empty -1 -8 0 10 -66577 -1 1 0;
#N canvas 739 491 450 300 limiter 0;
#X obj 96 332 *~;
#X obj 131 90 env~;
#X obj 131 112 dbtorms;
#X obj 96 67 inlet~;
#X obj 93 358 outlet~;
#X obj 240 330 *~;
#X obj 240 65 inlet~;
#X obj 237 356 outlet~;
#X msg 140 188 1 \$1;
#X obj 142 215 /;
#X obj 131 248 min 1;
#X obj 134 151 + 0.5;
#X obj 127 282 lop~ 5;
#X floatatom 276 170 5 0 0 0 - - -;
#X text 138 26 Simple Limiter;
#X text 309 403 pip;
#X connect 0 0 4 0;
#X connect 1 0 2 0;
#X connect 2 0 11 0;
#X connect 2 0 13 0;
#X connect 3 0 1 0;
#X connect 3 0 0 0;
#X connect 5 0 7 0;
#X connect 6 0 5 0;
#X connect 6 0 1 0;
#X connect 8 0 9 0;
#X connect 9 0 10 0;
#X connect 10 0 12 0;
#X connect 11 0 8 0;
#X connect 12 0 0 1;
#X connect 12 0 5 1;
#X restore 217 129 pd limiter;
#X floatatom -17 167 5 0 0 0 - - -;
#X floatatom 21 167 5 0 0 0 - - -;
#X floatatom 63 167 5 0 0 0 - - -;
#X floatatom 102 167 5 0 0 0 - - -;
#X floatatom 140 167 5 0 0 0 - - -;
#X connect 1 0 12 0;
#X connect 2 0 13 0;
#X connect 3 0 14 0;
#X connect 4 0 15 0;
#X connect 5 0 16 0;
#X connect 7 0 11 0;
#X connect 8 0 11 1;
#X connect 11 0 0 0;
#X connect 11 1 0 1;
