#N canvas 321 367 692 537 10;
#X obj 181 159 mtof;
#X obj 133 359 line~;
#X obj 95 399 *~;
#X obj 158 473 outlet~;
#X obj 187 9 inlet;
#X obj 269 155 bng 15 250 50 0 empty shot empty 17 7 0 10 -262144 -1
-1;
#X obj 72 333 *~;
#X floatatom 43 171 5 0 0 0 - - -;
#X obj 210 242 t b b;
#X obj 42 225 osc~;
#X obj 121 438 *~ 0.4;
#X obj 216 291 delay 30;
#X msg 160 325 0 800;
#X msg 155 285 0.9 150;
#X msg 48 145 1.5;
#X obj 27 65 float \$1;
#X obj 34 35 loadbang;
#X obj 138 245 phasor~;
#X obj 349 251 noise~;
#X obj 305 295 lop~;
#X obj 247 474 dac~;
#X connect 0 0 17 0;
#X connect 0 0 19 1;
#X connect 1 0 2 1;
#X connect 2 0 10 0;
#X connect 4 0 0 0;
#X connect 4 0 5 0;
#X connect 5 0 8 0;
#X connect 6 0 2 0;
#X connect 7 0 9 0;
#X connect 8 0 13 0;
#X connect 8 0 11 0;
#X connect 9 0 6 1;
#X connect 10 0 3 0;
#X connect 10 0 20 0;
#X connect 10 0 20 1;
#X connect 11 0 12 0;
#X connect 12 0 1 0;
#X connect 13 0 1 0;
#X connect 14 0 7 0;
#X connect 15 0 14 0;
#X connect 16 0 15 0;
#X connect 17 0 6 0;
#X connect 18 0 19 0;
#X connect 19 0 2 0;
