#N canvas 0 22 450 300 10;
#X obj 128 118 vsl 15 40 10 44100 0 0 empty empty empty 0 -9 0 10 -262144
-1 -1 1900 1;
#X obj 323 104 line;
#X obj 282 52 bng 15 250 50 0 empty combat_animation_stop empty 17
7 0 10 -262144 -1 -1;
#X obj 358 49 bng 15 250 50 0 empty combat_animation_start empty 17
7 0 10 -262144 -1 -1;
#X obj 76 224 outlet~;
#X obj 153 226 outlet~;
#X obj 84 83 inlet~;
#X obj 155 82 inlet~;
#X msg 358 77 200 100;
#X msg 282 78 44100 100;
#X obj 84 162 lop~;
#X obj 155 160 lop~;
#X obj 286 23 loadbang;
#X text 63 13 Lowpass Filter - simplest form;
#X connect 0 0 10 1;
#X connect 0 0 11 1;
#X connect 1 0 0 0;
#X connect 2 0 9 0;
#X connect 3 0 8 0;
#X connect 6 0 10 0;
#X connect 7 0 11 0;
#X connect 8 0 1 0;
#X connect 9 0 1 0;
#X connect 10 0 4 0;
#X connect 11 0 5 0;
#X connect 12 0 2 0;
