#N canvas 0 22 582 478 10;
#X obj 182 90 mtof;
#X obj 140 237 line~;
#X obj 102 277 *~;
#X obj 107 340 outlet~;
#X obj 187 29 inlet;
#X obj 272 86 bng 15 250 50 0 empty shot empty 17 7 0 10 -262144 -1
-1;
#X obj 79 211 *~;
#X floatatom 46 102 5 0 0 0 - - -;
#X obj 217 120 t b b;
#X obj 321 244 s_noish;
#X obj 62 44 loadbang;
#X obj 45 156 osc~;
#X obj 145 123 phasor~;
#X obj 246 289 *~ 0.3;
#X msg 162 163 0.9 10;
#X obj 107 302 *~ 0.4;
#X obj 223 169 delay 30;
#X msg 51 76 1.5;
#X msg 167 203 0 350;
#X obj 179 379 dac~;
#X msg 352 166 1000;
#X connect 0 0 12 0;
#X connect 1 0 2 1;
#X connect 2 0 15 0;
#X connect 4 0 0 0;
#X connect 5 0 8 0;
#X connect 6 0 2 0;
#X connect 7 0 11 0;
#X connect 8 0 14 0;
#X connect 8 0 9 0;
#X connect 8 0 16 0;
#X connect 9 0 13 0;
#X connect 10 0 17 0;
#X connect 10 0 20 0;
#X connect 11 0 6 1;
#X connect 12 0 6 0;
#X connect 13 0 2 0;
#X connect 14 0 1 0;
#X connect 15 0 3 0;
#X connect 15 0 19 0;
#X connect 15 0 19 1;
#X connect 16 0 18 0;
#X connect 17 0 7 0;
#X connect 18 0 1 0;
#X connect 20 0 9 0;
