#N canvas 520 99 450 300 10;
#X obj 149 239 outlet~ L;
#X obj 237 239 outlet~ R;
#X obj 267 45 sig~;
#X obj 267 72 lop~ 1;
#X obj 149 17 inlet~;
#X obj 267 18 inlet control;
#X obj 149 204 *~;
#X obj 237 205 *~;
#X obj 164 174 sqrt~;
#X obj 252 106 sig~ 1;
#X obj 252 142 -~;
#X obj 252 171 sqrt~;
#X connect 2 0 3 0;
#X connect 3 0 8 0;
#X connect 3 0 10 1;
#X connect 4 0 6 0;
#X connect 4 0 7 0;
#X connect 5 0 2 0;
#X connect 6 0 0 0;
#X connect 7 0 1 0;
#X connect 8 0 6 1;
#X connect 9 0 10 0;
#X connect 10 0 11 0;
#X connect 11 0 7 1;
