#N canvas 508 136 329 296 10;
#X obj 33 -38 inlet~;
#X obj 36 155 outlet~ L;
#X obj 110 155 outlet~ R;
#X obj 206 32 pip_vu;
#X obj 207 62 vu 15 120 empty empty -1 -8 0 10 -66577 -1 1 0;
#X floatatom 56 52 5 0 0 0 - - -;
#X obj 56 32 inlet delaytime;
#X obj 56 74 vd~ delaybuffer;
#X obj 103 99 s~ delayvu;
#X obj 206 8 r~ delayvu;
#X obj 33 9 delwrite~ delaybuffer 2500;
#X connect 0 0 10 0;
#X connect 3 0 4 0;
#X connect 5 0 7 0;
#X connect 6 0 5 0;
#X connect 7 0 1 0;
#X connect 7 0 2 0;
#X connect 7 0 8 0;
#X connect 9 0 3 0;
