#N canvas 697 231 450 300 10;
#X obj -59 -12 inlet~;
#X obj 48 248 outlet~ L;
#X obj 122 248 outlet~ R;
#X obj 295 40 pip_vu;
#X obj 296 70 vu 15 120 empty empty -1 -8 0 10 -66577 -1 1 0;
#X obj 295 16 r~ delayvu;
#X obj 116 209 s~ delayvu;
#X obj 106 -6 delwrite~ delaybuffer 2500;
#X obj 122 157 *~ 0.4;
#X obj 122 57 lop~ 2500;
#X text 210 38 Lowpass;
#X text 192 139 Feedback;
#X obj 61 182 vd~ delaybuffer 100;
#X floatatom -29 62 5 15 5000 0 - - -;
#X obj -29 110 vline~;
#X floatatom 173 37 5 0 44000 0 - - -;
#X floatatom 155 137 5 0 1 0 - - -;
#X msg -29 87 \$1 100;
#X obj 173 16 inlet lp;
#X obj 156 78 inlet fb;
#X obj -28 39 inlet time;
#X obj 156 116 min 1;
#X obj 157 97 max 0;
#X connect 0 0 9 0;
#X connect 3 0 4 0;
#X connect 5 0 3 0;
#X connect 8 0 9 0;
#X connect 9 0 7 0;
#X connect 12 0 8 0;
#X connect 12 0 1 0;
#X connect 12 0 2 0;
#X connect 12 0 6 0;
#X connect 13 0 17 0;
#X connect 14 0 12 0;
#X connect 15 0 9 1;
#X connect 16 0 8 1;
#X connect 17 0 14 0;
#X connect 18 0 15 0;
#X connect 19 0 22 0;
#X connect 20 0 13 0;
#X connect 21 0 16 0;
#X connect 22 0 21 0;
