#N canvas 407 70 446 595 10;
#X obj 154 264 phasor~;
#X obj 16 306 cos~;
#X obj 16 334 +~ 1;
#X obj 16 360 *~ 0.5;
#X obj 35 433 *~;
#X obj 76 320 r depth;
#X obj 146 346 cos~;
#X obj 146 374 +~ 1;
#X obj 146 400 *~ 0.5;
#X obj 165 444 *~;
#X obj 206 317 r depth;
#X obj 276 346 cos~;
#X obj 276 374 +~ 1;
#X obj 276 400 *~ 0.5;
#X obj 295 444 *~;
#X obj 336 315 r depth;
#X obj 276 311 +~ 0.66;
#X msg 354 175 \; pd dsp 1;
#X msg 355 213 \; pd dsp 0;
#X obj 35 476 vd~ CHORUS;
#X obj 165 478 vd~ CHORUS;
#X obj 295 477 vd~ CHORUS;
#X obj 146 311 +~ 0.33;
#X obj 35 499 *~ 0.33;
#X obj 165 499 *~ 0.33;
#X obj 295 499 *~ 0.33;
#X obj 213 160 hsl 128 15 0.05 50 1 1 depth empty depth -2 -8 0 10
-262144 -1 -1 8200 1;
#X obj 211 205 hsl 128 15 0.005 5 1 1 speed empty speed -2 -8 0 10
-262144 -1 -1 5200 1;
#X obj 152 240 r speed;
#X obj 55 207 delwrite~ CHORUS 10000;
#X obj 168 561 outlet~;
#X obj 55 168 inlet~;
#X obj 176 84 inlet;
#X obj 249 82 inlet;
#X connect 0 0 1 0;
#X connect 0 0 22 0;
#X connect 0 0 16 0;
#X connect 1 0 2 0;
#X connect 2 0 3 0;
#X connect 3 0 4 0;
#X connect 4 0 19 0;
#X connect 5 0 4 1;
#X connect 6 0 7 0;
#X connect 7 0 8 0;
#X connect 8 0 9 0;
#X connect 9 0 20 0;
#X connect 10 0 9 1;
#X connect 11 0 12 0;
#X connect 12 0 13 0;
#X connect 13 0 14 0;
#X connect 14 0 21 0;
#X connect 15 0 14 1;
#X connect 16 0 11 0;
#X connect 19 0 23 0;
#X connect 20 0 24 0;
#X connect 21 0 25 0;
#X connect 22 0 6 0;
#X connect 23 0 30 0;
#X connect 24 0 30 0;
#X connect 25 0 30 0;
#X connect 28 0 0 0;
#X connect 31 0 29 0;
#X connect 32 0 26 0;
#X connect 33 0 27 0;
