#N canvas 0 22 450 300 10;
#X obj 139 229 outlet~ L;
#X obj 227 229 outlet~ R;
#X obj 257 35 sig~;
#X obj 257 62 lop~ 1;
#X obj 139 7 inlet~;
#X obj 257 8 inlet control;
#X obj 139 194 *~;
#X obj 227 195 *~;
#X obj 257 95 *~ 0.25;
#X obj 257 127 -~ 0.25;
#X obj 257 149 cos~;
#X obj 154 144 -~ 0.25;
#X obj 154 164 cos~;
#X connect 2 0 3 0;
#X connect 3 0 8 0;
#X connect 4 0 6 0;
#X connect 4 0 7 0;
#X connect 5 0 2 0;
#X connect 6 0 0 0;
#X connect 7 0 1 0;
#X connect 8 0 9 0;
#X connect 9 0 10 0;
#X connect 9 0 11 0;
#X connect 10 0 7 1;
#X connect 11 0 12 0;
#X connect 12 0 6 1;
