#N canvas 617 250 657 398 10;
#X obj 66 70 gemwin;
#X msg 54 28 create \, 1;
#X obj 182 71 gemhead;
#X obj 182 50 tgl 15 0 empty empty empty 17 7 0 10 -262144 -1 -1 1
1;
#X obj 182 125 pix_film;
#X msg 257 92 open 1.mp4;
#X obj 206 156 unpack f f f;
#X floatatom 206 185 5 0 0 0 - - -;
#X floatatom 243 185 5 0 0 0 - - -;
#X floatatom 279 185 5 0 0 0 - - -;
#X obj 182 224 pix_texture;
#X msg 359 93 auto \$1;
#X obj 363 57 tgl 15 0 empty empty empty 17 7 0 10 -262144 -1 -1 1
1;
#X obj 181 260 rectangle;
#X connect 1 0 0 0;
#X connect 2 0 4 0;
#X connect 3 0 2 0;
#X connect 4 0 10 0;
#X connect 4 1 6 0;
#X connect 5 0 4 0;
#X connect 6 0 7 0;
#X connect 6 1 8 0;
#X connect 6 2 9 0;
#X connect 10 0 13 0;
#X connect 11 0 4 0;
#X connect 12 0 11 0;
