#N struct 1021-symarray float x array symbols 1021-sym;
#N struct 1021-sym symbol name float on;
#N canvas 544 128 826 703 10;
#X declare -path ./;
#X symbolatom -65 371 10 0 0 0 - - -;
#X obj 4 292 hradio 15 1 0 25 empty mybuttons empty 0 -8 0 10 -262144
-1 -1 0;
#X obj -17 341 u_multisamplebank $-notes;
#X text 3 -3 Load Samples!;
#X obj -22 -6 bng 15 250 50 0 empty empty empty 17 7 0 10 -262144 -1
-1;
#X obj 130 368 print;
#X text 170 373 makes list of samples;
#X msg 135 315 dump;
#X text 174 315 triggers list creation;
#X obj 112 -1 bng 15 250 50 0 reset_samplebank empty empty 17 7 0 10
-262144 -1 -1;
#X text 137 -2 Reset bank!;
#N canvas 259 195 1218 871 sampleplayer 0;
#X obj 39 704 outlet~;
#X obj 271 35 inlet;
#X obj 33 162 tabplay~ $-notes-1;
#X obj 40 188 tabplay~ $-notes-2;
#X obj 62 209 tabplay~ $-notes-3;
#X obj 84 232 tabplay~ $-notes-4;
#X obj 86 257 tabplay~ $-notes-5;
#X floatatom 207 61 5 0 0 0 - - -;
#X obj 112 282 tabplay~ $-notes-6;
#X obj 142 310 tabplay~ $-notes-7;
#X obj 146 333 tabplay~ $-notes-8;
#X obj 139 361 tabplay~ $-notes-9;
#X obj 143 391 tabplay~ $-notes-10;
#X obj 156 417 tabplay~ $-notes-11;
#X obj 163 445 tabplay~ $-notes-12;
#X obj 28 130 tabplay~ $-notes-0;
#X obj 338 48 select 0 1 2 3 4 5 6 7 8 9 10 11 12 13 14 15 16 17 18
19 20 21 22 23 24;
#X obj 178 474 tabplay~ $-notes-13;
#X obj 183 506 tabplay~ $-notes-14;
#X obj 190 532 tabplay~ $-notes-15;
#X obj 212 553 tabplay~ $-notes-16;
#X obj 234 576 tabplay~ $-notes-17;
#X obj 236 601 tabplay~ $-notes-18;
#X obj 262 626 tabplay~ $-notes-19;
#X obj 276 649 tabplay~ $-notes-20;
#X obj 296 677 tabplay~ $-notes-21;
#X obj 289 705 tabplay~ $-notes-22;
#X obj 293 735 tabplay~ $-notes-23;
#X obj 306 761 tabplay~ $-notes-24;
#X obj 304 787 tabplay~ $-notes-25;
#X connect 1 0 7 0;
#X connect 1 0 16 0;
#X connect 2 0 0 0;
#X connect 3 0 0 0;
#X connect 4 0 0 0;
#X connect 5 0 0 0;
#X connect 6 0 0 0;
#X connect 8 0 0 0;
#X connect 9 0 0 0;
#X connect 10 0 0 0;
#X connect 11 0 0 0;
#X connect 12 0 0 0;
#X connect 13 0 0 0;
#X connect 14 0 0 0;
#X connect 15 0 0 0;
#X connect 16 0 15 0;
#X connect 16 1 2 0;
#X connect 16 2 3 0;
#X connect 16 3 4 0;
#X connect 16 4 5 0;
#X connect 16 5 6 0;
#X connect 16 6 8 0;
#X connect 16 7 9 0;
#X connect 16 8 10 0;
#X connect 16 9 11 0;
#X connect 16 10 12 0;
#X connect 16 11 13 0;
#X connect 16 12 14 0;
#X connect 16 13 17 0;
#X connect 16 14 18 0;
#X connect 16 15 19 0;
#X connect 16 16 20 0;
#X connect 16 17 21 0;
#X connect 16 18 22 0;
#X connect 16 19 23 0;
#X connect 16 20 24 0;
#X connect 16 21 25 0;
#X connect 16 22 26 0;
#X connect 16 23 27 0;
#X connect 16 24 28 0;
#X connect 16 25 29 0;
#X connect 17 0 0 0;
#X connect 18 0 0 0;
#X connect 19 0 0 0;
#X connect 20 0 0 0;
#X connect 21 0 0 0;
#X connect 22 0 0 0;
#X connect 23 0 0 0;
#X connect 24 0 0 0;
#X connect 25 0 0 0;
#X connect 26 0 0 0;
#X connect 27 0 0 0;
#X connect 28 0 0 0;
#X restore 5 406 pd sampleplayer;
#X text 348 66 Always use these filenames;
#X obj -12 500 dac~;
#X obj 384 458 declare -path ./;
#X msg -21 26 open 01.wav 0 \, open 02.wav 1 \, open 03.wav 2 \, open
04.wav 3 \, open 05.wav 4 \, open 06.wav 5 \, open 07.wav 6 \, open
08.wav 7 \, open 09.wav 8 \, open 10.wav 9 \, open 11.wav 10 \, open
12.wav 11 \, open 13.wav 12 \, open 14.wav 13 \, open 15.wav 14 \,
open 16.wav 15 \, open 17.wav 16 \, open 18.wav 17 \, open 19.wav 18
\, open 20.wav 19 \, open 21.wav 20 \, open 22.wav 21 \, open 22.wav
21 \, open 23.wav 22 \, open 24.wav 23 \, open 25.wav 24;
#X obj 11 -58 loadbang;
#X floatatom 36 158 5 0 0 0 - - -;
#X floatatom 86 158 5 0 0 0 - - -;
#X floatatom 141 158 5 0 0 0 - - -;
#X floatatom 200 160 5 0 0 0 - - -;
#X obj -2 449 *~ 0.3;
#X obj 28 217 spigot;
#X obj 56 186 tgl 15 0 empty empty empty 17 7 0 10 -262144 -1 -1 60
60;
#X obj 75 217 spigot;
#X obj 103 186 tgl 15 0 empty empty empty 17 7 0 10 -262144 -1 -1 0
1;
#X obj 131 217 spigot;
#X obj 159 186 tgl 15 0 empty empty empty 17 7 0 10 -262144 -1 -1 0
1;
#X obj 181 216 spigot;
#X obj 209 185 tgl 15 0 empty empty empty 17 7 0 10 -262144 -1 -1 0
1;
#X obj 15 251 - 60;
#X connect 1 0 2 0;
#X connect 1 0 11 0;
#X connect 2 0 0 0;
#X connect 2 1 5 0;
#X connect 4 0 15 0;
#X connect 7 0 2 1;
#X connect 11 0 21 0;
#X connect 15 0 2 0;
#X connect 16 0 4 0;
#X connect 17 0 23 0;
#X connect 17 0 22 0;
#X connect 18 0 25 0;
#X connect 18 0 24 0;
#X connect 19 0 27 0;
#X connect 19 0 26 0;
#X connect 20 0 29 0;
#X connect 20 0 28 0;
#X connect 21 0 13 0;
#X connect 21 0 13 1;
#X connect 22 0 30 0;
#X connect 23 0 22 1;
#X connect 24 0 30 0;
#X connect 25 0 24 1;
#X connect 26 0 30 0;
#X connect 27 0 26 1;
#X connect 28 0 30 0;
#X connect 29 0 28 1;
#X connect 30 0 1 0;
