#N canvas 118 32 969 618 10;
#X obj 159 455 makenote 100 125;
#X obj 45 55 tgl 15 0 empty empty empty 17 7 0 10 -262144 -1 -1 1 1
;
#X obj 45 107 counter;
#X obj 115 92 bng 15 250 50 0 empty empty empty 17 7 0 10 -262144 -1
-1;
#X floatatom 45 131 5 0 0 0 - - -;
#X obj 45 188 tabread selfsim;
#X floatatom 44 220 5 0 0 0 - - -;
#X obj 172 495 noteout;
#X obj 45 33 inlet;
#X obj 115 66 inlet;
#X text 126 11 Play only major scale notes;
#X obj 159 329 + 60;
#X obj 44 262 moses 0;
#X obj 44 300 t b f;
#X obj 42 363 +;
#X floatatom 42 389 5 0 0 0 - - -;
#X obj 42 438 + 48;
#X text 458 173 Turn into chromatic minor;
#X obj 90 168 s loop;
#X obj 104 44 r loop;
#X floatatom 250 323 5 0 0 0 - - -;
#X floatatom 167 282 5 0 0 0 - - -;
#X obj 45 78 metro 180;
#X msg 42 327 7;
#X msg 189 385 60;
#X text 478 211 Only fifths and octaves;
#X text 465 250 Blues scale;
#X floatatom 61 482 5 0 0 0 - - -;
#X obj 311 108 table scale;
#X msg 311 131 \; scale 0 0 2 4 5 7 9 11;
#X msg 311 167 \; scale 0 0 2 3 5 7 9 11;
#X msg 311 205 \; scale 0 0 5 7 10 12 14 17;
#X msg 310 243 \; scale 0 0 3 5 6 7 10 12;
#X obj 159 305 tabread scale;
#X obj 42 414 tabread scale;
#X text 458 137 Major Scale;
#X obj 390 109 loadbang;
#X obj 208 36 inlet;
#X obj 208 84 select 0 1 2 3;
#X msg 311 281 \; scale 0 0 2 4 5 9 10 12;
#X text 466 288 Mixo scale;
#X obj 90 147 select 1500;
#X obj 317 68 table selfsim;
#X connect 0 0 7 0;
#X connect 0 1 7 1;
#X connect 1 0 22 0;
#X connect 2 0 4 0;
#X connect 3 0 2 3;
#X connect 4 0 5 0;
#X connect 4 0 41 0;
#X connect 5 0 6 0;
#X connect 6 0 12 0;
#X connect 8 0 1 0;
#X connect 9 0 3 0;
#X connect 11 0 0 0;
#X connect 12 0 13 0;
#X connect 12 1 21 0;
#X connect 12 1 33 0;
#X connect 13 0 23 0;
#X connect 13 1 14 1;
#X connect 14 0 15 0;
#X connect 15 0 34 0;
#X connect 16 0 0 0;
#X connect 16 0 27 0;
#X connect 19 0 3 0;
#X connect 22 0 2 0;
#X connect 23 0 14 0;
#X connect 24 0 0 0;
#X connect 33 0 11 0;
#X connect 33 0 20 0;
#X connect 34 0 16 0;
#X connect 36 0 29 0;
#X connect 37 0 38 0;
#X connect 38 0 29 0;
#X connect 38 1 30 0;
#X connect 38 2 31 0;
#X connect 38 3 32 0;
#X connect 38 4 39 0;
#X connect 41 0 18 0;
