#N canvas 4 22 745 543 10;
#X obj 50 260 e_reverb rev1;
#X msg 357 371 amp 80 \, hall 80 \, freq 6000 \, damp 60;
#X text 356 332 Defaults:;
#X text 32 456 RjDj Library (https://github.com/rjdj/rjlib) - 2011
;
#X obj 361 297 s \$0-CTL;
#X text 394 54 GUI;
#X text 528 55 No-GUI;
#X obj 361 102 g_hsl dry 0 1;
#X msg 529 107 dry \$1;
#X obj 361 142 g_hsl amp 0 100;
#X obj 361 182 g_hsl hall 0 100;
#X obj 361 222 g_hsl freq 20 22050;
#X obj 361 262 g_hsl damp 0 100;
#X text 281 151 Amplitude;
#X text 284 188 Room Size;
#X text 235 227 Filter Frequency;
#X text 298 269 Damping;
#X obj 138 240 r \$0-CTL;
#X msg 529 147 amp \$1;
#X msg 529 187 hall \$1;
#X msg 529 227 freq \$1;
#X msg 529 267 damp \$1;
#X obj 357 392 s \$0-GUI;
#X obj 361 76 r \$0-GUI;
#X obj 357 350 loadbang;
#X text 272 109 Dry/Wet Mix;
#X obj 43 130 inlet~;
#X obj 49 334 outlet~ L;
#X obj 138 335 outlet~ R;
#X connect 0 0 27 0;
#X connect 0 1 28 0;
#X connect 1 0 22 0;
#X connect 7 0 9 0;
#X connect 9 0 10 0;
#X connect 10 0 11 0;
#X connect 11 0 12 0;
#X connect 12 0 4 0;
#X connect 17 0 0 1;
#X connect 23 0 7 0;
#X connect 24 0 1 0;
#X connect 26 0 0 0;
