#N canvas 15 22 450 300 10;
#X obj 79 50 inlet hz;
#X text 234 91 zahnradabstand in cm;
#X obj 196 126 / 100;
#X floatatom 196 155 5 0 0 1 m - -;
#X obj 147 203 *;
#X floatatom 95 103 5 0 0 0 - - -;
#X floatatom 148 233 5 0 0 1 meter/sekunde - -;
#X obj 148 272 outlet;
#X obj 201 51 loadbang;
#X obj 192 98 f \$1;
#X connect 0 0 5 0;
#X connect 2 0 3 0;
#X connect 3 0 4 1;
#X connect 4 0 6 0;
#X connect 5 0 4 0;
#X connect 6 0 7 0;
#X connect 8 0 9 0;
#X connect 9 0 2 0;
