#N canvas 152 350 879 385 10;
#X obj 99 107 inlet~;
#X obj 157 107 inlet~;
#X obj 99 212 *~;
#X obj 157 212 *~;
#X obj 105 134 r \$1;
#X obj 174 300 lop~;
#X obj 91 302 lop~;
#X obj 231 150 vsl 15 50 10 44100 0 0 empty empty empty 0 -9 0 10 -262144
-1 -1 4900 1;
#X obj 229 86 line;
#X msg 291 57 0 150;
#X obj 211 26 bng 15 250 50 0 empty empty empty 17 7 0 10 -262144 -1
-1;
#X obj 291 29 bng 15 250 50 0 empty empty empty 17 7 0 10 -262144 -1
-1;
#X msg 211 52 44100 150;
#X obj 210 5 loadbang;
#X text 545 342 pip;
#N canvas 334 484 450 300 channelVU 0;
#X obj 71 71 env~;
#X obj 71 98 - 100;
#X obj 71 44 inlet~;
#X obj 71 136 s \$2;
#X connect 0 0 1 0;
#X connect 1 0 3 0;
#X connect 2 0 0 0;
#X restore 277 335 pd channelVU;
#X obj 76 338 throw~ engSumL;
#X obj 170 338 throw~ engSumR;
#X obj 113 174 line~ \$1 10;
#X obj 383 204 r \$3;
#X obj 64 256 pip_pan;
#X obj 175 256 pip_pan;
#X connect 0 0 2 0;
#X connect 1 0 3 0;
#X connect 2 0 20 0;
#X connect 3 0 21 0;
#X connect 4 0 18 0;
#X connect 5 0 15 0;
#X connect 5 0 17 0;
#X connect 6 0 15 0;
#X connect 6 0 16 0;
#X connect 7 0 5 1;
#X connect 7 0 6 1;
#X connect 8 0 7 0;
#X connect 9 0 8 0;
#X connect 10 0 12 0;
#X connect 11 0 9 0;
#X connect 12 0 8 0;
#X connect 13 0 10 0;
#X connect 18 0 2 1;
#X connect 18 0 3 1;
#X connect 19 0 21 1;
#X connect 19 0 20 1;
#X connect 20 0 6 0;
#X connect 20 1 5 0;
#X connect 21 0 6 0;
#X connect 21 1 5 0;
